<?xml version="1.0" encoding="utf-8"?>
<!-- Generator: Adobe Illustrator 27.9.0, SVG Export Plug-In . SVG Version: 6.00 Build 0)  -->
<svg version="1.1" id="Layer_1" focusable="false" xmlns="http://www.w3.org/2000/svg" xmlns:xlink="http://www.w3.org/1999/xlink"
	 x="0px" y="0px" viewBox="0 0 512 512" style="enable-background:new 0 0 512 512;" xml:space="preserve">
<title>Printed label</title>
<data-Icon_Keyword>Print, Print Label, Printing,</data-Icon_Keyword>
<data-Icon_Use_Case>REPRESENTS: Printed label LIMITATIONS OF USE: This icon has no limitations of use, only that it must represent a printed label.</data-Icon_Use_Case>
<path d="M374.8,184.3l25.2,25.2l11.9-11.9l-25.2-25.2L374.8,184.3z M417.1,192.4l11.9-11.9l-25.2-25.2l-11.9,11.9L417.1,192.4z
	 M307.9,229.6l85-85L381,132.7l-85,85L307.9,229.6z M318.7,240.4l25.2,25.2l11.9-11.9l-25.2-25.2L318.7,240.4z M357.7,201.4
	l25.2,25.2l11.9-11.9l-25.2-25.2L357.7,201.4z M335.2,223.9l25.2,25.2l11.9-11.9L347,212.1L335.2,223.9z M287.4,209.1l85-85
	l-11.9-11.9l-85,85L287.4,209.1z M289.3,124l41.6-41.6L319,70.6l-41.6,41.6L289.3,124z M443.8,347.8c-16.8,6.1-68.7,23.9-119.1,38.6
	c-48.7,14.2-64.1,25.5-105.3,7.2c-15.1-6.7-35.1-56.5-35.1-56.5s75,5.1,105.9,5.1c30.5,0,33.6-46.2,0.1-50
	c-33.6-3.8-147.1-36-182.2-29.9s-71.5,41.2-71.5,41.2v142l48.6-24.4c0,0,24.9,17.8,55.4,37.6c30.5,19.8,66.7,44.8,66.7,44.8
	s71.5-29,85.3-35.1s143.7-68.7,165.1-79.4C478.9,378.3,460.6,341.7,443.8,347.8z M328.3,298.7c7,7,18.3,7,25.3,0L462,190.2
	c7-7,7-18.3,0-25.3L306.7,9.6c-7-7-18.3-7-25.3,0L172.9,118.1c-7,7-7,18.3,0,25.3L328.3,298.7z M440.4,171.4
	c3.6,3.6,3.7,9.3,0.3,12.8l-93.2,93.2c-3.5,3.5-9.2,3.3-12.8-0.3l-81-81L359.4,90.4L440.4,171.4z M194.3,124.1L287.4,31
	c3.5-3.5,9.2-3.3,12.8,0.3L350,81.1L244.4,186.7l-49.8-49.8C191,133.3,190.8,127.6,194.3,124.1z M389.3,287.3
	c-12.7,12.6-52.4,50.4-92.1,84.8c-3.2,2.7-6.1,5.4-8.9,7.9c40.1-11.9,79.9-24.9,109.3-34.8c10-12.2,17.8-21.7,21.4-26.1
	C433.9,300.4,402,274.8,389.3,287.3z M307,58.6l-11.9-11.9l-41.6,41.6l11.9,11.9L307,58.6z M281.6,131.7L245.8,96L210,131.7
	l35.8,35.8L281.6,131.7z"/>
</svg>

