<?xml version="1.0" encoding="utf-8"?>
<!-- Generator: Adobe Illustrator 27.9.0, SVG Export Plug-In . SVG Version: 6.00 Build 0)  -->
<svg version="1.1" id="Layer_1" focusable="false" xmlns="http://www.w3.org/2000/svg" xmlns:xlink="http://www.w3.org/1999/xlink"
	 x="0px" y="0px" viewBox="0 0 512 512" style="enable-background:new 0 0 512 512;" xml:space="preserve">
<title>Store</title>
<data-Icon_Keyword>Store,Selling,Purchase, Trasactions</data-Icon_Keyword>
<data-Icon_Use_Case>REPRESENTS: Store. LIMITATIONS OF USE: This icon has no limitations of use, only that it must represent a Store.</data-Icon_Use_Case>
<path d="M190.2,224.7c23.8,1.4,46.4-16,50.4-39c-32,0-63.8,0-95.6,0C146,204.5,167.9,223.3,190.2,224.7z M323.1,224.6
	c22.1-2.2,44-21.7,43.5-38.9c-31.7,0-63.4,0-95.4,0C275.4,209.3,299.2,227,323.1,224.6z M481.9,157.4c-0.5-1-0.7-1.5-1-2
	c-19.4-34.1-38.8-68.3-58.2-102.4c-1.1-2-2.4-2.3-4.4-2.3c-14.4,0-28.7,0-43.1,0l19.6,106.7C423.9,157.4,452.9,157.4,481.9,157.4z
	 M344,50.7c-24.2,0-48.4,0-72.6,0v106.7c30.7,0,61.4,0,92.2,0L344,50.7z M240.2,50.7c-24,0-48.1,0-72.1,0l-19.6,106.7
	c30.6,0,61.1,0,91.7,0V50.7z M382.3,220.3c-16,21-36.8,32.5-63.2,32.5c-26.3,0-47.1-11.6-63-32.4c-31.5,43.5-96,42.9-126.6,0
	c-16.7,22-38.8,32.9-66.5,32.6v228.1h51.3V293.9h103.4v187.2l231.1-0.1V253C421,253.2,398.9,242.3,382.3,220.3z M389.2,401.7H281.3
	V293.9h107.9L389.2,401.7L389.2,401.7z M397.9,185.8c0.3,18.4,23.1,38.1,45,39c30.5,1.2,48.2-22.4,50.4-39
	C461.5,185.8,429.7,185.8,397.9,185.8z M136.8,50.6c-14.4,0-28.8,0-43.2,0c-2.3,0-3.7,0.6-4.8,2.7C69.7,87.2,50.4,121,31.2,154.9
	c-0.4,0.7-0.6,1.5-1,2.4c29,0,58,0,87.1,0L136.8,50.6z M114.2,185.7c-32,0-63.8,0-95.6,0c2.1,20.8,24.3,39,47.4,39
	C95.2,224.7,111.8,202.2,114.2,185.7z"/>
</svg>

