<?xml version="1.0" encoding="utf-8"?>
<!-- Generator: Adobe Illustrator 27.9.0, SVG Export Plug-In . SVG Version: 6.00 Build 0)  -->
<svg version="1.1" id="Layer_1" focusable="false" xmlns="http://www.w3.org/2000/svg" xmlns:xlink="http://www.w3.org/1999/xlink"
	 x="0px" y="0px" viewBox="0 0 512 512" style="enable-background:new 0 0 512 512;" xml:space="preserve">
<title>Checkbox box checked</title>
<data-Icon_Keyword>Checkbox, box, square, checked</data-Icon_Keyword>
<data-Icon_Use_Case>REPRESENTS: Checkbox Box LIMITATIONS OF USE: This icon has no limitations of use.</data-Icon_Use_Case>
<path d="M445.2,127c-22.7,34-45.5,67.9-68.5,101.7c-45,66.1-90.1,132.3-135.3,198.4c-13,18.8-33.1,21.4-49.4,5.5
	c-41.1-40.4-81.8-81.3-122.4-122.2c-8.6-8.6-8.8-18.7-0.5-27.6c10-10.7,20.4-21.3,31.2-31.2c8.5-7.8,18.8-7.4,27,0.6
	c24.3,23.8,48.6,47.6,72.9,71.6c2.1,1.9,4.1,3.8,6.9,6.6c8.1-11.8,15.8-23.3,23.5-34.7c48.3-70.6,96.3-141.4,144.5-211.9
	c11.2-16.3,20.4-17.9,36.7-6.9c9.6,6.4,19,13.1,28.1,19.9C451.1,105.3,453,115.4,445.2,127z"/>
<path d="M445.6,8.3H67.9C35.4,8.3,9,34.6,9,67.1v377.8c0,32.5,26.4,58.9,58.9,58.9h377.8c32.5,0,58.9-26.4,58.9-58.9V67.1
	C504.5,34.6,478.1,8.3,445.6,8.3z M453.1,430.1c0,12.3-10,22.3-22.3,22.3H82.6c-12.3,0-22.3-10-22.3-22.3V81.9
	c0-12.3,10-22.3,22.3-22.3h348.2c12.3,0,22.3,10,22.3,22.3V430.1z"/>
</svg>

