<?xml version="1.0" encoding="utf-8"?>
<!-- Generator: Adobe Illustrator 27.9.0, SVG Export Plug-In . SVG Version: 6.00 Build 0)  -->
<svg version="1.1" id="Layer_1" focusable="false" xmlns="http://www.w3.org/2000/svg" xmlns:xlink="http://www.w3.org/1999/xlink"
	 x="0px" y="0px" viewBox="0 0 512 512" style="enable-background:new 0 0 512 512;" xml:space="preserve">
<title>Arrow left</title>
<data-Icon_Keyword>Direction, Navigation, arrow, left, short</data-Icon_Keyword>
<data-Icon_Use_Case>REPRESENTS: Short Left Arrow LIMITATIONS OF USE: This icon has no limitations of use.</data-Icon_Use_Case>
<path d="M283.1,416.7c0,0,11.9-9.8,11.9-35.5c0-5.6,0-19.7,0-38.5h89.5c22.9,0,41.5-18.6,41.5-41.5v-82.3
	c0-22.9-18.6-41.5-41.5-41.5H295c0-21.1,0-36.6,0-41.1c0-18.4-11.8-33-11.8-33c-15.8-15.8-41.4-15.8-57.1,0L97.8,231.4
	c-15.8,15.8-15.8,41.4,0,57.1L226,416.7C241.8,432.5,267.4,432.5,283.1,416.7z"/>
</svg>

