<?xml version="1.0" encoding="utf-8"?>
<!-- Generator: Adobe Illustrator 27.9.0, SVG Export Plug-In . SVG Version: 6.00 Build 0)  -->
<svg version="1.1" id="Layer_1" focusable="false" xmlns="http://www.w3.org/2000/svg" xmlns:xlink="http://www.w3.org/1999/xlink"
	 x="0px" y="0px" viewBox="0 0 512 512" style="enable-background:new 0 0 512 512;" xml:space="preserve">
<title>Applications</title>
<data-Icon_Keyword>Applications</data-Icon_Keyword>
<data-Icon_Use_Case>REPRESENTS: Package, Package box. LIMITATIONS OF USE: This icon has no limitations of use, only that it must represent a package or package box.</data-Icon_Use_Case>
<path d="M149.3,36.4v87.9c0,14.6-10.7,26.4-24,26.4H24c-13.3,0-24-11.8-24-26.4V36.4C0,21.8,10.7,10,24,10h101.3
	C138.6,10,149.3,21.8,149.3,36.4L149.3,36.4z M330.7,299.9V212c0-14.6-10.7-26.4-24-26.4H205.3c-13.3,0-24,11.8-24,26.4v87.9
	c0,14.6,10.7,26.4,24,26.4h101.3C319.9,326.3,330.7,314.5,330.7,299.9z M362.7,36.4v87.9c0,14.6,10.7,26.4,24,26.4H488
	c13.3,0,24-11.8,24-26.4V36.4c0-14.6-10.7-26.4-24-26.4H386.7C373.4,10,362.7,21.8,362.7,36.4z M330.7,124.2V36.4
	c0-14.6-10.7-26.4-24-26.4H205.3c-13.3,0-24,11.8-24,26.4v87.9c0,14.6,10.7,26.4,24,26.4h101.3C319.9,150.6,330.7,138.8,330.7,124.2
	z M125.3,185.7H24c-13.3,0-24,11.8-24,26.4V300c0,14.6,10.7,26.4,24,26.4h101.3c13.3,0,24-11.8,24-26.4v-87.9
	C149.3,197.5,138.6,185.7,125.3,185.7L125.3,185.7z M0,387.8v87.9C0,490.2,10.7,502,24,502h101.3c13.3,0,24-11.8,24-26.4v-87.9
	c0-14.6-10.7-26.4-24-26.4H24C10.7,361.4,0,373.2,0,387.8z M386.7,326.3H488c13.3,0,24-11.8,24-26.4V212c0-14.6-10.7-26.4-24-26.4
	H386.7c-13.3,0-24,11.8-24,26.4v87.9C362.7,314.5,373.4,326.3,386.7,326.3z M386.7,502H488c13.3,0,24-11.8,24-26.4v-87.9
	c0-14.6-10.7-26.4-24-26.4H386.7c-13.3,0-24,11.8-24,26.4v87.9C362.7,490.2,373.4,502,386.7,502z M181.3,387.8v87.9
	c0,14.6,10.7,26.4,24,26.4h101.3c13.3,0,24-11.8,24-26.4v-87.9c0-14.6-10.7-26.4-24-26.4H205.3C192.1,361.4,181.3,373.2,181.3,387.8
	z"/>
</svg>

