<?xml version="1.0" encoding="utf-8"?>
<!-- Generator: Adobe Illustrator 27.9.0, SVG Export Plug-In . SVG Version: 6.00 Build 0)  -->
<svg version="1.1" id="Layer_1" focusable="false" xmlns="http://www.w3.org/2000/svg" xmlns:xlink="http://www.w3.org/1999/xlink"
	 x="0px" y="0px" viewBox="0 0 512 512" style="enable-background:new 0 0 512 512;" xml:space="preserve">
<title>Digital returns integration</title>
<data-Icon_Keyword>Integration, puzzle</data-Icon_Keyword>
<data-Icon_Use_Case>REPRESENTS: Integration LIMITATIONS OF USE: This icon has no limitations of use, only that it must represent Integration</data-Icon_Use_Case>
<path d="M246.6,110.5c18.7-18.7,35.1-11.2,47.9-10.8l0,0c9.4-0.4,22.5-3.3,32-12.8c2.6-2.6,4.8-5.5,6.6-8.6l-60.4-60.4
	c-8.6-8.6-22.7-8.6-31.3,0l-94,94c-2.4-1.5-4.6-3.3-6.6-5.3c-9.5-9.5-12.4-22.6-12.8-32l0,0c0.4-12.8,7.9-29.3-10.8-47.9
	c-20-20-58.8-17.9-84,7.3S6,98.1,25.9,118c18.7,18.7,35.1,11.2,47.9,10.8l0,0c9.4,0.4,22.5,3.3,32,12.8c2,2,3.8,4.2,5.3,6.6l-94,94
	c-8.6,8.6-8.6,22.7,0,31.3l60.4,60.4c3.1-1.8,6-4,8.6-6.6c9.5-9.5,12.4-22.6,12.8-32l0,0c-0.4-12.8-7.9-29.3,10.8-47.9
	c20-20,58.8-17.9,84,7.3s27.2,64.1,7.3,84c-18.7,18.7-35.1,11.2-47.9,10.8l0,0c-9.4,0.4-22.5,3.3-32,12.8c-2.6,2.6-4.8,5.5-6.6,8.6
	l126.7,126.7c8.6,8.6,22.7,8.6,31.3,0l92.9-92.9c-2-4.2-4.7-8.1-8.1-11.5c-9.5-9.5-22.6-12.4-32-12.8l0,0
	c-12.8,0.4-29.3,7.9-47.9-10.8c-20-20-17.9-58.8,7.3-84c25.2-25.2,64.1-27.2,84-7.3c18.7,18.7,11.2,35.1,10.8,47.9l0,0
	c0.4,9.4,3.3,22.5,12.8,32c3.4,3.4,7.3,6.1,11.5,8.1l92.9-92.9c8.6-8.6,8.6-22.7,0-31.3L370.1,115.3c-3.1,1.8-6,4-8.6,6.6
	c-9.5,9.5-12.4,22.6-12.8,32l0,0c0.4,12.8,7.9,29.3-10.8,47.9c-20,20-58.8,17.9-84-7.3S226.6,130.4,246.6,110.5z"/>
</svg>

