<?xml version="1.0" encoding="utf-8"?>
<!-- Generator: Adobe Illustrator 27.9.0, SVG Export Plug-In . SVG Version: 6.00 Build 0)  -->
<svg version="1.1" id="Layer_1" focusable="false" xmlns="http://www.w3.org/2000/svg" xmlns:xlink="http://www.w3.org/1999/xlink"
	 x="0px" y="0px" viewBox="0 0 512 512" style="enable-background:new 0 0 512 512;" xml:space="preserve">
<title>Lock open</title>
<data-Icon_Keyword>Unlock</data-Icon_Keyword>
<data-Icon_Use_Case>REPRESENTS: Unlock. LIMITATIONS OF USE: This icon has no limitations of use, only that it must represent the action of "Unlocking".</data-Icon_Use_Case>
<path d="M456.4,286.8H153.1V164c0-46.2,37.6-83.7,83.7-83.7h38.4c46.2,0,83.7,37.6,83.7,83.7v67.5h72V164
	c0-86-69.7-155.7-155.7-155.7h-38.4C150.8,8.2,81.1,78,81.1,164v122.8H55.6c-8,0-14.5,6.5-14.5,14.5v188c0,8,6.5,14.5,14.5,14.5
	h400.7c8,0,14.5-6.5,14.5-14.5v-188C470.8,293.3,464.3,286.8,456.4,286.8z"/>
</svg>

