<?xml version="1.0" encoding="utf-8"?>
<!-- Generator: Adobe Illustrator 27.9.0, SVG Export Plug-In . SVG Version: 6.00 Build 0)  -->
<svg version="1.1" id="Layer_1" focusable="false" xmlns="http://www.w3.org/2000/svg" xmlns:xlink="http://www.w3.org/1999/xlink"
	 x="0px" y="0px" viewBox="0 0 512 512" style="enable-background:new 0 0 512 512;" xml:space="preserve">
<title>Social media linkedin</title>
<data-Icon_Keyword>Social, Social Media, Social Media Linked In, Linked In</data-Icon_Keyword>
<data-Icon_Use_Case>REPRESENTS: Social Media - Linkedin. LIMITATIONS OF USE: This icon has no limitations of use, only that it must represent a Social Media Intergration.</data-Icon_Use_Case>
<path d="M474.2,0H37.8C16.9,0,0,16.4,0,36.7v438.7C0,495.6,17,512,37.8,512h436.3c20.9,0,37.8-16.4,37.8-36.7V36.7
	C512,16.4,495.1,0,474.2,0z M79,428.5V198h76.6v230.5H79z M117.3,166.5L117.3,166.5h-0.5c-25.7,0-42.3-17.7-42.3-39.8
	c0-22.6,17.1-39.8,43.3-39.8s42.3,17.2,42.8,39.8C160.6,148.8,144,166.5,117.3,166.5z M431.9,428.5h-76.6V305.2
	c0-31-11.1-52.1-38.8-52.1c-21.2,0-33.8,14.3-39.3,28c-2,4.9-2.5,11.8-2.5,18.7v128.7H198l0,0c0,0,1-208.9,0-230.5h76.6v32.6
	c10.2-15.7,28.4-38,69-38c50.4,0,88.2,32.9,88.2,103.7v132.2H431.9z"/>
</svg>

