<?xml version="1.0" encoding="utf-8"?>
<!-- Generator: Adobe Illustrator 27.9.0, SVG Export Plug-In . SVG Version: 6.00 Build 0)  -->
<svg version="1.1" id="Layer_1" focusable="false" xmlns="http://www.w3.org/2000/svg" xmlns:xlink="http://www.w3.org/1999/xlink"
	 x="0px" y="0px" viewBox="0 0 512 512" style="enable-background:new 0 0 512 512;" xml:space="preserve">
<title>Custom packaging</title>
<data-Icon_Keyword>Custom, Packaging, boxing</data-Icon_Keyword>
<data-Icon_Use_Case>REPRESENTS: Custom Packaging LIMITATIONS OF USE: This icon has no limitations of use, only that it must represent the action of Custom Packaging.</data-Icon_Use_Case>
<path d="M47.2,340.9v83.3L247,504V326.7L220.2,410L47.2,340.9z M340.8,154.6c-5.5,19.5-6.2,40.9-27.5,65.5l128.2-50.2
	c0,0-58.8-20.9-92.5-33.2C345.7,141.5,342.8,147.3,340.8,154.6z M307.2,384.8L507,305l-40.2-125L267,259.8L307.2,384.8z M7,305
	l199.8,79.8l40.2-125L47.2,180L7,305z M267,326.7V504l199.8-79.8v-83.3l-173,69.1L267,326.7z M324.5,143.4c7.8-29,32.1-35.2,53.4-48
	c40-23.9,69.5-9.6,63.6-19.4s-21.2-35.4-21.2-35.4S405,15.2,399.1,5.3c-5.9-9.8-7.2,23-47.1,47c-21.3,12.8-38.2,31.3-67.5,24.6
	c-21.5-5-40.4-17.2-92.9,3.5c-37.8,14.9-64,34.3-84.8,58.8c-12.7,15-18.8,25.4-19.9,34.9L255,240.5l1.9-0.7
	c6.9-4.8,13.8-10.1,20.8-16C320.6,187.2,318.7,164.7,324.5,143.4z"/>
</svg>

