<?xml version="1.0" encoding="utf-8"?>
<!-- Generator: Adobe Illustrator 27.9.0, SVG Export Plug-In . SVG Version: 6.00 Build 0)  -->
<svg version="1.1" id="Layer_1" focusable="false" xmlns="http://www.w3.org/2000/svg" xmlns:xlink="http://www.w3.org/1999/xlink"
	 x="0px" y="0px" viewBox="0 0 512 512" style="enable-background:new 0 0 512 512;" xml:space="preserve">
<title>Ups store</title>
<data-Icon_Keyword>UPS Store, Store,</data-Icon_Keyword>
<data-Icon_Use_Case>REPRESENTS: UPS Store. LIMITATIONS OF USE: This icon has no limitations of use, only that it must represent a UPS Store.</data-Icon_Use_Case>
<path d="M153,476.3h92V275.2h-92V476.3z M169.2,291.4h59.6V460h-59.6L169.2,291.4L169.2,291.4z M259.9,476.3H359V275.2h-99.2v201.1
	H259.9z M276.1,291.4h66.7V460h-66.7L276.1,291.4L276.1,291.4z M373.9,383.3v20.5v72.5h109.4v-72.5h22.2v-41H373.9V383.3z M6.5,258
	h22.2v17.2v73.9v13.8H6.5v41h22.2v72.5h109.4v-72.5v-41v-13.8v-73.9V258h367.5V139H6.5V258z M409.1,166.2c9.3-4.9,20.5-7.4,33.4-7.4
	s24.1,2.5,33.4,7.4v39.3c0,8.3-3.1,15.2-9,20c-5.4,4.4-22.4,11.9-24.4,12.7c-2-0.9-19-8.3-24.4-12.7c-5.9-4.8-9-11.7-9-20V166.2z
	 M350.2,192.8c3.7-4,8.5-6,14.6-6c5.9,0,10.5,2.4,13.6,7.1c2.9,4.5,4.2,10.4,3.9,17.7l-0.1,0.2h-25.6c0,2.9,0.8,5.3,2.3,7.2
	c1.8,2.3,4.5,3.4,8.1,3.4c4.1,0,8.5-0.9,13.1-2.7v8.6c-4.5,1.7-9.2,2.5-14.2,2.5c-6.8,0-12-2-15.7-6s-5.5-9.4-5.5-16.3
	C344.7,202.1,346.5,196.8,350.2,192.8z M317.1,190.4c5.5-2.3,11.1-3.4,16.8-3.4c1.9,0,3.9,0.2,5.9,0.5l-2.1,7.9
	c-3.3-0.8-6.1-0.6-8.3,0.3v34.6h-12.3V190.4z M276.4,193.3c3.3-4.2,7.9-6.3,13.8-6.3s10.6,2.1,13.9,6.3c3.1,4,4.7,9.2,4.7,15.7
	s-1.6,11.7-4.7,15.7c-3.3,4.2-8,6.3-13.9,6.3s-10.5-2.1-13.8-6.3c-3.1-4-4.7-9.2-4.7-15.7C271.7,202.5,273.3,197.3,276.4,193.3z
	 M242.5,188h4.5v-9l12-3.2V188h6.5v8.1H259V218c0,3.2,1.3,4.8,3.9,4.8c0.7,0,1.6-0.1,2.6-0.2v-0.1h0.1v0.1l-0.1,0.1v7.1
	c-1.5,0.8-3.5,1.1-6,1.1c-4.2,0-7.3-1.2-9.5-3.6c-1.9-2.2-2.9-5-2.9-8.5V196h-4.5v-8H242.5z M204.6,175.7c3.6-3.7,8.4-5.5,14.4-5.5
	c4.4,0,8.7,0.9,13.1,2.8v9.7c-3.8-2.3-7.5-3.4-11.1-3.4c-5.7,0-8.5,2.3-8.5,7c0,2.2,0.9,4,2.7,5.5c1.2,1,3.4,2.1,6.6,3.4
	c5.5,2.3,9.3,5,11.5,8.1c1.7,2.5,2.6,5.6,2.6,9.2l0.1-0.2c0,5.5-1.8,10-5.3,13.4c-3.7,3.6-8.8,5.4-15.1,5.4c-5.9,0-11.1-1-15.5-3.1
	v-11c4.9,3,9.4,4.5,13.8,4.5c3,0,5.4-0.8,7-2.3c1.5-1.4,2.2-3.2,2.2-5.4c0-1.8-0.9-3.5-2.8-4.9c-1.6-1.3-4.2-2.6-7.8-4
	c-8.5-3.3-12.7-8.8-12.7-16.4C199.6,183.4,201.3,179.1,204.6,175.7z M138.4,175.7c3.6-3.7,8.4-5.5,14.4-5.5c4.4,0,8.7,0.9,13.1,2.8
	v9.7c-3.8-2.3-7.5-3.4-11.1-3.4c-5.7,0-8.5,2.3-8.5,7c0,2.2,0.9,4,2.7,5.5c1.2,1,3.4,2.1,6.6,3.4c5.5,2.3,9.3,5,11.5,8.1
	c1.7,2.5,2.6,5.6,2.6,9.2l0.1-0.2c0,5.5-1.8,10-5.3,13.4c-3.7,3.6-8.8,5.4-15.1,5.4c-5.9,0-11.1-1-15.5-3.1v-11
	c4.9,3,9.4,4.5,13.8,4.5c3,0,5.4-0.8,7-2.3c1.5-1.4,2.2-3.2,2.2-5.4c0-1.8-0.9-3.5-2.8-4.9c-1.6-1.3-4.2-2.6-7.8-4
	c-8.5-3.3-12.7-8.8-12.7-16.4C133.3,183.4,135,179.1,138.4,175.7z M85.8,170.5h19.1c6.8,0,12,1.6,15.7,4.9c3.6,3.1,5.3,7.5,5.3,13
	h-0.1c0,5.6-1.8,10-5.3,13.3c-3.7,3.3-9,5-15.7,5h-6.3v23.6H85.8V170.5z M34,170.5h12.6v42.4c0,2.7,0.8,4.8,2.3,6.3
	c1.6,1.5,3.6,2.2,6,2.2s4.4-0.7,5.9-2.2s2.3-3.7,2.3-6.5v-42.2h12v-0.1l0.2,0.1v42c0,5.6-1.9,10.1-5.7,13.4c-3.8,3.3-8.8,5-14.8,5
	s-11-1.7-14.9-5s-5.8-7.8-5.8-13.4v-42H34z M6.5,36.8v34.7h22.2v50.4h454.7V71.5h22.2V36.8H6.5z M113.3,188.9L113.3,188.9
	c-0.1-7.4-3.4-11-10-11h-4.9v21.4h4.9C109.9,199.3,113.3,195.8,113.3,188.9z M370.8,205.8c0-7.8-2.3-11.7-7-11.7
	c-2.4,0-4.2,0.8-5.3,2.5c-1.3,1.8-2.1,4.8-2.3,9l0.1,0.2H370.8z M373.9,275.2v73.9h109.4v-73.9H373.9z M467.1,332.8h-77v-41.4h77
	V332.8z M290.2,222.9c4.4,0,6.6-4.6,6.6-13.9c0-9.3-2.2-13.9-6.6-13.9s-6.6,4.6-6.6,13.9C283.6,218.3,285.8,222.9,290.2,222.9z"/>
</svg>

