<?xml version="1.0" encoding="utf-8"?>
<!-- Generator: Adobe Illustrator 27.9.0, SVG Export Plug-In . SVG Version: 6.00 Build 0)  -->
<svg version="1.1" id="Layer_1" focusable="false" xmlns="http://www.w3.org/2000/svg" xmlns:xlink="http://www.w3.org/1999/xlink"
	 x="0px" y="0px" viewBox="0 0 512 512" style="enable-background:new 0 0 512 512;" xml:space="preserve">
<title>Custom packaging polybag</title>
<data-Icon_Keyword>polybag, bag, packaging</data-Icon_Keyword>
<data-Icon_Use_Case>REPRESENTS: Polybag Packaging LIMITATIONS OF USE: This icon has no limitations of use, only that it must represent a polybag package.</data-Icon_Use_Case>
<path d="M260,92.1c-9.4,0.9-15.2,7.3-14.8,16.2c0.3,6.6,0.8,13.3,1.2,19.9h0.1c0.3,4.6,0.5,9.3,0.8,13.9c0.3,4.6,0.4,9.3,1,13.9
	c1.1,8.2,8.6,13.3,18.2,12.8c9.1-0.6,15.8-6.6,15.4-14.9c-0.7-16.2-1.6-32.3-2.9-48.4C278.2,96.6,269.9,91.1,260,92.1z M301.9,97.7
	c-8.8,1.1-14,7.1-13.6,15.7c0.2,5.3,0.5,10.7,0.8,16h0.1c0.2,2.9,0.4,5.8,0.6,8.6c0.2,2.9,0.3,5.8,0.4,8.7c0.5,8.6,5,12.9,13.9,13.5
	c8.5,0.6,17.3-4.7,17.6-12c0.6-12.8,0.7-25.8-0.3-38.6C320.7,101.5,311.5,96.5,301.9,97.7z M158.5,114.8c19.6,2.7,39.2,4.9,58.8,7.1
	c7.3,0.8,12.4-2.6,15.1-9.3c4.6-11.3-1.1-21.1-14.4-23.9c-11.9-2.5-24-4.4-35.9-7c-2.4-0.5-4.3-3.3-6.4-5.1c2.5-1.1,4.9-3,7.4-3
	c4.2,0,8.3,1.1,12.5,1.8c12,1.9,17.9-0.6,21.7-12.4c2.8-8.5,3.3-17.8,4.5-26.7c0.5-3.3-0.3-7.5,4.4-7.5c5.3,0,4.5,4.6,4.4,8
	c-0.5,15.2-2.2,30.1-12.4,41.3c8.1,4.9,15.5,9.3,23.2,14c15-14.7,34.2-10,43.4,3c6.3-2.1,12.2-5.3,18.3-5.7
	c6.1-0.4,12.3,2.1,18.9,3.4c0-8.9-0.1-18.5,0-28c0.3-15-4.1-28.2-13.7-40c-4.5-5.5-7.9-12.4-10-19.2C296.8,0.8,295,0,290.7,0
	c-36,0.1-71.9,0.1-107.9,0.1c-2,0-3.9,0.2-6.3,0.3c-1,11.7-7.6,20.3-14.6,28.8c-15.2,18.4-20.7,40.5-22,63.7
	C139.2,105.4,145.9,113.1,158.5,114.8z M418.8,351.3c-8.1-32.1-2.7-50.2-21.7-90.4s-30.6-59.5-36.1-93.7s-28.6-50.1-28.6-50.1
	s1,36.4-0.6,47c-1.8,12.2-27.8,51.3-41.4,61.3s-40.2,57.5-59.4,45.1c-14.2-9.1-34.3-21.1-66.5-53.9c-17-17.3-10.4-94.7-10.4-94.7
	s-25,0.3-33.8,61.9C114.1,227.6,78,296.5,59,336.6C40,376.8,34.6,413,59,429s47.9,52,69.6,60.1c21.7,8,57,22.1,114,12
	c57-10,88.4-17.5,121-11.5s40-39.1,55.2-62.1C431.9,407.8,427,383.4,418.8,351.3z M205.6,129.3c0,9.7-0.4,18.3,0.1,26.8
	c0.4,7.4,7.5,12.6,16.1,12.7c8.8,0.2,17-5,17.1-12.3c0.2-11.1-0.9-22.2-1.6-35.6C228.2,133.2,217.1,130.6,205.6,129.3z M173.9,159.9
	c7.1,3,14,2.2,19.9-3c1.5-1.3,2.7-3.7,2.8-5.6c0.3-7.5,0.1-15,0.1-23.1c-10.7-1.3-21-2.6-32.1-3.9c0,7.2,0.2,13.8-0.1,20.4
	C164.2,151.9,167.3,157.1,173.9,159.9z"/>
</svg>

