<?xml version="1.0" encoding="utf-8"?>
<!-- Generator: Adobe Illustrator 27.9.0, SVG Export Plug-In . SVG Version: 6.00 Build 0)  -->
<svg version="1.1" id="Layer_1" focusable="false" xmlns="http://www.w3.org/2000/svg" xmlns:xlink="http://www.w3.org/1999/xlink"
	 x="0px" y="0px" viewBox="0 0 512 512" style="enable-background:new 0 0 512 512;" xml:space="preserve">
<title>Digital returns no label</title>
<data-Icon_Keyword>label, no label</data-Icon_Keyword>
<data-Icon_Use_Case>REPRESENTS: No Label LIMITATIONS OF USE: This icon has no limitations of use, only that it must represent No Label</data-Icon_Use_Case>
<path d="M258.9,185.7l0.1,21h73.6l-0.1-21H258.9z M332.5,143.4h-73.6v21h73.6V143.4z M256,4C116.5,4,3.5,117,3.5,256.5
	S116.5,509,256,509s252.5-113,252.5-252.5S395.5,4,256,4z M256,460.5c-112.7,0-204-91.3-204-204c0-47,15.9-90.2,42.4-124.7
	l44.5,44.5l0.1,219.3c0,12.4,10,22.4,22.4,22.4l191.8-0.1c7.5,0,14.1-3.7,18.2-9.3l9.4,9.4C346.2,444.6,303,460.5,256,460.5z
	 M331.7,295.4l-15.2-15.2h15.9v-21h-36.9l-20.3-20.3h75.5v75.5l-18.3-18.3v-0.7L331.7,295.4L331.7,295.4z M350.6,222.4h-91.9
	L243,206.7h2.4l-0.1-63.2l-63.2-0.1v2.4l-16.9-16.9c1.8-3.6,5.5-6.1,9.8-6.1h164.7c6.2,0,11.1,5.2,11.1,11.6v88H350.6z M185,222.4
	h-21.2v-21.2L185,222.4z M201.6,238.9l20.3,20.3h-39.8v21h60.8l15.2,15.2h-76v21h97.1l19.1,19.1h-17v44.6h21v-40.5l9.2,9.2v31.3h21
	v-10.3l17.1,17.1c-1.8,4-5.6,6.7-10,6.8H174.8c-6.2,0-11.1-5.2-11.1-11.6V238.9H201.6z M417.4,381.1l-41.8-41.8V120.9
	c0-12.4-10-22.4-22.4-22.4H161.3c-7.2,0-13.7,3.4-17.7,8.7L131.3,95C165.8,68.4,209,52.5,256,52.5c112.7,0,204,91.3,204,204
	C460,303.5,444.1,346.7,417.4,381.1z M203.1,335.6h-21v44.6h21V335.6z M232.1,335.6h-20.9v44.6h21L232.1,335.6z M272.1,335.6h-21
	v44.6h21V335.6z"/>
</svg>

