<?xml version="1.0" encoding="utf-8"?>
<!-- Generator: Adobe Illustrator 27.9.0, SVG Export Plug-In . SVG Version: 6.00 Build 0)  -->
<svg version="1.1" id="Layer_1" focusable="false" xmlns="http://www.w3.org/2000/svg" xmlns:xlink="http://www.w3.org/1999/xlink"
	 x="0px" y="0px" viewBox="0 0 512 512" style="enable-background:new 0 0 512 512;" xml:space="preserve">
<title>Copy</title>
<data-Icon_Keyword>Copy, document, </data-Icon_Keyword>
<data-Icon_Use_Case>REPRESENTS: Copy LIMITATIONS OF USE: This icon has no limitations of use, only that it must represent the action of "copy".</data-Icon_Use_Case>
<path d="M389.8,99.5h-1.1v109.2H499L389.8,99.5z M351.5,265.4c-5.4,0-10.2-2.1-13.8-5.7l-0.1-0.1l-0.1-0.1
	c-3.5-3.5-5.7-8.3-5.7-13.7V99.5h-72.2c-14.5,0-26.3,11.8-26.3,26.4v347.9c0,14.5,11.8,26.4,26.3,26.4h212.9
	c14.5,0,26.4-11.8,26.4-26.4V265.4H351.5z M118.7,173.7L118.7,173.7l-0.2-0.2c-3.5-3.5-5.7-8.3-5.7-13.7V13.5H40.7
	c-14.5,0-26.3,11.8-26.3,26.4v347.9c0,14.5,11.8,26.4,26.3,26.4h157.7V179.4h-65.9C127.1,179.4,122.3,177.2,118.7,173.7z
	 M169.6,13.5v109.2h28.9c1.1-21.6,13.4-40.2,31.2-50.3l-58.9-58.9C170.8,13.5,169.6,13.5,169.6,13.5z"/>
</svg>

