<?xml version="1.0" encoding="utf-8"?>
<!-- Generator: Adobe Illustrator 27.9.0, SVG Export Plug-In . SVG Version: 6.00 Build 0)  -->
<svg version="1.1" id="Layer_1" focusable="false" xmlns="http://www.w3.org/2000/svg" xmlns:xlink="http://www.w3.org/1999/xlink"
	 x="0px" y="0px" viewBox="0 0 512 512" style="enable-background:new 0 0 512 512;" xml:space="preserve">
<title>Clock</title>
<data-Icon_Keyword>Clock, time, wait</data-Icon_Keyword>
<data-Icon_Use_Case>REPRESENTS: Clock  LIMITATIONS OF USE: This icon has no limitations of use.</data-Icon_Use_Case>
<path d="M275.9,214.4v-113H236v113c-15.5,7.4-26.1,23.3-26.1,41.6c0,25.5,20.6,46.1,46.1,46.1c15.3,0,28.9-7.5,37.3-19h76.4v-54.2
	h-76.4C288.8,222.8,282.9,217.8,275.9,214.4z M256,0C114.6,0,0,114.6,0,256s114.6,256,256,256s256-114.6,256-256S397.4,0,256,0z
	 M256,437c-99.9,0-181-81-181-181S156,75,256,75s181,81,181,181S355.9,437,256,437z"/>
</svg>

