<?xml version="1.0" encoding="utf-8"?>
<!-- Generator: Adobe Illustrator 27.9.0, SVG Export Plug-In . SVG Version: 6.00 Build 0)  -->
<svg version="1.1" id="Layer_1" focusable="false" xmlns="http://www.w3.org/2000/svg" xmlns:xlink="http://www.w3.org/1999/xlink"
	 x="0px" y="0px" viewBox="0 0 512 512" style="enable-background:new 0 0 512 512;" xml:space="preserve">
<title>Package items</title>
<data-Icon_Keyword>Package list.</data-Icon_Keyword>
<data-Icon_Use_Case>REPRESENTS: Package list. LIMITATIONS OF USE: This icon has no limitations of use, only that it must represent a package list.</data-Icon_Use_Case>
<path d="M502,162c-17.7-44.5-34.4-89.4-53.3-133.5c-4.4-9.1-13.6-16.7-23.9-17.4c-51.4,0-102.9,0-154.3,0
	c4.8,50.2,5.9,100.6,9.6,150.9C354.1,162,428,162,502,162z M6,200.5v285.2c0,9.2,7.5,16.7,16.7,16.7h462.6c9.2,0,16.7-7.5,16.7-16.7
	V200.5H6z M135.5,341.7h197.7V366H135.5V341.7z M82.7,459.5c-12.8,0-23.1-10.4-23.1-23.1s10.4-23.1,23.1-23.1s23.1,10.4,23.1,23.1
	S95.5,459.5,82.7,459.5z M82.7,376.9c-12.8,0-23.1-10.4-23.1-23.1s10.4-23.1,23.1-23.1s23.1,10.4,23.1,23.1S95.5,376.9,82.7,376.9z
	 M82.7,294.4c-12.8,0-23.1-10.4-23.1-23.1s10.4-23.1,23.1-23.1s23.1,10.4,23.1,23.1S95.5,294.4,82.7,294.4z M410.3,448.5H135.5
	v-24.3h274.8V448.5z M449.2,283.4H135.5v-24.3h313.7V283.4z M237.4,11.1c-51.4,0-102.9,0-154.3,0c-9.7,0.5-18.8,6.8-23,15.5
	C41.2,71.4,23.8,116.8,6,162c74,0,147.9,0,221.9,0C229.9,111.6,235.6,61.5,237.4,11.1z"/>
</svg>

