<?xml version="1.0" encoding="utf-8"?>
<!-- Generator: Adobe Illustrator 27.9.0, SVG Export Plug-In . SVG Version: 6.00 Build 0)  -->
<svg version="1.1" id="Layer_1" focusable="false" xmlns="http://www.w3.org/2000/svg" xmlns:xlink="http://www.w3.org/1999/xlink"
	 x="0px" y="0px" viewBox="0 0 512 512" style="enable-background:new 0 0 512 512;" xml:space="preserve">
<title>Customer Solutions</title>
<data-Icon_Keyword>Customer Solutions</data-Icon_Keyword>
<data-Icon_Use_Case>REPRESENTS: Customer Solutions LIMITATIONS OF USE: This icon is only to be used to represent the Customer Solutions Department.</data-Icon_Use_Case>
<path d="M307,435.4H205c-13.7,0-24.8,11.1-24.8,24.8l0,0c0,13.7,11.1,24.8,24.8,24.8h5.8c8.9,15.7,25.8,26.3,45.2,26.3
	s36.2-10.6,45.2-26.3h5.8c13.7,0,24.8-11.1,24.8-24.8l0,0C331.8,446.5,320.7,435.4,307,435.4z M256.3,122.7
	c-34-0.1-61.4,27.2-61.5,61.1c-0.1,33.8,27.3,61.3,61.2,61.3c33.8,0,61.2-27.3,61.3-61.1C317.3,150.3,290,122.8,256.3,122.7z
	 M256,2.8C152.9,2.8,69.3,86.4,69.3,189.5c0,99.5,83.5,133.5,94.9,162.9c7.5,19.2,8.4,23.6,8.4,23.6c5,14.5,10.4,29,26.4,29h57h57
	c16,0,21.4-14.5,26.4-29c0,0,0.9-4.4,8.4-23.6c11.4-29.4,94.9-63.3,94.9-162.9C442.7,86.4,359.1,2.8,256,2.8z M377.5,234.1
	c-5.8,10-11.5,19.9-17.3,30c-9.4-3.9-18.8-7.8-28.2-11.6c-6.4,7.1-13.6,13.2-21.7,18.2c2.2,10,4.4,19.8,6.6,29.8
	c-10.9,4-21.7,7.9-32.5,11.8c-4.7-9.1-9.4-18-14.1-27.1c-9.5,1.3-18.9,1.3-28.4,0c-4.7,9-9.4,18-14.1,27.1
	c-10.8-3.9-21.6-7.9-32.5-11.8c2.2-9.9,4.4-19.8,6.6-29.8c-8.1-5.1-15.3-11.1-21.7-18.2c-9.4,3.9-18.7,7.7-28.2,11.7
	c-5.8-10-11.5-20-17.3-30c8.1-6.2,16.1-12.4,24.2-18.6c-3-9.1-4.6-18.4-4.9-28c-9.7-3.1-19.4-6.1-29.1-9.2c2-11.4,4-22.7,6-34.1
	c10.2,0.4,20.3,0.9,30.5,1.3c3.6-8.8,8.3-17,14.2-24.6c-5.4-8.6-10.9-17.1-16.4-25.7c8.8-7.4,17.6-14.8,26.5-22.2
	c7.5,6.9,15,13.7,22.5,20.6c8.5-4.5,17.3-7.6,26.7-9.7c1.3-10,2.7-20.1,4-30.2c11.6,0,23,0,34.6,0c1.3,10.1,2.7,20.1,4,30.2
	c9.3,2,18.1,5.2,26.7,9.7c7.5-6.8,15-13.7,22.5-20.6c8.9,7.4,17.7,14.8,26.5,22.2c-5.5,8.6-10.9,17.1-16.4,25.8
	c5.9,7.5,10.6,15.7,14.2,24.6c10.1-0.4,20.2-0.9,30.5-1.3c2,11.3,4,22.6,6,34.1c-9.7,3.1-19.4,6.1-29.1,9.2
	c-0.3,9.5-1.9,18.8-4.9,28C361.3,221.7,369.4,227.8,377.5,234.1z"/>
</svg>

