<?xml version="1.0" encoding="utf-8"?>
<!-- Generator: Adobe Illustrator 27.9.0, SVG Export Plug-In . SVG Version: 6.00 Build 0)  -->
<svg version="1.1" id="Layer_1" focusable="false" xmlns="http://www.w3.org/2000/svg" xmlns:xlink="http://www.w3.org/1999/xlink"
	 x="0px" y="0px" viewBox="0 0 512 512" style="enable-background:new 0 0 512 512;" xml:space="preserve">
<title>Digital returns routing</title>
<data-Icon_Keyword>Rounting</data-Icon_Keyword>
<data-Icon_Use_Case>REPRESENTS: Rounting LIMITATIONS OF USE: This icon has no limitations of use, only that it must represent Rounting or Recycle.</data-Icon_Use_Case>
<path d="M501.6,256.1c-1.3-37.1-8.7-69.5-22-96.6c-13.8-28.1-33.9-50.6-59.7-66.8c-42.9-27-91.2-30.1-123.7-30.1l-62-0.2
	c0-12.8,0-22.3,0-25c0-11.2-7.2-20.1-7.2-20.1c-9.6-9.6-25.2-9.6-34.8,0l-78.1,78c-9.6,9.6-9.6,25.2,0,34.8l78,78
	c9.6,9.6,25.2,9.6,34.8,0c0,0,7.2-6,7.2-21.6c0-3.4,0-12,0-23.4l62-0.2c62.4,0,102,16.2,105.2,94.9v43.1c0,13.9,11.3,25.3,25.3,25.3
	h50.1c13.9,0,25.3-11.3,25.3-25.3v-44.6h-0.4V256.1z M319.8,304c-9.6-9.6-25.2-9.6-34.8,0c0,0-7.2,6-7.2,21.6c0,3.4,0,12,0,23.4
	l-62,0.2c-62.4,0-102-16.2-105.2-94.9v-43.1c0-13.9-11.3-25.3-25.3-25.3h-50c-13.9,0-25.3,11.3-25.3,25.3v44.6h0.4
	c1.3,37.1,8.7,69.5,22,96.6c13.8,28.1,33.9,50.6,59.7,66.8c42.9,27,91.2,30.1,123.7,30.1l62,0.2c0,12.8,0,22.3,0,25
	c0,11.2,7.2,20.1,7.2,20.1c9.6,9.6,25.2,9.6,34.8,0l78.1-78c9.6-9.6,9.6-25.2,0-34.8L319.8,304z"/>
</svg>

