<?xml version="1.0" encoding="utf-8"?>
<!-- Generator: Adobe Illustrator 27.9.0, SVG Export Plug-In . SVG Version: 6.00 Build 0)  -->
<svg version="1.1" id="Layer_1" focusable="false" xmlns="http://www.w3.org/2000/svg" xmlns:xlink="http://www.w3.org/1999/xlink"
	 x="0px" y="0px" viewBox="0 0 512 512" style="enable-background:new 0 0 512 512;" xml:space="preserve">
<title>Man smile</title>
<data-Icon_Keyword>User, happy, satisfied</data-Icon_Keyword>
<data-Icon_Use_Case>REPRESENTS: Package, Package box. LIMITATIONS OF USE: This icon has no limitations of use, only that it must represent a happy satisfied user/customer.</data-Icon_Use_Case>
<path d="M385,251.6v-0.9h-11.9h-6.3H145.2h-6.3H128v0.7c-39.6,5.3-70.2,39.2-70.2,80.4v182.8h396.3V331.7
	C454.2,291,424.2,257.3,385,251.6z M256,236.4c63.3,0,114.7-51.3,114.7-114.7S319.3,7,256,7S141.3,58.3,141.3,121.7
	S192.7,236.4,256,236.4z M211.6,137c6.3,18.4,23.8,31.7,44.4,31.7s38.1-13.3,44.4-31.7h28.7c-7.1,33.9-37.1,59.4-73.1,59.4
	s-66-25.5-73.1-59.4H211.6z"/>
</svg>

