<?xml version="1.0" encoding="utf-8"?>
<!-- Generator: Adobe Illustrator 27.9.0, SVG Export Plug-In . SVG Version: 6.00 Build 0)  -->
<svg version="1.1" id="Layer_1" focusable="false" xmlns="http://www.w3.org/2000/svg" xmlns:xlink="http://www.w3.org/1999/xlink"
	 x="0px" y="0px" viewBox="0 0 512 512" style="enable-background:new 0 0 512 512;" xml:space="preserve">
<title>Learning center book</title>
<data-Icon_Keyword>Learning, Center, Book</data-Icon_Keyword>
<data-Icon_Use_Case>REPRESENTS: Learning Center. LIMITATIONS OF USE: This icon can only be used to represent the Learning Center.</data-Icon_Use_Case>
<path d="M331.8,460.1c8-0.6,16.8-0.9,26.5-0.9c96.3,0,102-31,102-31v-385c0,0-5.4,6.7-35.5,11.1v346.9c0.4,6.7-1.6,13.8-5.7,20.1
	c-10.7,16.4-35.2,28-77.2,36.3C338.3,458.3,334.9,459.2,331.8,460.1z M154.2,459.2c9.7,0,18.5,0.3,26.5,0.9c-3.2-0.9-6.5-1.8-10-2.5
	c-42-8.4-66.5-19.9-77.2-36.3c-4.1-6.3-6.1-13.4-5.7-20.1V54.3c-30.2-4.4-35.5-11.1-35.5-11.1v385
	C52.2,428.2,57.8,459.2,154.2,459.2z M154.3,484.4c-44.4,0-77.9-6.3-99.6-18.8c-21.2-12.2-25.9-26.9-27-32.7l-0.4-2.2V109.4
	c-14.9,0-27,12.1-27,27v349c0,14.9,12.1,27,27,27h205.6c0.3-6.1,0.6-12.5,0.6-12.4C233.4,499.8,220.9,484.4,154.3,484.4z
	 M485.4,109.4v321.3l-0.4,2.2c-1,5.8-5.8,20.5-27,32.7c-21.7,12.5-55.2,18.8-99.6,18.8c-66.6,0-79.1,15.4-79.2,15.6
	c0,0,0.3,6.3,0.6,12.4h205.6c14.9,0,27-12.1,27-27v-349C512.4,121.5,500.3,109.4,485.4,109.4z M181.6,43.4
	c-51.1-20.8-60.5-25.9-60.5-25.9v385c0,0-3.4,17.5,52.9,30.8c53,12.5,68.1,57.1,68.1,57.1V112C242.1,112,230.4,63.2,181.6,43.4z
	 M338.3,433.3c57.1-13.3,53.7-30.8,53.7-30.8v-385c0,0-9.5,5.1-61.4,25.9c-49.5,19.9-61.4,68.6-61.4,68.6v378.4
	C269.2,490.4,284.5,445.8,338.3,433.3z"/>
</svg>

