<?xml version="1.0" encoding="utf-8"?>
<!-- Generator: Adobe Illustrator 27.9.0, SVG Export Plug-In . SVG Version: 6.00 Build 0)  -->
<svg version="1.1" id="Layer_1" focusable="false" xmlns="http://www.w3.org/2000/svg" xmlns:xlink="http://www.w3.org/1999/xlink"
	 x="0px" y="0px" viewBox="0 0 512 512" style="enable-background:new 0 0 512 512;" xml:space="preserve">
<title>Checkmark</title>
<data-Icon_Keyword>Checkmark, mark</data-Icon_Keyword>
<data-Icon_Use_Case>REPRESENTS: Checkmark LIMITATIONS OF USE: This icon has no limitations of use.</data-Icon_Use_Case>
<path d="M490.1,96.2c-28.1,42.1-56.3,84.1-84.8,125.9c-55.7,81.8-111.6,163.8-167.5,245.6c-16.1,23.3-41,26.5-61.2,6.8
	c-50.9-50-101.3-100.7-151.5-151.3c-10.6-10.6-10.9-23.2-0.6-34.2c12.4-13.2,25.3-26.4,38.6-38.6c10.5-9.7,23.3-9.2,33.4,0.7
	c30.1,29.5,60.2,58.9,90.3,88.7c2.6,2.4,5.1,4.7,8.5,8.2c10-14.6,19.6-28.8,29.1-43C284.2,217.6,343.7,130,403.3,42.7
	c13.9-20.2,25.3-22.2,45.4-8.5c11.9,7.9,23.5,16.2,34.8,24.6C497.4,69.3,499.8,81.8,490.1,96.2z"/>
</svg>

