<?xml version="1.0" encoding="utf-8"?>
<!-- Generator: Adobe Illustrator 27.9.0, SVG Export Plug-In . SVG Version: 6.00 Build 0)  -->
<svg version="1.1" id="Layer_1" focusable="false" xmlns="http://www.w3.org/2000/svg" xmlns:xlink="http://www.w3.org/1999/xlink"
	 x="0px" y="0px" viewBox="0 0 512 512" style="enable-background:new 0 0 512 512;" xml:space="preserve">
<title>Money</title>
<data-Icon_Keyword>money, dollars, currency</data-Icon_Keyword>
<data-Icon_Use_Case>REPRESENTS: Money. LIMITATIONS OF USE: This icon has no limitations of use, only that it must represent money, currency and/or dollars</data-Icon_Use_Case>
<path d="M411.2,271.7c-13.1-18.8-34.9-38.2-53.9-46.6c-19-8.4-57.2-16.8-98.3-25.1c-24.5-4.9-52.8-10.7-59.7-17.4
	c-7-6.7-10.5-14.8-10.5-24.5c0-24.2,31.1-36.3,68.4-36.3c34.9,0,57.7,15.9,68.5,47.8l91.1,0.3c-11.9-66-57.5-103.7-115-116.6v-42
	h-91.7v40.4C177.5,57,145.8,68.1,127.9,85c-26,24.6-39,54.7-39,90.5c0,35.4,10.9,62.2,32.7,80.6s78.2,32.9,129.5,43.5
	c27.5,5.7,54.2,11.8,63.8,18.3s14.4,15.6,14.4,27.4c0,11.6-5.3,21.6-15.9,29.9c-10.6,8.4-34.8,12.5-56.4,12.5
	c-44.7,0-72-18.8-81.8-56.3l-94,0.4c13.2,57.2,35.1,84.2,64,102.9c19,12.3,40.7,20.6,65,24.8v40.2h91.7v-39.5
	c35.9-4,67.9-13.3,87-31.4c28-26.5,42-58,42-94.3C430.8,311.5,424.3,290.5,411.2,271.7z"/>
</svg>

