<?xml version="1.0" encoding="utf-8"?>
<!-- Generator: Adobe Illustrator 27.9.0, SVG Export Plug-In . SVG Version: 6.00 Build 0)  -->
<svg version="1.1" id="Layer_1" focusable="false" xmlns="http://www.w3.org/2000/svg" xmlns:xlink="http://www.w3.org/1999/xlink"
	 x="0px" y="0px" viewBox="0 0 512 512" style="enable-background:new 0 0 512 512;" xml:space="preserve">
<title>Digital returns qrcode</title>
<data-Icon_Keyword>QR, code, quick response</data-Icon_Keyword>
<data-Icon_Use_Case>REPRESENTS: QR Code LIMITATIONS OF USE: This icon has no limitations of use, only that it must represent QR Code.</data-Icon_Use_Case>
<path d="M23.7,256v51.2h51.2v51.2h51.2v-51.2V256H74.9H23.7z M0,511.8h129.9V381.9H0V511.8z M29,410.9h71.9v71.9H29V410.9z
	 M432.3,256h-51.2v-51.2v-51.2h-50.4v-51.2h-51.2v-51h51.2V0h-51.2v51h-51V0h-51.2v51.2h51v51h-51v51.2v51.2h51V256h-51v51.2v51.2
	h51v51.2h-51v51.2V512h51h0.2h51v-51.2h51.2v-51.2h-51.2v51.2h-51v-51.2h51v-51.2h50.4h0.8h50.4v-51.2h51.2L432.3,256L432.3,256z
	 M279.5,358.4h-51v-51.2h51V358.4z M279.5,153.6v51.2h-51v-51.2v-51.2h51V153.6z M329.9,256v51.2h-50.4V256v-51.2h50.4V256z
	 M382.1,0v129.9H512V0H382.1z M483,100.9h-71.9V29H483V100.9z M129.9,0H0v129.9h129.9V0z M100.9,100.9H29V29h71.9V100.9z
	 M432.3,358.4h51.2v-51.2h-51.2V358.4z M74.9,153.6H23.7v51.2h51.2h51.2v-51.2H74.9z M382.1,512H512V382.1H382.1V512z M411.1,411.1
	H483V483h-71.9V411.1z M483.5,204.8v-51.2h-51.2v51.2V256h51.2V204.8z M126.1,204.8V256h51.2v-51.2H126.1z"/>
</svg>

