<?xml version="1.0" encoding="utf-8"?>
<!-- Generator: Adobe Illustrator 27.9.0, SVG Export Plug-In . SVG Version: 6.00 Build 0)  -->
<svg version="1.1" id="Layer_1" focusable="false" xmlns="http://www.w3.org/2000/svg" xmlns:xlink="http://www.w3.org/1999/xlink"
	 x="0px" y="0px" viewBox="0 0 512 512" style="enable-background:new 0 0 512 512;" xml:space="preserve">
<title>Copy link</title>
<data-Icon_Keyword>Copy, link</data-Icon_Keyword>
<data-Icon_Use_Case>REPRESENTS: Copy Link LIMITATIONS OF USE: This icon has no limitations of use, only that it must represent a copy link url function.</data-Icon_Use_Case>
<path d="M389.8,99.5h-1.1v109.2H499L389.8,99.5z M337.7,259.7L337.7,259.7l-0.2-0.2c-3.5-3.5-5.7-8.3-5.7-13.7V99.5h-72.2
	c-14.5,0-26.3,11.8-26.3,26.4v347.9c0,14.5,11.8,26.4,26.3,26.4h212.9c14.5,0,26.4-11.8,26.4-26.4V265.4H351.5
	C346.1,265.4,341.3,263.3,337.7,259.7z M355.6,474.6c-21.9,21.9-57.3,21.9-79.2,0s-21.9-57.3,0-79.2l39.6-39.6
	c21.9-21.9,57.3-21.9,79.2,0c3.4,3.4,6.2,7.3,8.5,11.3l-18.4,18.4c-0.9,0.9-1.9,1.4-3,2c-1.3-4.3-3.5-8.5-6.9-11.9
	c-10.9-10.9-28.7-10.9-39.6,0l-39.6,39.6c-10.9,10.9-10.9,28.7,0,39.6s28.7,10.9,39.6,0l14.1-14.1c11.4,4.4,23.7,5.6,35.7,3.9
	L355.6,474.6z M454.6,296.4c21.9,21.9,21.9,57.3,0,79.2L415,415.2c-21.9,21.9-57.3,21.9-79.2,0c-3.4-3.4-6.1-7.3-8.5-11.3l18.4-18.4
	c0.9-0.9,2-1.4,3-2c1.3,4.3,3.5,8.5,6.9,11.9c10.9,10.9,28.7,10.9,39.6,0l39.6-39.6c10.9-10.9,10.9-28.7,0-39.6s-28.7-10.9-39.6,0
	l-14.1,14.1c-11.4-4.5-23.7-5.6-35.7-3.9l30-30C397.3,274.5,432.7,274.5,454.6,296.4z M118.7,173.7l-0.2-0.2
	c-3.5-3.5-5.7-8.3-5.7-13.7V13.5H40.7c-14.5,0-26.3,11.8-26.3,26.4v347.9c0,14.5,11.8,26.4,26.3,26.4h157.7V179.4h-65.9
	C127.1,179.4,122.3,177.2,118.7,173.7z M169.6,13.5v109.2h28.9c1.1-21.6,13.4-40.2,31.2-50.3l-58.9-58.9
	C170.8,13.5,169.6,13.5,169.6,13.5z"/>
</svg>

