<?xml version="1.0" encoding="utf-8"?>
<!-- Generator: Adobe Illustrator 27.9.0, SVG Export Plug-In . SVG Version: 6.00 Build 0)  -->
<svg version="1.1" id="Layer_1" focusable="false" xmlns="http://www.w3.org/2000/svg" xmlns:xlink="http://www.w3.org/1999/xlink"
	 x="0px" y="0px" viewBox="0 0 512 512" style="enable-background:new 0 0 512 512;" xml:space="preserve">
<title>Arrow circle down</title>
<data-Icon_Keyword>Direction, Navigation, Expand, Open, Down, arrow</data-Icon_Keyword>
<data-Icon_Use_Case>REPRESENTS: Opening/Expanding content. LIMITATIONS OF USE: This icon is to be used either on an Accordion or on a Mobile Menu. Any other use must be consulted with the User Experience or Marketing Team in that order.</data-Icon_Use_Case>
<path d="M256,8C119,8,8,119,8,256s111,248,248,248s248-111,248-248S393,8,256,8z M412.7,290L284.6,418.1
	c-15.7,15.8-41.3,15.8-57.1,0L99.3,289.9c-15.8-15.7-15.8-41.3,0-57.1c0,0,14.6-11.8,33-11.8c4.5,0,20,0,41.1,0v-89.5
	c0-22.9,18.6-41.5,41.5-41.5h82.3c22.9,0,41.5,18.6,41.5,41.5V221c18.8,0,32.9,0,38.5,0c25.7,0,35.5,11.9,35.5,11.9
	C428.5,248.6,428.5,274.2,412.7,290z"/>
</svg>

