<?xml version="1.0" encoding="utf-8"?>
<!-- Generator: Adobe Illustrator 27.9.0, SVG Export Plug-In . SVG Version: 6.00 Build 0)  -->
<svg version="1.1" id="Layer_1" focusable="false" xmlns="http://www.w3.org/2000/svg" xmlns:xlink="http://www.w3.org/1999/xlink"
	 x="0px" y="0px" viewBox="0 0 512 512" style="enable-background:new 0 0 512 512;" xml:space="preserve">
<title>Digital returns</title>
<data-Icon_Keyword>Digital Returns, Solutions, Application</data-Icon_Keyword>
<data-Icon_Use_Case>REPRESENTS: Service: Digital Returns LIMITATIONS OF USE: This icon can only be used to represent the Customer Solutions Application: Digital Returns.</data-Icon_Use_Case>
<path d="M375.1,285.9v-26.8h-26.8v26.8H375.1z M188,232.3h26.8v-26.8H188V232.3z M322,366.3h68v-68h-68V366.3z M390,98.3h-68v68h68
	V98.3z M375.1,205.5v-26.8h-26.8v26.8v26.8h26.8V205.5z M295.1,339.5v-26.8h-26.8v26.8H295.1z M161.2,178.7h-26.8v26.8h26.8H188
	v-26.8H161.2z M190,98.3h-68v68h68V98.3z M134.4,232.3v26.8h26.8v26.8H188v-26.8v-26.8h-26.8H134.4z M241.5,232.3h-26.7v26.8v26.8
	h26.7v26.8h-26.7v26.8v26.8h26.7h0.1h26.7v-26.8h-26.7v-26.8h26.7v-26.8h-26.7v-26.8h26.7v-26.8v-26.8h-26.7v-26.8v-26.8h26.7v-26.7
	h26.8V98.3h-26.8V125h-26.7V98.3h-26.8v26.8h26.7v26.7h-26.7v26.8v26.8h26.7L241.5,232.3L241.5,232.3z M268.3,205.5h26.4v26.8v26.8
	h-26.4v26.8h26.4h0.4h26.4v-26.8h26.8v-26.8h-26.8v-26.8v-26.8h-26.4v-26.8h-26.8v26.8V205.5z M190,298.2h-68v68h68V298.2z M389.3,8
	H122.7c-19.6,0-35.5,15.9-35.5,35.5v424.2c0,19.6,15.9,35.5,35.5,35.5h266.5c19.6,0,35.5-15.9,35.5-35.5V43.5
	C424.8,23.9,408.9,8,389.3,8z M256,482.1c-12.8,0-23.2-10.4-23.2-23.2s10.4-23.2,23.2-23.2c12.8,0,23.2,10.4,23.2,23.2
	S268.8,482.1,256,482.1z M406,419.5H106V45h300V419.5z"/>
</svg>

