<?xml version="1.0" encoding="utf-8"?>
<!-- Generator: Adobe Illustrator 27.9.0, SVG Export Plug-In . SVG Version: 6.00 Build 0)  -->
<svg version="1.1" id="Layer_1" focusable="false" xmlns="http://www.w3.org/2000/svg" xmlns:xlink="http://www.w3.org/1999/xlink"
	 x="0px" y="0px" viewBox="0 0 512 512" style="enable-background:new 0 0 512 512;" xml:space="preserve">
<title>Arrow long up</title>
<data-Icon_Keyword>Direction, Navigation, arrow, up, long</data-Icon_Keyword>
<data-Icon_Use_Case>REPRESENTS: Long Arrow Up LIMITATIONS OF USE: This icon has no limitations of use.</data-Icon_Use_Case>
<path d="M137,149.7c0,0,7.4,9,27,9c4.3,0,15,0,29.2,0v321.7c0,17.4,14.1,31.5,31.5,31.5h62.5c17.4,0,31.5-14.1,31.5-31.5V158.8
	c16,0,27.8,0,31.2,0c14,0,25.1-9,25.1-9c12-12,12-31.4,0-43.4L277.7,9c-12-12-31.4-12-43.4,0L137,106.4
	C125,118.4,125,137.8,137,149.7z"/>
</svg>

