<?xml version="1.0" encoding="utf-8"?>
<!-- Generator: Adobe Illustrator 27.9.0, SVG Export Plug-In . SVG Version: 6.00 Build 0)  -->
<svg version="1.1" id="Layer_1" focusable="false" xmlns="http://www.w3.org/2000/svg" xmlns:xlink="http://www.w3.org/1999/xlink"
	 x="0px" y="0px" viewBox="0 0 512 512" style="enable-background:new 0 0 512 512;" xml:space="preserve">
<title>Digital returns visibility</title>
<data-Icon_Keyword>visibility, location, map</data-Icon_Keyword>
<data-Icon_Use_Case>REPRESENTS: Visibility LIMITATIONS OF USE: This icon has no limitations of use.</data-Icon_Use_Case>
<path d="M421.2,370.9c0,0,87.1-67.6,87.1-137.8c0-48.1-39-87.1-87.1-87.1s-87.1,39-87.1,87.1C334.1,303.3,421.2,370.9,421.2,370.9z
	 M360.2,233.5c0-33.7,27.3-61,61-61s61,27.3,61,61s-27.3,61-61,61S360.2,267.2,360.2,233.5z M421.2,384c-27.2,0-50.4,17.6-58.7,42
	h-70.7l-37.7-135.7c-2.4-8.7-10.3-14.7-19.3-14.7h-89.5c-8.3-24.4-31.5-42-58.7-42c-34.2,0-62,27.8-62,62s27.8,62,62,62
	c27.2,0,50.4-17.6,58.7-42h74.3l37.7,135.7c2.4,8.7,10.3,14.7,19.3,14.7h86c8.3,24.4,31.5,42,58.7,42c34.2,0,62-27.8,62-62
	S455.4,384,421.2,384z M86.6,317.7c-12.1,0-22-9.9-22-22c0-12.2,9.9-22,22-22s22,9.9,22,22C108.6,307.8,98.7,317.7,86.6,317.7z
	 M421.2,468.1c-12.1,0-22-9.9-22-22s9.9-22,22-22c12.2,0,22,9.9,22,22C443.3,458.2,433.4,468.1,421.2,468.1z M86.6,218.7
	c0,0,82.4-63.9,82.4-130.4c0-45.5-36.9-82.4-82.4-82.4S4.2,42.8,4.2,88.3C4.2,154.8,86.6,218.7,86.6,218.7z M28.9,88.7
	C28.9,56.9,54.7,31,86.6,31s57.7,25.8,57.7,57.7s-25.8,57.7-57.7,57.7S28.9,120.6,28.9,88.7z"/>
</svg>

