<?xml version="1.0" encoding="utf-8"?>
<!-- Generator: Adobe Illustrator 27.9.0, SVG Export Plug-In . SVG Version: 6.00 Build 0)  -->
<svg version="1.1" id="Layer_1" focusable="false" xmlns="http://www.w3.org/2000/svg" xmlns:xlink="http://www.w3.org/1999/xlink"
	 x="0px" y="0px" viewBox="0 0 512 512" style="enable-background:new 0 0 512 512;" xml:space="preserve">
<title>View</title>
<data-Icon_Keyword>View, Display, Details, Look, Look Up</data-Icon_Keyword>
<data-Icon_Use_Case>REPRESENTS: View. LIMITATIONS OF USE: This icon has no limitations of use, only that it must represent a View action.</data-Icon_Use_Case>
<path d="M498.3,227.4c0,0-60.8-77.1-71.2-90.3c-10.4-13.2-24.3-12.7-24.3-12.7l-106.9,0.5c0,0-12.8,2.1-9.4,19.4
	c0.5,2.6,1.7,8.6,3.3,16.8H222c1.6-8.2,2.8-14.2,3.3-16.8c3.4-17.3-9.4-19.4-9.4-19.4L109,124.4c0,0-13.9-0.5-24.3,12.7
	s-71.2,90.3-71.2,90.3C5.2,235,0,245.6,0,257.2v212.4C0,493,21,512,47,512h95.8c26,0,47-19,47-42.3V324.2c0,0,0.1-0.8,0.4-2.2h131.4
	c0.3,1.4,0.4,2.2,0.4,2.2v145.5c0,23.4,21,42.3,47,42.3h96c26,0,47-19,47-42.3V257.2C512,245.6,506.8,235,498.3,227.4z M282.3,265.2
	c0,9.6-7.8,17.4-17.4,17.4h-17.8c-9.6,0-17.4-7.8-17.4-17.4v-47.3c0-9.6,7.8-17.4,17.4-17.4h17.8c9.6,0,17.4,7.8,17.4,17.4V265.2z
	 M303.4,86h96.2c9.6,0,17.4-7.8,17.4-17.4V17.4C417,7.8,409.2,0,399.6,0h-96.2C293.8,0,286,7.8,286,17.4v51.2
	C286,78.2,293.8,86,303.4,86z M112.4,86h96.2c9.6,0,17.4-7.8,17.4-17.4V17.4C226,7.8,218.2,0,208.6,0h-96.2C102.8,0,95,7.8,95,17.4
	v51.2C95,78.2,102.8,86,112.4,86z"/>
</svg>

