<?xml version="1.0" encoding="utf-8"?>
<!-- Generator: Adobe Illustrator 27.9.0, SVG Export Plug-In . SVG Version: 6.00 Build 0)  -->
<svg version="1.1" id="Layer_1" focusable="false" xmlns="http://www.w3.org/2000/svg" xmlns:xlink="http://www.w3.org/1999/xlink"
	 x="0px" y="0px" viewBox="0 0 512 512" style="enable-background:new 0 0 512 512;" xml:space="preserve">
<title>Upload</title>
<data-Icon_Keyword>Upload, Upload File, UPload Data, Post, Post File, transfer</data-Icon_Keyword>
<data-Icon_Use_Case>REPRESENTS: Upload. LIMITATIONS OF USE: This icon has no limitations of use, only that it must represent an Upload action.</data-Icon_Use_Case>
<path d="M355.4,177.8c-10.3,0-20.3,1-30,2.9c-11.3-40.8-48.7-70.7-93.1-70.7c-53.4,0-96.6,43.3-96.6,96.6c0,16,3.9,31.2,10.8,44.5
	c-7.3-1.4-14.9-2.2-22.7-2.2C57.9,249,4.5,302.4,4.5,368.3s53.4,119.4,119.4,119.4h78.5c-0.1-0.9-0.1-1.9-0.1-2.9V425
	c-12.5,0-21.9,0-25.7,0c-17.2,0-23.7-7.9-23.7-7.9c-10.6-10.5-10.6-27.6,0-38.1l85.6-85.6c10.5-10.6,27.6-10.6,38.1,0l85.5,85.7
	c10.6,10.5,10.6,27.6,0,38.1c0,0-9.8,7.9-22,7.9c-3,0-13.3,0-27.4,0v59.8c0,1-0.1,1.9-0.1,2.9h48.7v-0.1
	c82.9-3,149.2-71.2,149.2-154.8C510.4,247.2,441,177.8,355.4,177.8z"/>
</svg>

