<?xml version="1.0" encoding="utf-8"?>
<!-- Generator: Adobe Illustrator 27.9.0, SVG Export Plug-In . SVG Version: 6.00 Build 0)  -->
<svg version="1.1" id="Layer_1" focusable="false" xmlns="http://www.w3.org/2000/svg" xmlns:xlink="http://www.w3.org/1999/xlink"
	 x="0px" y="0px" viewBox="0 0 512 512" style="enable-background:new 0 0 512 512;" xml:space="preserve">
<title>Printing label</title>
<data-Icon_Keyword>Print, Print Label, Printing,</data-Icon_Keyword>
<data-Icon_Use_Case>REPRESENTS: Printing Lable LIMITATIONS OF USE: This icon has no limitations of use, only that it must represent printing a UPS Label</data-Icon_Use_Case>
<path d="M148.6,453.6h30.1V390h-30.1V453.6z M190.3,390v63.7h30.1l-0.3-63.7H190.3z M363.4,332.6H148.6v30.1h214.7v-30.1H363.4z
	 M122.6,133.1V72.5c0-9.1,6.9-16.5,15.8-16.5h235.2c8.8,0,15.8,7.5,15.8,16.5v60.6H425V53.3c0-17.7-14.3-32-32-32H119
	c-17.7,0-32,14.3-32,32v79.8H122.6z M290.4,453.6h30.1V390h-30.1V453.6z M333.6,453.6h30.1V390h-30.1V453.6z M247.2,453.6h30.1V390
	h-30.1L247.2,453.6z M487,162.5H24.4c-9.2,0-16.7,7.5-16.7,16.7v223.5c0,6.8,4.1,12.7,10,15.3h69.4v57.7c0,17.7,14.3,32,32,32
	l274-0.1c17.7,0,32-14.3,32-32V418h68.7c5.9-2.6,10-8.5,10-15.3V179.2C503.7,170,496.2,162.5,487,162.5z M373.7,473.1H138.3
	c-8.8,0-15.8-7.5-15.8-16.5V281h26.1v29.9h214.7V281h26.1v175.5C389.5,465.6,382.4,472.9,373.7,473.1z"/>
</svg>

