<?xml version="1.0" encoding="utf-8"?>
<!-- Generator: Adobe Illustrator 27.9.0, SVG Export Plug-In . SVG Version: 6.00 Build 0)  -->
<svg version="1.1" id="Layer_1" focusable="false" xmlns="http://www.w3.org/2000/svg" xmlns:xlink="http://www.w3.org/1999/xlink"
	 x="0px" y="0px" viewBox="0 0 512 512" style="enable-background:new 0 0 512 512;" xml:space="preserve">
<title>Detailed view no box</title>
<data-Icon_Keyword>deailed, view, no box, boxless</data-Icon_Keyword>
<data-Icon_Use_Case>REPRESENTS: No Box LIMITATIONS OF USE: This icon has no limitations of use, only that it must represent no box present.</data-Icon_Use_Case>
<path d="M347.6,124.9h-83.4c2.6,27.1,3.2,54.4,5.2,81.6h120c-9.6-24.1-18.6-48.3-28.8-72.2C358.1,129.4,353.1,125.3,347.6,124.9z
	 M256,4C116.5,4,3.5,117,3.5,256.5S116.5,509,256,509s252.5-113,252.5-252.5S395.5,4,256,4z M256,460.5c-112.7,0-204-91.3-204-204
	c0-47,15.9-90.2,42.4-124.7l40.2,40.2c-4.5,11.5-9,23-13.5,34.5h48l20.8,20.8H121v154.2c0,5,4.1,9,9,9h223.1l27.5,27.5
	C346.2,444.6,303,460.5,256,460.5z M417.4,381.1l-28.2-28.2V227.3H263.6l-22.5-22.5c1.2-26.7,4.1-53.2,5.1-79.9h-83.4
	c-0.5,0-1,0.1-1.4,0.2L131.3,95C165.8,68.4,209,52.5,256,52.5c112.7,0,204,91.3,204,204C460,303.5,444.1,346.7,417.4,381.1z"/>
</svg>

