<?xml version="1.0" encoding="utf-8"?>
<!-- Generator: Adobe Illustrator 27.9.0, SVG Export Plug-In . SVG Version: 6.00 Build 0)  -->
<svg version="1.1" id="Layer_1" focusable="false" xmlns="http://www.w3.org/2000/svg" xmlns:xlink="http://www.w3.org/1999/xlink"
	 x="0px" y="0px" viewBox="0 0 512 512" style="enable-background:new 0 0 512 512;" xml:space="preserve">
<title>Sort</title>
<data-Icon_Keyword>Sort, Arange, Catagorize,Rank,Order</data-Icon_Keyword>
<data-Icon_Use_Case>REPRESENTS: Sort. LIMITATIONS OF USE: This icon has no limitations of use, only that it must represent a Sort.</data-Icon_Use_Case>
<path d="M359.7,324c-4.8,0-26.9,0-42.9,0l-0.1-136.1c18.1,0,41.3,0,45.2,0c15.7,0,28.2-10.1,28.2-10.1c13.5-13.5,13.5-35.4,0-48.9
	L280.5,19.1C267,5.6,245,5.6,231.6,19.1L121.9,128.9c-13.5,13.4-13.5,35.4,0,48.9c0,0,8.4,10.2,30.4,10.2c4.8,0,26.9,0,42.9,0
	l0.1,136.1c-18.1,0-41.3,0-45.2,0c-15.7,0-28.2,10.1-28.2,10.1c-13.5,13.5-13.5,35.4,0,48.9l109.6,109.8c13.5,13.5,35.4,13.5,48.9,0
	l109.7-109.8c13.5-13.4,13.5-35.4,0-48.9C390.1,334.2,381.7,324,359.7,324z"/>
</svg>

