<?xml version="1.0" encoding="utf-8"?>
<!-- Generator: Adobe Illustrator 27.9.0, SVG Export Plug-In . SVG Version: 6.00 Build 0)  -->
<svg version="1.1" id="Layer_1" focusable="false" xmlns="http://www.w3.org/2000/svg" xmlns:xlink="http://www.w3.org/1999/xlink"
	 x="0px" y="0px" viewBox="0 0 512 512" style="enable-background:new 0 0 512 512;" xml:space="preserve">
<title>Digital returns mobile</title>
<data-Icon_Keyword>Mobile, phone, call, solution</data-Icon_Keyword>
<data-Icon_Use_Case>REPRESENTS: Mobile LIMITATIONS OF USE: This icon has no limitations of use, only that it must represent a Mobile Phone or Solution.</data-Icon_Use_Case>
<path d="M389.3,8H122.7c-19.6,0-35.5,15.9-35.5,35.5v424.2c0,19.6,15.9,35.5,35.5,35.5h266.5c19.6,0,35.5-15.9,35.5-35.5V43.5
	C424.8,23.9,408.9,8,389.3,8z M256,482.1c-12.8,0-23.2-10.4-23.2-23.2c0-12.8,10.4-23.2,23.2-23.2c12.8,0,23.2,10.4,23.2,23.2
	S268.8,482.1,256,482.1z M406,419.5H106V45h300V419.5z"/>
</svg>

