<?xml version="1.0" encoding="utf-8"?>
<!-- Generator: Adobe Illustrator 27.9.0, SVG Export Plug-In . SVG Version: 6.00 Build 0)  -->
<svg version="1.1" id="Layer_1" focusable="false" xmlns="http://www.w3.org/2000/svg" xmlns:xlink="http://www.w3.org/1999/xlink"
	 x="0px" y="0px" viewBox="0 0 512 512" style="enable-background:new 0 0 512 512;" xml:space="preserve">
<title>No cost</title>
<data-Icon_Keyword>No cost, free</data-Icon_Keyword>
<data-Icon_Use_Case>REPRESENTS: No Cost. LIMITATIONS OF USE: This icon has no limitations of use, only that it must represent No Cost.</data-Icon_Use_Case>
<path d="M256,3.5C116.5,3.5,3.5,116.5,3.5,256s113,252.5,252.5,252.5s252.5-113,252.5-252.5S395.5,3.5,256,3.5z M256,52
	c47,0,90.2,15.9,124.7,42.5l-34.9,34.9c-15-13.8-33.9-22.9-55-27.6V70h-69.7v30.7c-24.8,4-48.8,12.5-62.4,25.3
	c-19.8,18.7-29.6,41.6-29.6,68.7c0,26.9,8.3,47.2,24.8,61.2c9,7.6,25.7,14.3,45.3,20.1L162,313.2l-38.7,0.2
	c2.6,11.3,5.6,21,9.1,29.4l-37.8,37.8C67.9,346.2,52,303,52,256C52,143.3,143.3,52,256,52z M300.8,302.9
	c7.3,4.9,10.9,11.9,10.9,20.8c0,8.8-4,16.4-12.1,22.7c-8.1,6.4-26.4,9.5-42.8,9.5c-20.9,0-36.8-5.4-47.7-16.2l49.4-49.4
	C277.1,294.3,294.2,298.5,300.8,302.9z M258.3,213.3c-18.6-3.7-40.1-8.1-45.3-13.2c-5.3-5.1-8-11.2-8-18.6c0-18.4,23.6-27.6,52-27.6
	c19.8,0,34.5,6.8,44.1,20.3l-39.7,39.7C260.3,213.7,259.3,213.5,258.3,213.3z M256,460c-47,0-90.2-15.9-124.7-42.5l32-32
	c2.8,2.2,5.6,4.2,8.6,6.1c14.4,9.3,30.9,15.6,49.4,18.8V441H291v-30c27.3-3,51.6-10.1,66.1-23.9C378.4,367,389,343,389,315.5
	c-0.1-17.5-5-33.4-15-47.7c-10-14.3-26.5-29-40.9-35.4c-3.3-1.5-7.4-2.9-12.2-4.4l37.6-37.6l19.8,0.1c-1-5.6-2.3-10.9-4-15.9
	l43.3-43.3C444.1,165.8,460,209,460,256C460,368.7,368.7,460,256,460z"/>
</svg>

