<?xml version="1.0" encoding="utf-8"?>
<!-- Generator: Adobe Illustrator 27.9.0, SVG Export Plug-In . SVG Version: 6.00 Build 0)  -->
<svg version="1.1" id="Layer_1" focusable="false" xmlns="http://www.w3.org/2000/svg" xmlns:xlink="http://www.w3.org/1999/xlink"
	 x="0px" y="0px" viewBox="0 0 512 512" style="enable-background:new 0 0 512 512;" xml:space="preserve">
<title>Document xls</title>
<data-Icon_Keyword>XLS, document, Excel</data-Icon_Keyword>
<data-Icon_Use_Case>REPRESENTS: XLS document. LIMITATIONS OF USE: This icon has no limitations of use, only that it must represent a XLS document.</data-Icon_Use_Case>
<g>
	<polygon points="283.3,23 282,23 282,150 410.3,150 	"/>
	<path d="M238.8,216c-6.3,0-11.9-2.5-16-6.6l-0.2-0.2c-4.1-4.1-6.6-9.7-6.6-15.9V23h-84c-16.9,0-30.6,13.7-30.6,30.7v404.7
		c0,16.9,13.7,30.7,30.6,30.7h247.7c16.9,0,30.7-13.7,30.7-30.7V216H238.8z M196.9,403.4l-18.1-34.2c-0.7-1.3-1.4-3.6-2.1-7h-0.3
		c-0.3,1.6-1.1,4-2.4,7.3l-18.1,33.9h-28.2l33.4-52.4l-30.6-52.4h28.7l15,31.4c1.2,2.5,2.2,5.4,3.1,8.8h0.3c0.6-2,1.7-5.1,3.3-9.1
		l16.7-31.2H224l-31.4,52l32.3,52.9L196.9,403.4L196.9,403.4z M296.3,403.4h-62.5V298.5h23.6v85.7h38.8v19.2H296.3z M372.2,388.6
		c-2.2,4-5.2,7.2-9,9.7s-8.2,4.2-13.3,5.3c-5,1.1-10.4,1.6-16,1.6c-5.8,0-11.2-0.5-16.4-1.5c-5.2-1-9.7-2.4-13.5-4.4v-23.4
		c4.2,3.6,8.8,6.2,13.8,8s10,2.7,15.1,2.7c3,0,5.6-0.3,7.8-0.8c2.2-0.5,4.1-1.3,5.6-2.2c1.5-1,2.6-2.1,3.3-3.4
		c0.7-1.3,1.1-2.7,1.1-4.2c0-2-0.6-3.9-1.8-5.5c-1.2-1.6-2.8-3.1-4.8-4.5s-4.4-2.7-7.2-3.9c-2.8-1.3-5.8-2.6-9-3.9
		c-8.2-3.4-14.3-7.6-18.3-12.5s-6-10.9-6-17.8c0-5.5,1.1-10.2,3.3-14.1c2.2-3.9,5.2-7.2,9-9.7s8.2-4.4,13.1-5.6
		c5-1.2,10.2-1.8,15.8-1.8c5.5,0,10.3,0.3,14.5,1s8.1,1.7,11.7,3v21.9c-1.8-1.2-3.7-2.3-5.7-3.2s-4.2-1.7-6.4-2.3
		c-2.2-0.6-4.4-1.1-6.5-1.4c-2.2-0.3-4.2-0.4-6.2-0.4c-2.7,0-5.1,0.3-7.3,0.8c-2.2,0.5-4,1.2-5.6,2.2c-1.5,0.9-2.7,2-3.5,3.3
		s-1.2,2.7-1.2,4.4c0,1.8,0.5,3.3,1.4,4.7c0.9,1.4,2.2,2.7,3.9,3.9c1.7,1.2,3.8,2.5,6.2,3.7c2.4,1.2,5.2,2.4,8.3,3.7
		c4.2,1.8,8,3.6,11.3,5.6s6.2,4.2,8.6,6.7s4.2,5.3,5.5,8.5s1.9,6.9,1.9,11.2C375.5,379.7,374.4,384.6,372.2,388.6z"/>
</g>
</svg>

