<?xml version="1.0" encoding="utf-8"?>
<!-- Generator: Adobe Illustrator 27.9.0, SVG Export Plug-In . SVG Version: 6.00 Build 0)  -->
<svg version="1.1" id="Layer_1" focusable="false" xmlns="http://www.w3.org/2000/svg" xmlns:xlink="http://www.w3.org/1999/xlink"
	 x="0px" y="0px" viewBox="0 0 512 512" style="enable-background:new 0 0 512 512;" xml:space="preserve">
<title>Arrow long left</title>
<data-Icon_Keyword>Direction, Navigation, arrow, left, long</data-Icon_Keyword>
<data-Icon_Use_Case>REPRESENTS: Long Arrow Left LIMITATIONS OF USE: This icon has no limitations of use.</data-Icon_Use_Case>
<path d="M149.7,375c0,0,9-7.4,9-27c0-4.3,0-15,0-29.2h321.7c17.4,0,31.5-14.1,31.5-31.5v-62.5c0-17.4-14.1-31.5-31.5-31.5H158.8
	c0-16,0-27.8,0-31.2c0-14-9-25.1-9-25.1c-12-12-31.4-12-43.4,0L9,234.3c-12,12-12,31.4,0,43.4l97.4,97.4
	C118.4,387,137.8,387,149.7,375z"/>
</svg>

