<?xml version="1.0" encoding="utf-8"?>
<!-- Generator: Adobe Illustrator 27.9.0, SVG Export Plug-In . SVG Version: 6.00 Build 0)  -->
<svg version="1.1" id="Layer_1" focusable="false" xmlns="http://www.w3.org/2000/svg" xmlns:xlink="http://www.w3.org/1999/xlink"
	 x="0px" y="0px" viewBox="0 0 512 512" style="enable-background:new 0 0 512 512;" xml:space="preserve">
<title>Add</title>
<data-Icon_Keyword>Add, Additional, Add Data, Add Information, Add on, Include, Annex, Put in, Count, Count Up, Include</data-Icon_Keyword>
<data-Icon_Use_Case>REPRESENTS: Adding data, content, etc. LIMITATIONS OF USE: This icon has no limitations of use, only that it must represent the action of "adding something".</data-Icon_Use_Case>
<path d="M431.8,208.5H303.5V39c0-16.3-13.2-29.4-29.4-29.4h-36.2c-16.3,0-29.4,13.2-29.4,29.4v169.4H80.2H39
	c-16.3,0-29.4,13.2-29.4,29.4V274c0,16.3,13.2,29.4,29.4,29.4h41.2l0,0h128.3V473c0,16.3,13.2,29.4,29.4,29.4h36.2
	c16.3,0,29.4-13.2,29.4-29.4V303.5h128.3l0,0H473c16.3,0,29.4-13.2,29.4-29.4v-36.2c0-16.3-13.2-29.4-29.4-29.4L431.8,208.5
	L431.8,208.5z"/>
</svg>

