<?xml version="1.0" encoding="utf-8"?>
<!-- Generator: Adobe Illustrator 27.9.0, SVG Export Plug-In . SVG Version: 6.00 Build 0)  -->
<svg version="1.1" id="Layer_1" focusable="false" xmlns="http://www.w3.org/2000/svg" xmlns:xlink="http://www.w3.org/1999/xlink"
	 x="0px" y="0px" viewBox="0 0 512 512" style="enable-background:new 0 0 512 512;" xml:space="preserve">
<title>Document zip</title>
<data-Icon_Keyword>ZIP, file, document</data-Icon_Keyword>
<data-Icon_Use_Case>REPRESENTS: Zip file. LIMITATIONS OF USE: This icon has no limitations of use, only that it must represent a Zip file.</data-Icon_Use_Case>
<path d="M283.3,23H282v127h128.3L283.3,23z M238.8,216c-6.3,0-11.9-2.5-16-6.6l-0.1-0.1l-0.1-0.1c-4.1-4.1-6.6-9.7-6.6-15.9v-0.1V23
	h-84c-16.9,0-30.6,13.7-30.6,30.7v404.7c0,16.9,13.7,30.7,30.6,30.7h247.7c16.9,0,30.7-13.7,30.7-30.7V216H238.8z M226,405.1h-97.5
	v-13.9l62.1-73.4H133v-19.6h92.9v13.5l-60.7,73.8H226V405.1z M271.1,405.1h-27.3V298.2h27.3V405.1z M374,358.3
	c-8.8,6.6-20.5,9.9-35.1,9.9h-13V405h-27.3V298.2h42.7c30.5,0,45.8,11.4,45.8,34.1C387.1,343,382.7,351.7,374,358.3z M336.6,316.7
	h-10.7V350h10.7c14.5,0,21.8-5.6,21.8-16.8C358.4,322.2,351.1,316.7,336.6,316.7z"/>
</svg>

