<?xml version="1.0" encoding="utf-8"?>
<!-- Generator: Adobe Illustrator 27.9.0, SVG Export Plug-In . SVG Version: 6.00 Build 0)  -->
<svg version="1.1" id="Layer_1" focusable="false" xmlns="http://www.w3.org/2000/svg" xmlns:xlink="http://www.w3.org/1999/xlink"
	 x="0px" y="0px" viewBox="0 0 512 512" style="enable-background:new 0 0 512 512;" xml:space="preserve">
<title>Delete package</title>
<data-Icon_Keyword>delete, package, item</data-Icon_Keyword>
<data-Icon_Use_Case>REPRESENTS: Delete Package LIMITATIONS OF USE: This icon has no limitations of use, only that it must represent the act of deleting a package from a list.</data-Icon_Use_Case>
<g>
	<path d="M230.8,108.5c2.4-32.5,5.1-64.9,6.4-97.4H82.9l0,0l0,0c-9.7,0.5-18.8,6.8-23,15.5c-0.1,0.3-0.2,0.6-0.4,0.9s-0.4,0.7-0.5,1
		c-12.8,29.9-24.6,60.2-36.4,90.4C17,133.3,11.4,147.7,5.7,162h221.9C228.9,144.2,229.9,126.3,230.8,108.5z"/>
	<path d="M279.9,162h221.9c-5.7-14.3-11.3-28.7-16.9-43.1c-11.8-30.3-23.6-60.5-36.4-90.4c-0.2-0.3-0.3-0.7-0.5-1
		c-0.1-0.3-0.2-0.6-0.4-0.9c-4.2-8.7-13.3-15-23-15.5l0,0l0,0H270.3c1.2,32.5,4,65,6.4,97.4C277.6,126.3,278.6,144.2,279.9,162z"/>
	<polygon points="109.8,442.9 50.4,502.4 85,502.4 85,502.2 143.8,502.2 169.1,502.2 	"/>
	<polygon points="5.7,338.7 5.7,359 5.8,359 5.8,418 5.7,418 5.7,449.1 60.9,393.9 	"/>
	<path d="M5.8,200.5L5.8,200.5l-0.1,50.8c6-0.5,12.2,1.6,16.8,6.2l21.2,21.2l66.2,66.2l87.3-87.3c8.4-8.4,21.9-8.4,30.3,0l18.7,18.7
		c8.4,8.4,8.4,21.9,0,30.3L158.8,394l66.2,66.2l21.2,21.2c5.6,5.6,7.5,13.7,5.5,20.9h112h58.8v0.2h62.6c9.2,0,16.7-7.5,16.7-16.7
		V418h-0.1v-59h0.1V200.5h-0.1H5.8z"/>
</g>
</svg>

