<?xml version="1.0" encoding="utf-8"?>
<!-- Generator: Adobe Illustrator 27.9.0, SVG Export Plug-In . SVG Version: 6.00 Build 0)  -->
<svg version="1.1" id="Layer_1" focusable="false" xmlns="http://www.w3.org/2000/svg" xmlns:xlink="http://www.w3.org/1999/xlink"
	 x="0px" y="0px" viewBox="0 0 512 512" style="enable-background:new 0 0 512 512;" xml:space="preserve">
<title>Email link</title>
<data-Icon_Keyword>Email, link</data-Icon_Keyword>
<data-Icon_Use_Case>REPRESENTS: Email Link. LIMITATIONS OF USE: This icon has no limitations of use, only that it must represent an Email Link.</data-Icon_Use_Case>
<path d="M256.5,279.5c2.5-0.1,43.9-3.6,188.1-111.6c21.4-16.1,42-32.1,60.8-47.1c-4.4-35.8-34.9-63.5-72-63.5H79.6
	c-37.1,0-67.6,27.8-72,63.5c18.8,14.9,39.4,31,60.8,47.1C212.5,275.8,254,279.3,256.5,279.5z M426,252.4l-49,32.5
	c-48.5,30.5-92.8,52.1-120.6,52.1c-26.8,0-69-20.2-115.6-49l-54-35.8c-27.2-18.8-54.5-39-79.9-58.7l3.6,216.6
	c9.4,29.2,36.7,50.3,69.1,50.3h353.6c32.4,0,59.8-21.1,69.1-50.3l3.5-216.5C480.5,213.2,453.2,233.4,426,252.4z M394.5,434.7
	c-18.9,18.9-49.6,18.9-68.5,0s-18.9-49.6,0-68.5l34.2-34.2c18.9-18.9,49.6-18.9,68.5,0c3,3,5.3,6.3,7.4,9.8l-15.9,15.9
	c-0.8,0.8-1.7,1.2-2.6,1.7c-1.1-3.8-3-7.3-6-10.3c-9.4-9.4-24.8-9.4-34.2,0l-34.2,34.2c-9.4,9.4-9.4,24.8,0,34.3
	c9.4,9.4,24.8,9.4,34.2,0l12.2-12.2c9.9,3.8,20.5,4.9,30.9,3.4L394.5,434.7z M480.1,349.1l-34.3,34.2c-18.9,18.9-49.6,18.9-68.5,0
	c-3-3-5.3-6.3-7.4-9.8l15.9-15.9c0.8-0.8,1.7-1.2,2.6-1.7c1.1,3.8,3,7.3,6,10.3c9.4,9.4,24.8,9.4,34.2,0L463,332
	c9.4-9.4,9.4-24.8,0-34.2c-9.4-9.4-24.8-9.4-34.2,0L416.6,310c-9.9-3.8-20.5-4.9-30.9-3.4l25.9-25.9c18.9-18.9,49.6-18.9,68.5,0
	C499,299.5,499,330.2,480.1,349.1z"/>
</svg>

