<?xml version="1.0" encoding="utf-8"?>
<!-- Generator: Adobe Illustrator 27.9.0, SVG Export Plug-In . SVG Version: 6.00 Build 0)  -->
<svg version="1.1" id="Layer_1" focusable="false" xmlns="http://www.w3.org/2000/svg" xmlns:xlink="http://www.w3.org/1999/xlink"
	 x="0px" y="0px" viewBox="0 0 512 512" style="enable-background:new 0 0 512 512;" xml:space="preserve">
<title>Digital returns box</title>
<data-Icon_Keyword>box, package, packaging</data-Icon_Keyword>
<data-Icon_Use_Case>REPRESENTS: Box/Package LIMITATIONS OF USE: This icon has no limitations of use, only that it must represent a package or package box.</data-Icon_Use_Case>
<path d="M501.8,162c-17.7-44.5-34.4-89.4-53.3-133.5c-4.4-9.1-13.6-16.7-23.9-17.4H270.3c4.8,50.2,5.9,100.6,9.6,150.9H501.8z
	 M237.2,11.1H82.9c-9.7,0.5-18.8,6.8-23,15.5C40.9,71.4,23.5,116.8,5.7,162h221.9C229.7,111.6,235.3,61.5,237.2,11.1z M5.7,485.7
	c0,9.2,7.5,16.7,16.7,16.7H485c9.2,0,16.7-7.5,16.7-16.7V200.5H5.7V485.7z"/>
</svg>

