<?xml version="1.0" encoding="utf-8"?>
<!-- Generator: Adobe Illustrator 27.9.0, SVG Export Plug-In . SVG Version: 6.00 Build 0)  -->
<svg version="1.1" id="Layer_1" focusable="false" xmlns="http://www.w3.org/2000/svg" xmlns:xlink="http://www.w3.org/1999/xlink"
	 x="0px" y="0px" viewBox="0 0 512 512" style="enable-background:new 0 0 512 512;" xml:space="preserve">
<title>Detailed view document</title>
<data-Icon_Keyword>Detailed, view, document</data-Icon_Keyword>
<data-Icon_Use_Case>REPRESENTS: Detailed View Document LIMITATIONS OF USE: This icon has no limitations of use, only that it must represent a package or package box.</data-Icon_Use_Case>
<path d="M397.5,11.1h-287c-22.1,0-40,17.9-40,40v411.4c0,22.1,17.9,40,40,40h287.1c22.1,0,40-17.9,40-40V51.1
	C437.5,29,419.6,11.1,397.5,11.1z M136.1,454.2c-12.8,0-23.1-10.4-23.1-23.1s10.4-23.1,23.1-23.1s23.1,10.4,23.1,23.1
	S148.9,454.2,136.1,454.2z M136.1,371.8c-12.8,0-23.1-10.4-23.1-23.1s10.4-23.1,23.1-23.1s23.1,10.4,23.1,23.1
	S148.9,371.8,136.1,371.8z M136.1,289.4c-12.8,0-23.1-10.4-23.1-23.1s10.4-23.1,23.1-23.1s23.1,10.4,23.1,23.1
	S148.9,289.4,136.1,289.4z M136.1,207c-12.8,0-23.1-10.4-23.1-23.1s10.4-23.1,23.1-23.1s23.1,10.4,23.1,23.1S148.9,207,136.1,207z
	 M365,443.2H188.5v-24.3H365V443.2z M395,360.8H188.5v-24.3H395V360.8z M314,254.1v24.3H188.5v-24.3L314,254.1L314,254.1z
	 M188.5,196v-24.3H365V196H188.5z M395,101.3c0,7.2-5.8,13-13,13H126c-7.2,0-13-5.8-13-13v-29c0-7.2,5.8-13,13-13h256
	c7.2,0,13,5.8,13,13V101.3z"/>
</svg>

