<?xml version="1.0" encoding="utf-8"?>
<!-- Generator: Adobe Illustrator 27.9.0, SVG Export Plug-In . SVG Version: 6.00 Build 0)  -->
<svg version="1.1" id="Layer_1" focusable="false" xmlns="http://www.w3.org/2000/svg" xmlns:xlink="http://www.w3.org/1999/xlink"
	 x="0px" y="0px" viewBox="0 0 512 512" style="enable-background:new 0 0 512 512;" xml:space="preserve">
<title>Digital returns refund</title>
<data-Icon_Keyword>Digital, Refund</data-Icon_Keyword>
<data-Icon_Use_Case>REPRESENTS: Digital Refund. LIMITATIONS OF USE: This icon has no limitations of use, only that it must represent a Digital Refund.</data-Icon_Use_Case>
<path d="M136.7,272c0,23.7,9.2,42.1,27.6,55.4s41.6,21.4,69.6,24.3l-2,27.6H279l-2.2-27.1c29.8-1.9,53.7-9.3,71.6-22.2
	c17.9-12.8,26.9-32.5,26.9-59.1c0-18.1-5.1-32.2-15.3-42.2c-10.2-10.1-22.2-17.1-35.9-21s-30.7-7.3-51.3-10.3
	c-16.7-2.6-28.6-5.1-35.9-7.5c-7.3-2.4-11-6.2-11-11.8c0-10,10.5-14.9,31.5-14.9c7.8,0,14.9,1.7,21.3,5c6.2,3.4,9.6,9.1,9.8,17.3h81
	c0-22.8-8.7-40.2-26.3-52.3c-17.6-12.1-39.7-19.2-66.6-21.3l2.4-25.8h-47.3l2.1,26.1c-27.8,2.4-49.8,9.6-66.4,21.9
	c-16.6,12.2-24.8,30.6-24.8,55.1c0,17.6,5,31.1,14.9,41c10,9.8,21.5,16.7,34.9,20.8c13.3,4.1,30.3,7.8,51,11.3
	c17.2,2.9,29.6,5.7,37.2,8.3c7.6,2.6,11.3,6.8,11.3,12.7c0,11.3-12.1,17.1-36.4,17.1c-9.1,0-17.6-2-25.6-5.9
	c-8.1-4-12.2-10.8-12.4-20.8V272H136.7z M389.3,8H122.7c-19.6,0-35.5,15.9-35.5,35.5v424.2c0,19.6,15.9,35.5,35.5,35.5h266.5
	c19.6,0,35.5-15.9,35.5-35.5V43.5C424.8,23.9,408.9,8,389.3,8z M256,482.1c-12.8,0-23.2-10.4-23.2-23.2c0-12.8,10.4-23.2,23.2-23.2
	c12.8,0,23.2,10.4,23.2,23.2S268.8,482.1,256,482.1z M406,419.5H106V45h300V419.5z"/>
</svg>

