<?xml version="1.0" encoding="utf-8"?>
<!-- Generator: Adobe Illustrator 27.9.0, SVG Export Plug-In . SVG Version: 6.00 Build 0)  -->
<svg version="1.1" id="Layer_1" focusable="false" xmlns="http://www.w3.org/2000/svg" xmlns:xlink="http://www.w3.org/1999/xlink"
	 x="0px" y="0px" viewBox="0 0 512 512" style="enable-background:new 0 0 512 512;" xml:space="preserve">
<title>Save</title>
<data-Icon_Keyword>Save, Save As</data-Icon_Keyword>
<data-Icon_Use_Case>REPRESENTS: Save. LIMITATIONS OF USE: This icon has no limitations of use, only that it must represent the Saving action.</data-Icon_Use_Case>
<path d="M370.7,10.8h-346C15.5,10.8,8,18.3,8,27.5v457c0,9.2,7.5,16.7,16.7,16.7h462.6c9.2,0,16.7-7.5,16.7-16.7V144.1L370.7,10.8z
	 M52,174V74.5c0-8,6.5-14.5,14.5-14.5h264c8,0,14.5,6.5,14.5,14.5V174c0,8-6.5,14.5-14.5,14.5h-264C58.5,188.5,52,182,52,174z
	 M256,448c-53,0-96-43-96-96s43-96,96-96s96,43,96,96S309,448,256,448z"/>
</svg>

