<?xml version="1.0" encoding="utf-8"?>
<!-- Generator: Adobe Illustrator 27.9.0, SVG Export Plug-In . SVG Version: 6.00 Build 0)  -->
<svg version="1.0" id="Layer_1" focusable="false" xmlns="http://www.w3.org/2000/svg" xmlns:xlink="http://www.w3.org/1999/xlink"
	 x="0px" y="0px" viewBox="0 0 512 512" style="enable-background:new 0 0 512 512;" xml:space="preserve">
	 <title>Alert Info</title>
     <data-Icon_Keyword>Alert, Information, Detail</data-Icon_Keyword>
     <data-Icon_Use_Case>REPRESENTS: Alert Info. LIMITATIONS OF USE: This icon has no limitations of use, only that it must represent the action of providing information.</data-Icon_Use_Case>
<path d="M256,8C119,8,8,119.1,8,256c0,137,111,248,248,248s248-111,248-248C504,119.1,393,8,256,8z M299.5,422.5
	c0,14.6-11.9,26.5-26.5,26.5h-34c-14.6,0-26.5-11.9-26.5-26.5V218.8c0-14.6,11.9-26.5,26.5-26.5h34c14.6,0,26.5,11.9,26.5,26.5
	V422.5z M256,160.9c-27,0-48.9-21.9-48.9-48.9c0-27,21.9-48.9,48.9-48.9s48.9,21.9,48.9,48.9C304.9,139,283,160.9,256,160.9z"/>
</svg>
