<?xml version="1.0" encoding="utf-8"?>
<!-- Generator: Adobe Illustrator 27.9.0, SVG Export Plug-In . SVG Version: 6.00 Build 0)  -->
<svg version="1.1" id="Layer_1" focusable="false" xmlns="http://www.w3.org/2000/svg" xmlns:xlink="http://www.w3.org/1999/xlink"
	 x="0px" y="0px" viewBox="0 0 512 512" style="enable-background:new 0 0 512 512;" xml:space="preserve">
<title>Intelligent Rating</title>
<data-Icon_Keyword>Intelligent, Rating, Solution, App, Application</data-Icon_Keyword>
<data-Icon_Use_Case>REPRESENTS: Solultion: Intelligent Rating. LIMITATIONS OF USE: This icon can only be used to represent the Customer Solutions Application: Intelligent Rating.</data-Icon_Use_Case>
<path d="M256,8.7C148.6,8.7,61.5,95.8,61.5,203.2C61.5,360.1,256,511,256,511s194.5-150.9,194.5-307.8C450.5,95.8,363.4,8.7,256,8.7
	z M256,340.4c-75.2,0-136.2-61-136.2-136.2S180.8,68,256,68s136.2,61,136.2,136.2S331.2,340.4,256,340.4z M310.7,183.9
	c-11-3.2-24.7-5.9-41.2-8.3c-13.4-2.1-23-4.1-28.8-6c-5.9-1.9-8.8-5-8.8-9.5c0-8,8.4-12,25.3-12c6.3,0,12,1.4,17.1,4
	c5,2.7,7.7,7.3,7.9,13.9h65.1c0-18.3-7-32.3-21.1-42c-14.1-9.7-31.9-15.4-53.5-17.1l1.9-20.7h-38l1.7,21c-22.3,1.9-40,7.7-53.3,17.6
	c-13.3,9.8-19.9,24.6-19.9,44.3c0,14.1,4,25,12,32.9c8,7.9,17.3,13.4,28,16.7c10.7,3.3,24.3,6.3,41,9.1c13.8,2.3,23.8,4.6,29.9,6.7
	c6.1,2.1,9.1,5.5,9.1,10.2c0,9.1-9.7,13.7-29.2,13.7c-7.3,0-14.1-1.6-20.6-4.7c-6.5-3.2-9.8-8.7-10-16.7v-1.4h-65.1
	c0,19,7.4,33.8,22.2,44.5s33.4,17.2,55.9,19.5l-1.6,22.2h37.8l-1.8-21.8c23.9-1.5,43.1-7.5,57.5-17.8s21.6-26.1,21.6-47.5
	c0-14.5-4.1-25.9-12.3-33.9C331.3,192.7,321.7,187.1,310.7,183.9z"/>
</svg>

