<?xml version="1.0" encoding="utf-8"?>
<!-- Generator: Adobe Illustrator 27.9.0, SVG Export Plug-In . SVG Version: 6.00 Build 0)  -->
<svg version="1.1" id="Layer_1" focusable="false" xmlns="http://www.w3.org/2000/svg" xmlns:xlink="http://www.w3.org/1999/xlink"
	 x="0px" y="0px" viewBox="0 0 512 512" style="enable-background:new 0 0 512 512;" xml:space="preserve">
<title>Arrow long right</title>
<data-Icon_Keyword>Direction, Navigation, arrow, right, long</data-Icon_Keyword>
<data-Icon_Use_Case>REPRESENTS: Long Arrow Right LIMITATIONS OF USE: This icon has no limitations of use.</data-Icon_Use_Case>
<path d="M362.3,137c0,0-9,7.4-9,27c0,4.3,0,15,0,29.2H31.5C14.1,193.2,0,207.3,0,224.7v62.5c0,17.4,14.1,31.5,31.5,31.5h321.7
	c0,16,0,27.8,0,31.2c0,14,9,25.1,9,25.1c12,12,31.4,12,43.4,0l97.4-97.3c12-12,12-31.4,0-43.4L405.6,137
	C393.6,125,374.2,125,362.3,137z"/>
</svg>

