<?xml version="1.0" encoding="utf-8"?>
<!-- Generator: Adobe Illustrator 27.9.0, SVG Export Plug-In . SVG Version: 6.00 Build 0)  -->
<svg version="1.0" id="Layer_1" focusable="false" xmlns="http://www.w3.org/2000/svg" xmlns:xlink="http://www.w3.org/1999/xlink"
	 x="0px" y="0px" viewBox="0 0 512 512" style="enable-background:new 0 0 512 512;" xml:space="preserve">
	 <title>Alert Success</title>
     <data-Icon_Keyword>Alert, Success, Ok</data-Icon_Keyword>
     <data-Icon_Use_Case>REPRESENTS: Alert Success. LIMITATIONS OF USE: This icon has no limitations of use, only that it must represent the action of success of task.</data-Icon_Use_Case>
<path d="M256,8C119,8,8,119.1,8,256c0,137,111,248,248,248s248-111,248-248C504,119.1,393,8,256,8z M422,158.2
	c-20,29.9-40,59.8-60.3,89.5c-39.6,58.1-79.3,116.4-119,174.5c-11.4,16.6-29.1,18.8-43.5,4.8c-36.2-35.5-72-71.5-107.6-107.5
	c-7.5-7.5-7.7-16.5-0.4-24.3c8.8-9.4,18-18.8,27.4-27.4c7.5-6.9,16.6-6.5,23.7,0.5c21.4,21,42.8,41.8,64.2,63c1.8,1.7,3.6,3.3,6,5.8
	c7.1-10.4,13.9-20.5,20.7-30.6c42.5-62.1,84.8-124.3,127.1-186.4c9.9-14.4,18-15.8,32.3-6c8.5,5.6,16.7,11.5,24.7,17.5
	C427.2,139.1,428.9,147.9,422,158.2z"/>
</svg>
