<?xml version="1.0" encoding="utf-8"?>
<!-- Generator: Adobe Illustrator 27.9.0, SVG Export Plug-In . SVG Version: 6.00 Build 0)  -->
<svg version="1.1" id="Layer_1" focusable="false" xmlns="http://www.w3.org/2000/svg" xmlns:xlink="http://www.w3.org/1999/xlink"
	 x="0px" y="0px" viewBox="0 0 512 512" style="enable-background:new 0 0 512 512;" xml:space="preserve">
<title>Edit</title>
<data-Icon_Keyword>Edit, pencil</data-Icon_Keyword>
<data-Icon_Use_Case>REPRESENTS: Edit. LIMITATIONS OF USE: This icon has no limitations of use, only that it must represent the action of Editing.</data-Icon_Use_Case>
<g>
	<polygon points="37.9,444.1 28.7,497 79.5,483.6 	"/>
	<path d="M404.1,198.1l-102.5-97.2c-8,8.5-16.1,17-24.1,25.6l102.6,97.3C388.1,215.2,396.1,206.7,404.1,198.1z"/>
	<path d="M470.1,73.7c-13.5-13.9-27.6-27.8-42-41.1c-24.5-22.9-40.6-22.7-63.7,1.8c-12.6,13.3-25.2,26.7-37.8,40.1l102.3,97
		c14.1-15.2,28.1-30.3,42.2-45.5C487.3,108.4,486.8,91,470.1,73.7z"/>
	<path d="M252.6,152.9C189.8,219.7,127,286.4,64,353c-4.2,4.5-8.5,9.1-12.7,13.6l-6,34.5l75.4,71.5l33.9-9
		c58-61.5,115.9-123,173.7-184.5c9-9.6,18-19.2,27-28.8L252.6,152.9z"/>
</g>
</svg>

