<?xml version="1.0" encoding="utf-8"?>
<!-- Generator: Adobe Illustrator 27.9.0, SVG Export Plug-In . SVG Version: 6.00 Build 0)  -->
<svg version="1.1" id="Layer_1" focusable="false" xmlns="http://www.w3.org/2000/svg" xmlns:xlink="http://www.w3.org/1999/xlink"
	 x="0px" y="0px" viewBox="0 0 512 512" style="enable-background:new 0 0 512 512;" xml:space="preserve">
	 <title>Alert Danger</title>
     <data-Icon_Keyword>Alert, Danger, Forbidden, Restrict, Warning</data-Icon_Keyword>
     <data-Icon_Use_Case>REPRESENTS: Alert Danger. LIMITATIONS OF USE: This icon has no limitations of use, only that it must represent the action of alert danger.</data-Icon_Use_Case>
<path d="M505.5,422.3L289.1,47.7c-14.7-25.5-51.6-25.5-66.3,0L6.5,422.3c-14.7,25.5,3.7,57.4,33.1,57.4h432.6
	C501.8,479.8,520.2,447.9,505.5,422.3z M298.2,425.9c0,14.2-11.5,25.7-25.7,25.7h-33c-14.2,0-25.7-11.5-25.7-25.7v-176
	c0-14.2,11.5-25.7,25.7-25.7h33c14.2,0,25.7,11.5,25.7,25.7V425.9z M256,193.8c-26.2,0-47.4-21.2-47.4-47.4
	c0-26.2,21.2-47.4,47.4-47.4s47.4,21.2,47.4,47.4C303.4,172.5,282.2,193.8,256,193.8z"/>
</svg>
