<?xml version="1.0" encoding="utf-8"?>
<!-- Generator: Adobe Illustrator 27.9.0, SVG Export Plug-In . SVG Version: 6.00 Build 0)  -->
<svg version="1.1" id="Layer_1" focusable="false" xmlns="http://www.w3.org/2000/svg" xmlns:xlink="http://www.w3.org/1999/xlink"
	 x="0px" y="0px" viewBox="0 0 512 512" style="enable-background:new 0 0 512 512;" xml:space="preserve">
<title>Digital returns label</title>
<data-Icon_Keyword>Label, Digital</data-Icon_Keyword>
<data-Icon_Use_Case>REPRESENTS: Digital Label LIMITATIONS OF USE: This icon has no limitations of use, only that it must represent a Digital Label</data-Icon_Use_Case>
<path d="M192.4,367.3v62.9h29.7l-0.2-62.9H192.4z M248.5,367.3v62.9h29.7v-62.9H248.5z M259.6,155.9l0.1,29.6h103.8l-0.1-29.6H259.6
	z M363.4,96.3H259.6V126h103.8L363.4,96.3L363.4,96.3z M151.2,96.1v89.3h89.3l-0.1-89.2L151.2,96.1z M363.3,310.7H151.2v29.7h212.1
	V310.7z M392.6,32.9H121.9c-17.5,0-31.6,14.1-31.6,31.6L90.5,452c0,17.5,14.1,31.6,31.6,31.6l270.6-0.1c17.5,0,31.6-14.1,31.6-31.6
	V64.5C424.1,47,410,32.9,392.6,32.9z M125.5,83.4c0-9,6.9-16.3,15.6-16.3h232.3c8.7,0,15.6,7.4,15.6,16.3v124.2H125.5V83.4z
	 M389.1,433.1c0,9-7,16.2-15.6,16.3H141c-8.7,0-15.6-7.4-15.6-16.3V231h263.7V433.1z M180.9,367.3h-29.7v62.9h29.7V367.3z
	 M291.2,430.2h29.7v-62.9h-29.7V430.2z M333.8,430.2h29.7v-62.9h-29.7V430.2z M363.3,259.6H151.2v29.7h212.1V259.6z"/>
</svg>

