<?xml version="1.0" encoding="utf-8"?>
<!-- Generator: Adobe Illustrator 27.9.0, SVG Export Plug-In . SVG Version: 6.00 Build 0)  -->
<svg version="1.0" id="Layer_1" focusable="false" xmlns="http://www.w3.org/2000/svg" xmlns:xlink="http://www.w3.org/1999/xlink"
	 x="0px" y="0px" viewBox="0 0 806.3 512" style="enable-background:new 0 0 806.3 512;" xml:space="preserve">
	<title>Switch Off</title>
     <data-Icon_Keyword>Switch, Off</data-Icon_Keyword>
     <data-Icon_Use_Case>REPRESENTS: Switch Off. LIMITATIONS OF USE: This icon has no limitations of use, only that it must represent the action of switch.</data-Icon_Use_Case>
<path d="M388.8,106.5h-269c-8.3,0-15,6.7-15,15v269c0,8.3,6.7,15,15,15h269c8.3,0,15-6.7,15-15v-269
	C403.8,113.2,397.1,106.5,388.8,106.5z M731,8.2H75.3C40.4,8.2,12,36.6,12,71.5v368.9c0,35,28.3,63.3,63.3,63.3H731
	c35,0,63.3-28.3,63.3-63.3V71.5C794.3,36.6,766,8.2,731,8.2z M747.3,433.6c0,10.4-8.4,18.8-18.8,18.8H77.8
	c-10.4,0-18.8-8.4-18.8-18.8V78.4c0-10.4,8.4-18.8,18.8-18.8h650.7c10.4,0,18.8,8.4,18.8,18.8V433.6z"/>
</svg>
