<?xml version="1.0" encoding="utf-8"?>
<!-- Generator: Adobe Illustrator 27.9.0, SVG Export Plug-In . SVG Version: 6.00 Build 0)  -->
<svg version="1.1" id="Layer_1" focusable="false" xmlns="http://www.w3.org/2000/svg" xmlns:xlink="http://www.w3.org/1999/xlink"
	 x="0px" y="0px" viewBox="0 0 512 512" style="enable-background:new 0 0 512 512;" xml:space="preserve">
<title>Digital returns user car</title>
<data-Icon_Keyword>personal, customer, drop, off</data-Icon_Keyword>
<data-Icon_Use_Case>REPRESENTS: Personal Drop Off. LIMITATIONS OF USE: This icon has no limitations of use, only that it must represent a customer driving to a UPS drop off location.</data-Icon_Use_Case>
<path d="M256,199.4c19.8,0,35.8-16,35.8-35.8s-16.1-35.8-35.8-35.8s-35.8,16-35.8,35.8S236.2,199.4,256,199.4z M138.7,341.8
	c-34.1-1.1-62,26.8-60.9,60.9c1,30.9,26.1,56.1,57,57c34.1,1.1,62-26.8,60.9-60.9C194.8,368,169.6,342.8,138.7,341.8z M382.1,341.8
	c-34.1-1.1-62,26.8-60.9,60.9c1,30.9,26.1,56.1,57,57c34.1,1.1,62-26.8,60.9-60.9C438.2,368,413,342.8,382.1,341.8z M446.7,257H388
	l-38.7-107h-28l36,106h-63.5v-26.8c0-12.7-9.3-23.2-21.6-25v-0.3h-3.7h-2h-21h-2h-3.4v0.2c-12.4,1.7-21.9,12.2-21.9,25.1V256h-0.9
	l-26.6-71c-5.9-15.8-23.5-23.8-39.3-17.9l-8.4,3.2c-15.8,5.9-23.8,23.5-17.9,39.3l17.4,46.5h-26.4L101,215H5.3v41v35v79.3
	c0,16.8,13.7,30.5,30.5,30.5h13c0-48.6,39.4-88,88-88s88,39.4,88,88h67.4c0-48.6,39.4-88,88-88s88,39.4,88,88h38.6V317
	C506.7,283.9,479.9,257,446.7,257z"/>
</svg>

