<?xml version="1.0" encoding="utf-8"?>
<!-- Generator: Adobe Illustrator 27.9.0, SVG Export Plug-In . SVG Version: 6.00 Build 0)  -->
<svg version="1.1" id="Layer_1" focusable="false" xmlns="http://www.w3.org/2000/svg" xmlns:xlink="http://www.w3.org/1999/xlink"
	 x="0px" y="0px" viewBox="0 0 512 512" style="enable-background:new 0 0 512 512;" xml:space="preserve">
<title>Digital returns user computer</title>
<data-Icon_Keyword>user, computer,</data-Icon_Keyword>
<data-Icon_Use_Case>REPRESENTS: User Computer LIMITATIONS OF USE: This icon has no limitations of use.</data-Icon_Use_Case>
<path d="M311,244.8h162v-24.5H311V244.8z M416.5,263.5h-49c-8.4,0-15.2,6.8-15.2,15.2v8.2c0,8.4,6.8,15.2,15.2,15.2h49
	c8.4,0,15.2-6.8,15.2-15.2v-8.2C431.7,270.3,424.9,263.5,416.5,263.5z M311,196.4h162v-24.5H311V196.4z M489.5,48.9H53
	c-12.4,0-22.5,10.1-22.5,22.5V301C12.1,313.4,0,334.5,0,358.4v156.2h338.6v-66.1H386c12.7,0,23-10.3,23-23l0,0c0-12.7-10.3-23-23-23
	h-24V344h127.5c12.4,0,22.5-10.1,22.5-22.5v-250C512,59,501.9,48.9,489.5,48.9z M491,310.4c0,5.2-4.2,9.5-9.5,9.5H326.9
	c-10.6-15.8-27.6-27-47.4-29.9v-0.8h-10.2H264H74.7h-5.4H60v0.6c-2.9,0.4-5.7,1-8.5,1.7v-209c0-5.2,4.2-9.5,9.5-9.5h420.5
	c5.2,0,9.5,4.2,9.5,9.5V310.4z M169.3,80.9c-21.1,0-40.7,6.7-56.7,18.1H77v47c-3.7,10.3-5.7,21.4-5.7,32.9c0,54.2,43.9,98,98,98
	s98-43.8,98-98c0-10.8-1.8-21.2-5-30.9H473V99H226C210,87.6,190.5,80.9,169.3,80.9z"/>
</svg>

