<?xml version="1.0" encoding="utf-8"?>
<!-- Generator: Adobe Illustrator 27.9.0, SVG Export Plug-In . SVG Version: 6.00 Build 0)  -->
<svg version="1.1" id="Layer_1" focusable="false" xmlns="http://www.w3.org/2000/svg" xmlns:xlink="http://www.w3.org/1999/xlink"
	 x="0px" y="0px" viewBox="0 0 512 512" style="enable-background:new 0 0 512 512;" xml:space="preserve">
<title>Learning Center generic app</title>
<data-Icon_Keyword>Learning, Learning Center, Solutions,knowledge, Knowledge Base, Generic Icon</data-Icon_Keyword>
<data-Icon_Use_Case>REPRESENTS: Generic Icon for Solutions with no existing icon. LIMITATIONS OF USE: This is a Generic Icon to used to represent Solutions within the Learning Center that have no existing icon to represent them.</data-Icon_Use_Case>
<path d="M114.1,50.1H455V18.9H114.1c-35.5,0-64.2,28.8-64.2,64.2l0,0v80.2c9.8,11.9,32.9,20.2,59.7,20.2h9.3v31.2h-9.3
	c-21.8,0-40.6,0-59.7-16.1v183.6c9.8,11.9,32.9,20.2,59.7,20.2h9.3v31.2h-9.3c-21.8,0-40.6,0-59.7-16.1v6.6c0,38.1,30.9,69,69,69
	H455V147.4v-31.2H114.1c-18.2,0-33.1-14.8-33.1-33.1C81,64.9,95.8,50.1,114.1,50.1z M306.1,446.8c-0.4,1.2-1.2,2.2-2.3,2.8
	c-7.3,3.9-15.7,6-24.2,6c-9.6,0-19-2.6-27.2-7.4c-2.3-1.3-3-4.3-1.7-6.5c0.9-1.5,2.4-2.4,4.1-2.4c0.8,0,1.7,0.2,2.4,0.7
	c6.8,4,14.6,6.1,22.4,6.1c6.9,0,13.7-1.7,19.7-4.9c0.7-0.4,1.5-0.6,2.3-0.6c1.8,0,3.4,1,4.2,2.5
	C306.4,444.3,306.5,445.6,306.1,446.8z M319,419c-11.6,6.3-24.9,9.6-38.5,9.6c-15.2,0-30.2-4.1-43.4-11.9c-2.3-1.3-3-4.3-1.7-6.5
	c0.9-1.5,2.4-2.4,4.1-2.4c0.8,0,1.7,0.2,2.4,0.7c11.7,6.9,25,10.5,38.5,10.5c12,0,23.7-2.9,33.9-8.4c0.7-0.4,1.5-0.6,2.3-0.6
	c1.8,0,3.4,1,4.2,2.5C322.2,414.8,321.3,417.7,319,419z M283.3,253.2c-2.8,0-7.1,2.1-10.9,8.2c-5.6,8.9-8.7,24.6-0.4,42.2
	c0.5,1.2,0.6,2.5,0.2,3.6c-0.4,1.2-1.3,2.2-2.5,2.7c-0.6,0.3-1.3,0.5-2,0.5c-1.8,0-3.5-1.1-4.3-2.7c-9.9-21.1-6-40.3,1-51.3
	c5.1-8,12-12.6,19-12.6c14.5,0,23.2,17.3,23.2,46.3c0,36.5-51.9,100.9-54.1,103.6c-0.9,1.1-2.3,1.8-3.7,1.8c-1.1,0-2.1-0.4-3-1.1
	c-1-0.8-1.6-1.9-1.7-3.2s0.2-2.5,1-3.5c20.9-25.7,51.9-73,51.9-97.6C296.9,272.3,292.6,253.2,283.3,253.2z M275.5,395.5
	c26.3-32.4,52.3-67.2,56.2-104.4l0.1-1.4l-1.3-0.6c-5.1-2.5-8.2-7.5-8.2-13.2c0-5.1,2.6-9.7,6.9-12.4l1.2-0.7l-0.3-1.4
	c-4.7-21.4-16.5-38.3-31.6-45.3l-1.7-0.8L296,217c-2.6,4.6-7.5,7.4-12.7,7.4s-10.1-2.8-12.7-7.4l-0.9-1.6l-1.7,0.8
	c-20.2,9.3-33.7,35.6-33.7,65.4c0,15.2,5.8,33.8,18.7,60.2c1.2,2.4,0.2,5.2-2.2,6.4c-0.7,0.3-1.4,0.5-2.1,0.5c-1.8,0-3.5-1-4.3-2.7
	c-13.8-28.2-19.7-47.4-19.7-64.4c0-20.7,5.9-40.1,16.7-54.8c7.4-10.2,16.8-17.4,27-21l0.9-0.3l0.3-0.9c2.1-5.7,7.6-9.5,13.7-9.5
	s11.5,3.8,13.7,9.5l0.3,0.9l0.9,0.3c10.2,3.5,19.5,10.8,27,21c6.9,9.4,11.9,21,14.5,33.6l0.2,1.2l1.2,0.3
	c6.3,1.8,10.6,7.6,10.6,14.1c0,6-3.6,11.3-9.1,13.6l-1.1,0.5l-0.1,1.2c-3.9,40.2-31,76.5-58.4,110.4c-0.9,1.1-2.3,1.8-3.7,1.8
	c-1.1,0-2.1-0.4-3-1.1C274.2,400.6,273.9,397.5,275.5,395.5z M194.5,262.1l1.2-0.4l0.2-1.2c2.8-21.5,10-41.6,20.7-58l0.7-1l-0.6-1.1
	c-1.2-2.2-1.9-4.7-1.9-7.1c0-8.1,6.6-14.7,14.7-14.7c1.9,0,3.7,0.4,5.5,1.1l1.1,0.4l0.9-0.8c13.8-11.4,29.8-17.4,46.3-17.4
	s32.5,6,46.3,17.4l0.9,0.8l1.1-0.4c1.8-0.7,3.6-1.1,5.5-1.1c8.1,0,14.7,6.6,14.7,14.7c0,2.5-0.6,5-1.9,7.1l-0.6,1.1l0.7,1
	c14.3,21.8,22.1,49.9,22.1,79.1c0,20.4-4.1,39.9-12.5,59.6l-0.5,1.1l0.7,0.9c2,2.6,3,5.7,3,8.9c0,8.1-6.6,14.7-14.7,14.7
	c-0.1,0-0.2,0-0.3,0h-0.3h-1.2l-0.6,1c-3.7,6.2-7.5,12.1-10.9,17.2l-1.8,2.8c-0.9,1.4-2.4,2.2-4,2.2c-0.9,0-1.8-0.3-2.6-0.8
	c-2.2-1.4-2.8-4.4-1.4-6.6l1.9-2.8c3.1-4.8,6.7-10.2,10.1-15.9l0.7-1.2l-0.9-1.1c-2.2-2.6-3.4-5.9-3.4-9.3c0-8.1,6.6-14.7,14.7-14.7
	c0.4,0,0.7,0,1.1,0.1l1.4,0.1l0.6-1.3c7.5-18,11.2-35.9,11.2-54.7c0-27-7.1-53-20.1-73.2l-0.8-1.2l-1.4,0.3
	c-1.1,0.2-2.2,0.4-3.2,0.4c-8.1,0-14.7-6.6-14.7-14.7c0-1.7,0.3-3.3,0.9-5l0.5-1.3l-1.1-0.9c-11.9-9.5-25.6-14.6-39.4-14.6
	s-27.5,5-39.4,14.6l-1.1,0.9l0.5,1.3c0.6,1.6,0.9,3.3,0.9,5c0,8.1-6.6,14.7-14.7,14.7c-1.1,0-2.2-0.1-3.2-0.4l-1.4-0.3l-0.8,1.2
	c-9.6,15-16,33.2-18.7,52.8l-0.2,1.3l1.2,0.7c4.6,2.6,7.5,7.5,7.5,12.8c0,5.6-3.3,10.8-8.3,13.2l-1.2,0.6l0.1,1.4
	c1.2,14.4,5,29.6,11.3,45.1l0.5,1.1l1.2,0.1c7.5,0.8,13.2,7,13.2,14.6c0,2.7-0.7,5.3-2.1,7.6l-0.6,1l0.6,1c1.7,2.8,3.3,5.4,5,7.8
	c1.5,2.2,0.9,5.2-1.3,6.6c-0.8,0.5-1.7,0.8-2.7,0.8c-1.6,0-3.1-0.8-4-2.1c-1.1-1.6-2.8-4.2-4.8-7.6l-0.7-1.2l-1.4,0.3
	c-0.9,0.2-1.8,0.3-2.7,0.3c-8.1,0-14.7-6.6-14.7-14.7c0-4.1,1.7-8,4.8-10.8l1-0.9l-0.5-1.3c-6.6-16.3-10.5-32.4-11.7-47.9l-0.1-1.2
	l-1.1-0.5c-5.5-2.3-9-7.6-9-13.5C184.6,269.7,188.6,264.1,194.5,262.1z"/>
</svg>

