<?xml version="1.0" encoding="utf-8"?>
<!-- Generator: Adobe Illustrator 27.9.0, SVG Export Plug-In . SVG Version: 6.00 Build 0)  -->
<svg version="1.0" id="Layer_1" focusable="false" xmlns="http://www.w3.org/2000/svg" xmlns:xlink="http://www.w3.org/1999/xlink"
	 x="0px" y="0px" viewBox="0 0 512 512" style="enable-background:new 0 0 512 512;" xml:space="preserve">
<path d="M131.8,112.6c-22.3,8.7-43.2,21.5-61.1,37.6c-19.6,17.6-35.8,39.3-47,63.1h75.6C106,172.7,117.1,138.4,131.8,112.6z
	 M92.5,298.5c0-15.2,0.7-31.1,2.2-47.2H10.5c-3.9,16.1-5.8,31.6-5.8,47.2c0,15.6,1.9,31.1,5.8,47.2h84.1
	C93.2,329.3,92.5,313.5,92.5,298.5z M23.8,383.7c11.3,23.8,27.4,45.4,47,63.1c17.9,16.1,38.8,28.9,61.1,37.6
	c-14.7-25.8-25.9-60.1-32.6-100.7H23.8z M204.2,99c-27.8,0-54.1,45.6-66.4,114.3h132.9C258.3,144.6,232,99,204.2,99z M313.7,251.3
	c1.4,16.1,2.2,32,2.2,47.2c0,15.2-0.7,31.1-2.2,47.2h84.1c3.9-15.7,5.8-31.6,5.8-47.2c0-15.5-1.9-31.4-5.8-47.2H313.7z M204.2,498
	c27.8,0,54.1-45.6,66.4-114.3H137.7C150,452.4,176.4,498,204.2,498z M276.5,484.4c22.3-8.7,43.2-21.5,61.1-37.6
	c19.6-17.6,35.8-39.3,47.1-63.1h-75.6C302.4,424.3,291.2,458.6,276.5,484.4z M507.2,38.6C477.4,13.5,443.3,2.7,404.5,7.8
	c-24.5,3.3-46.6,7.2-64.7,24.4c-18.1,17.2-25.1,37-18.6,62.2c0.8,3.2,0.7,5.9-0.7,8.9c-3.7,8.1-7,17.2-9.5,26.7
	c-10.9-6.9-22.6-12.8-34.6-17.5c14.7,25.8,25.9,60.1,32.6,100.7h75.6c-11.3-23.8-27.4-45.4-47-63.1c-3.7-3.3-7.6-6.5-11.5-9.6
	c5.5-22.6,16.8-42.5,33.9-59.5c10.1-10,21.3-18.3,35.4-21.9c1.4-0.4,3-0.3,5.7-0.6c-22.5,17.4-35.2,36.7-46.9,66.2
	c14.7,6,19.8,9.5,34.5,7.4c15.6-2.2,29.5-8.8,41.2-19c12.2-10.6,23.3-22.4,34.8-33.7c9.7-9.6,18.9-19.6,28.9-28.8
	c4.6-4.1,10.7-6.6,16.5-10C509.2,40.2,508.2,39.4,507.2,38.6z M275.6,251.3H132.7c-1.5,15.8-2.2,31.7-2.2,47.2
	c0,15.6,0.7,31.4,2.2,47.2h142.9c1.5-15.8,2.2-31.7,2.2-47.2C277.8,282.9,277.1,267.1,275.6,251.3z"/>
</svg>
