<?xml version="1.0" encoding="utf-8"?>
<!-- Generator: Adobe Illustrator 27.9.0, SVG Export Plug-In . SVG Version: 6.00 Build 0)  -->
<svg version="1.0" id="Layer_1" xmlns="http://www.w3.org/2000/svg" xmlns:xlink="http://www.w3.org/1999/xlink" x="0px" y="0px"
	 viewBox="0 0 716.4 193.5" style="enable-background:new 0 0 716.4 193.5;" xml:space="preserve">
<style type="text/css">
	.st0{fill:#166C42;}
	.st1{fill:#28493A;}
	.st2{fill:none;stroke:#28493A;stroke-width:2;stroke-miterlimit:10;}
</style>
<path class="st0" d="M476.4,146.8c2.8-2.7,5.9,0.8,8.8-0.7c0-1-1.8-0.9-1.5-2.2c1.7-0.7,3.7-0.4,5.3-2.1c-3.3-0.2-6.5,0.6-9.3-1.5
	c1.8,0,3.3,0,5.2,0c-1.5-1.2-3.5-0.8-4.4-2.4c0.8-1.6,2.7-1.1,3.9-2.1c-3.1-1.8-6.3-3.3-8.8-6.2c2.8,0.3,5.3,1.6,8.2,0.5
	c-3.2-4.3-8.2-6.1-12-10.3c3.2,1,5.7,2.9,8.9,1.3c-2.2-1.4-4.5-1.9-6-3.9c1.5-0.1,2.7,1.3,4.1,0.3c-2.4-2.7-5.3-4.7-7.9-7.1
	c1.7,0.5,3.1,1.8,5.2,0.9c-0.8-0.6-1.5-1.1-2.4-1.8c0.8-0.4,1.4-0.7,2.5-1.3c-3-0.7-5.2-1.2-6.6-3.3c1.3-0.6,2.5,0.7,3.6-0.3
	c-1.1-3.6-3.4-5.6-7.2-5.9c1.2-1.7,2.9-1.1,4.9-1.6c-2.2-0.5-1.5-2.2-2.1-3.6c-1,0.7-1.8,1.2-2.9,1.8c0.7-2.5-1.6-4.4,0.1-6.8
	c-1.8,0.3-1.6-1.3-2.7-1.7c-0.2,1.1-0.4,2.2-0.4,2.7c-0.7,1.3-1.7,0-2.1,1.1c0.1,0.9,0.3,1.8,0.5,2.8c-1.7,1.1-2.9,2.5-4,4
	c0.6,0.6,1.7,0.1,2,1.2c-2.6,2.3-5.6,4.2-7.4,7.5c2,0.3,3.8-0.9,5.9-1c-1.5,2-3.7,2.3-5.6,3.1c-0.4,1.1,0.6,0.9,1,1.3
	c-0.5,1.2-2.3,0.9-2.6,2.3c1,1,2-0.5,3.1,0c-0.5,1.7-3,1.7-3.4,3.6c1.8,0.4,2.5-1.8,4.3-1.6c-1,2.1-2.9,3.1-4.2,4.7
	c0.7,1,1.7-0.5,2.4,0.2c-0.9,2.4-3.3,2.8-5.6,4.2c3.4,1,5.8-0.2,8.1-1.6c0.5-0.4,0.7-1.2,1.6-1c-0.1,0.7-0.4,1.3-1.1,1.5
	c-3.6,3.4-8.6,5.1-11.8,9.2c2.1-1.5,3.9,0.7,5.8,0.3c0.2-0.5,0.6-0.6,2.4-0.1c-1,0.4-1.5,0.5-1.9,0.6c-2.3,1.9-4.9,3.6-6.6,6.2
	c2,0.5,4-0.3,6-0.6c-0.5,2-2.9,1.1-3.5,2.6c1.2,0.8,2.4-0.5,4.1,0.2c-4,3.1-8.6,0.8-13.1,2.2c2.6,1.8,5,1.7,7.4,1.9
	c0.4,1.4-2.2,0.9-1.4,2.6c4-0.5,8.1-1,12.7-1.5c-4.6,4-9.8,5.2-15.9,6.6c3,1.3,5.2,0.9,7.2,0.9c0.3,1.6-1.6,1.1-1.4,2.5
	c4.9,1.2,8.7-0.9,12.4-4.2c-0.2,2.5-3,3-2.7,5.4c1.5,0.3,2-1.3,3.1-1.5c0.3,0.5,0.7,0.9,1.1,1.5c0.9-0.7,1.7-1.4,2.9-2.4
	c0,3.5,0,6.2,0,9c1.6,0,3,0,4.3,0c1-2.7-0.4-5.4,0.4-8.1c2.2-0.3,4.3,1,6.5-0.1c-0.6-1.2-2.4-1.6-2.2-3.5c3.9,2.7,7.6,5,12.8,3.2
	c-0.8-0.6-1.3-0.9-2-1.4c2.2-0.6,4.3,0,6.2-1.7C484.1,150.2,479.8,149.4,476.4,146.8z"/>
<path class="st0" d="M534.4,146.8c2.8-2.7,5.9,0.8,8.8-0.7c0-1-1.8-0.9-1.5-2.2c1.7-0.7,3.7-0.4,5.3-2.1c-3.3-0.2-6.5,0.6-9.3-1.5
	c1.8,0,3.3,0,5.2,0c-1.5-1.2-3.5-0.8-4.4-2.4c0.8-1.6,2.7-1.1,3.9-2.1c-3.1-1.8-6.3-3.3-8.8-6.2c2.8,0.3,5.3,1.6,8.2,0.5
	c-3.2-4.3-8.2-6.1-12-10.3c3.2,1,5.7,2.9,8.9,1.3c-2.2-1.4-4.5-1.9-6-3.9c1.5-0.1,2.7,1.3,4.1,0.3c-2.4-2.7-5.3-4.7-7.9-7.1
	c1.7,0.5,3.1,1.8,5.2,0.9c-0.8-0.6-1.5-1.1-2.4-1.8c0.8-0.4,1.4-0.7,2.5-1.3c-3-0.7-5.2-1.2-6.6-3.3c1.3-0.6,2.5,0.7,3.6-0.3
	c-1.1-3.6-3.4-5.6-7.2-5.9c1.2-1.7,2.9-1.1,4.9-1.6c-2.2-0.5-1.5-2.2-2.1-3.6c-1,0.7-1.8,1.2-2.9,1.8c0.7-2.5-1.6-4.4,0.1-6.8
	c-1.8,0.3-1.6-1.3-2.7-1.7c-0.2,1.1-0.4,2.2-0.4,2.7c-0.7,1.3-1.7,0-2.1,1.1c0.1,0.9,0.3,1.8,0.5,2.8c-1.7,1.1-2.9,2.5-4,4
	c0.6,0.6,1.7,0.1,2,1.2c-2.6,2.3-5.6,4.2-7.4,7.5c2,0.3,3.8-0.9,5.9-1c-1.5,2-3.7,2.3-5.6,3.1c-0.4,1.1,0.6,0.9,1,1.3
	c-0.5,1.2-2.3,0.9-2.6,2.3c1,1,2-0.5,3.1,0c-0.5,1.7-3,1.7-3.4,3.6c1.8,0.4,2.5-1.8,4.3-1.6c-1,2.1-2.9,3.1-4.2,4.7
	c0.7,1,1.7-0.5,2.4,0.2c-0.9,2.4-3.3,2.8-5.6,4.2c3.4,1,5.8-0.2,8.1-1.6c0.5-0.4,0.7-1.2,1.6-1c-0.1,0.7-0.4,1.3-1.1,1.5
	c-3.6,3.4-8.6,5.1-11.8,9.2c2.1-1.5,3.9,0.7,5.8,0.3c0.2-0.5,0.6-0.6,2.4-0.1c-1,0.4-1.5,0.5-1.9,0.6c-2.3,1.9-4.9,3.6-6.6,6.2
	c2,0.5,4-0.3,6-0.6c-0.5,2-2.9,1.1-3.5,2.6c1.2,0.8,2.4-0.5,4.1,0.2c-4,3.1-8.6,0.8-13.1,2.2c2.6,1.8,5,1.7,7.4,1.9
	c0.4,1.4-2.2,0.9-1.4,2.6c4-0.5,8.1-1,12.7-1.5c-4.6,4-9.8,5.2-15.9,6.6c3,1.3,5.2,0.9,7.2,0.9c0.3,1.6-1.6,1.1-1.4,2.5
	c4.9,1.2,8.7-0.9,12.4-4.2c-0.2,2.5-3,3-2.7,5.4c1.5,0.3,2-1.3,3.1-1.5c0.3,0.5,0.7,0.9,1.1,1.5c0.9-0.7,1.7-1.4,2.9-2.4
	c0,3.5,0,6.2,0,9c1.6,0,3,0,4.3,0c1-2.7-0.4-5.4,0.4-8.1c2.2-0.3,4.3,1,6.5-0.1c-0.6-1.2-2.4-1.6-2.2-3.5c3.9,2.7,7.6,5,12.8,3.2
	c-0.8-0.6-1.3-0.9-2-1.4c2.2-0.6,4.3,0,6.2-1.7C542.1,150.2,537.8,149.4,534.4,146.8z"/>
<path class="st0" d="M592.4,146.8c2.8-2.7,5.9,0.8,8.8-0.7c0-1-1.8-0.9-1.5-2.2c1.7-0.7,3.7-0.4,5.3-2.1c-3.3-0.2-6.5,0.6-9.3-1.5
	c1.8,0,3.3,0,5.2,0c-1.5-1.2-3.5-0.8-4.4-2.4c0.8-1.6,2.7-1.1,3.9-2.1c-3.1-1.8-6.3-3.3-8.8-6.2c2.8,0.3,5.3,1.6,8.2,0.5
	c-3.2-4.3-8.2-6.1-12-10.3c3.2,1,5.7,2.9,8.9,1.3c-2.2-1.4-4.5-1.9-6-3.9c1.5-0.1,2.7,1.3,4.1,0.3c-2.4-2.7-5.3-4.7-7.9-7.1
	c1.7,0.5,3.1,1.8,5.2,0.9c-0.8-0.6-1.5-1.1-2.4-1.8c0.8-0.4,1.4-0.7,2.5-1.3c-3-0.7-5.2-1.2-6.6-3.3c1.3-0.6,2.5,0.7,3.6-0.3
	c-1.1-3.6-3.4-5.6-7.2-5.9c1.2-1.7,2.9-1.1,4.9-1.6c-2.2-0.5-1.5-2.2-2.1-3.6c-1,0.7-1.8,1.2-2.9,1.8c0.7-2.5-1.6-4.4,0.1-6.8
	c-1.8,0.3-1.6-1.3-2.7-1.7c-0.2,1.1-0.4,2.2-0.4,2.7c-0.7,1.3-1.7,0-2.1,1.1c0.1,0.9,0.3,1.8,0.5,2.8c-1.7,1.1-2.9,2.5-4,4
	c0.6,0.6,1.7,0.1,2,1.2c-2.6,2.3-5.6,4.2-7.4,7.5c2,0.3,3.8-0.9,5.9-1c-1.5,2-3.7,2.3-5.6,3.1c-0.4,1.1,0.6,0.9,1,1.3
	c-0.5,1.2-2.3,0.9-2.6,2.3c1,1,2-0.5,3.1,0c-0.5,1.7-3,1.7-3.4,3.6c1.8,0.4,2.5-1.8,4.3-1.6c-1,2.1-2.9,3.1-4.2,4.7
	c0.7,1,1.7-0.5,2.4,0.2c-0.9,2.4-3.3,2.8-5.6,4.2c3.4,1,5.8-0.2,8.1-1.6c0.5-0.4,0.7-1.2,1.6-1c-0.1,0.7-0.4,1.3-1.1,1.5
	c-3.6,3.4-8.6,5.1-11.8,9.2c2.1-1.5,3.9,0.7,5.8,0.3c0.2-0.5,0.6-0.6,2.4-0.1c-1,0.4-1.5,0.5-1.9,0.6c-2.3,1.9-4.9,3.6-6.6,6.2
	c2,0.5,4-0.3,6-0.6c-0.5,2-2.9,1.1-3.5,2.6c1.2,0.8,2.4-0.5,4.1,0.2c-4,3.1-8.6,0.8-13.1,2.2c2.6,1.8,5,1.7,7.4,1.9
	c0.4,1.4-2.2,0.9-1.4,2.6c4-0.5,8.1-1,12.7-1.5c-4.6,4-9.8,5.2-15.9,6.6c3,1.3,5.2,0.9,7.2,0.9c0.3,1.6-1.6,1.1-1.4,2.5
	c4.9,1.2,8.7-0.9,12.4-4.2c-0.2,2.5-3,3-2.7,5.4c1.5,0.3,2-1.3,3.1-1.5c0.3,0.5,0.7,0.9,1.1,1.5c0.9-0.7,1.7-1.4,2.9-2.4
	c0,3.5,0,6.2,0,9c1.6,0,3,0,4.3,0c1-2.7-0.4-5.4,0.4-8.1c2.2-0.3,4.3,1,6.5-0.1c-0.6-1.2-2.4-1.6-2.2-3.5c3.9,2.7,7.6,5,12.8,3.2
	c-0.8-0.6-1.3-0.9-2-1.4c2.2-0.6,4.3,0,6.2-1.7C600.1,150.2,595.8,149.4,592.4,146.8z"/>
<path class="st0" d="M650.4,146.8c2.8-2.7,5.9,0.8,8.8-0.7c0-1-1.8-0.9-1.5-2.2c1.7-0.7,3.7-0.4,5.3-2.1c-3.3-0.2-6.5,0.6-9.3-1.5
	c1.8,0,3.3,0,5.2,0c-1.5-1.2-3.5-0.8-4.4-2.4c0.8-1.6,2.7-1.1,3.9-2.1c-3.1-1.8-6.3-3.3-8.8-6.2c2.8,0.3,5.3,1.6,8.2,0.5
	c-3.2-4.3-8.2-6.1-12-10.3c3.2,1,5.7,2.9,8.9,1.3c-2.2-1.4-4.5-1.9-6-3.9c1.5-0.1,2.7,1.3,4.1,0.3c-2.4-2.7-5.3-4.7-7.9-7.1
	c1.7,0.5,3.1,1.8,5.2,0.9c-0.8-0.6-1.5-1.1-2.4-1.8c0.8-0.4,1.4-0.7,2.5-1.3c-3-0.7-5.2-1.2-6.6-3.3c1.3-0.6,2.5,0.7,3.6-0.3
	c-1.1-3.6-3.4-5.6-7.2-5.9c1.2-1.7,2.9-1.1,4.9-1.6c-2.2-0.5-1.5-2.2-2.1-3.6c-1,0.7-1.8,1.2-2.9,1.8c0.7-2.5-1.6-4.4,0.1-6.8
	c-1.8,0.3-1.6-1.3-2.7-1.7c-0.2,1.1-0.4,2.2-0.4,2.7c-0.7,1.3-1.7,0-2.1,1.1c0.1,0.9,0.3,1.8,0.5,2.8c-1.7,1.1-2.9,2.5-4,4
	c0.6,0.6,1.7,0.1,2,1.2c-2.6,2.3-5.6,4.2-7.4,7.5c2,0.3,3.8-0.9,5.9-1c-1.5,2-3.7,2.3-5.6,3.1c-0.4,1.1,0.6,0.9,1,1.3
	c-0.5,1.2-2.3,0.9-2.6,2.3c1,1,2-0.5,3.1,0c-0.5,1.7-3,1.7-3.4,3.6c1.8,0.4,2.5-1.8,4.3-1.6c-1,2.1-2.9,3.1-4.2,4.7
	c0.7,1,1.7-0.5,2.4,0.2c-0.9,2.4-3.3,2.8-5.6,4.2c3.4,1,5.8-0.2,8.1-1.6c0.5-0.4,0.7-1.2,1.6-1c-0.1,0.7-0.4,1.3-1.1,1.5
	c-3.6,3.4-8.6,5.1-11.8,9.2c2.1-1.5,3.9,0.7,5.8,0.3c0.2-0.5,0.6-0.6,2.4-0.1c-1,0.4-1.5,0.5-1.9,0.6c-2.3,1.9-4.9,3.6-6.6,6.2
	c2,0.5,4-0.3,6-0.6c-0.5,2-2.9,1.1-3.5,2.6c1.2,0.8,2.4-0.5,4.1,0.2c-4,3.1-8.6,0.8-13.1,2.2c2.6,1.8,5,1.7,7.4,1.9
	c0.4,1.4-2.2,0.9-1.4,2.6c4-0.5,8.1-1,12.7-1.5c-4.6,4-9.8,5.2-15.9,6.6c3,1.3,5.2,0.9,7.2,0.9c0.3,1.6-1.6,1.1-1.4,2.5
	c4.9,1.2,8.7-0.9,12.4-4.2c-0.2,2.5-3,3-2.7,5.4c1.5,0.3,2-1.3,3.1-1.5c0.3,0.5,0.7,0.9,1.1,1.5c0.9-0.7,1.7-1.4,2.9-2.4
	c0,3.5,0,6.2,0,9c1.6,0,3,0,4.3,0c1-2.7-0.4-5.4,0.4-8.1c2.2-0.3,4.3,1,6.5-0.1c-0.6-1.2-2.4-1.6-2.2-3.5c3.9,2.7,7.6,5,12.8,3.2
	c-0.8-0.6-1.3-0.9-2-1.4c2.2-0.6,4.3,0,6.2-1.7C658.1,150.2,653.8,149.4,650.4,146.8z"/>
<g>
	<polygon class="st1" points="269.4,71.4 269.4,71.5 269.4,71.4 	"/>
	<path class="st1" d="M269.4,71.4C269.4,71.4,269.4,71.4,269.4,71.4c0,0,0-0.1,0-0.1C269.4,71.3,269.4,71.4,269.4,71.4z"/>
	<polygon class="st1" points="390.3,60.8 390.3,60.8 390.3,60.8 	"/>
	<path class="st1" d="M390.3,60.8C390.3,60.8,390.3,60.8,390.3,60.8c0-0.1,0-0.1,0-0.1C390.3,60.7,390.3,60.7,390.3,60.8z"/>
	<path class="st1" d="M105.8,163.3c104.3,0,208.2,0,312.2,0c-0.6-36.7,0.8-73-2.2-109.3c-1.3,3.3-4.9,6.1-2.1,9.9
		c-3.3-0.8-2.3-3.6-4.6-4.6c-1.1,1.7-1.8,3.4-2.3,5.2c-3.7-7.2-7.5-14.5-8.2-24.1c-5.1,7-6.4,13.6-8.2,19.9c0.2-0.3,0.5-0.3,1-0.1
		c0.2,0.1,0.4,0.4,0.3,0.5c-1,2.7-1.9,5.3-2.9,8c-0.2-0.3-0.5-0.5-0.7-0.8c-0.8,0.4-1.3,0.8-1.6,1.3c-3.2-0.7-6.3-1.6-9-3.4
		c0.1-0.7,0.2-1.3,0.2-2c3.3-0.1,6.5-0.7,9.4-1.8c0.5-5-4.2-2.8-5.6-4.6c-2.9-3.1,0.7-4.2,2.2-6.6c-10.7,0.3-9.5-8.9-12-15
		c-3.6,3.3-2.8,7.2-3,10.5c-4.1,1.8-8.4,2.6-9.9,7.3c3.3,2.5,5.7-1.4,9.3-0.9c-1.3,1.3-0.6,3.3-3.1,3.9c-4.1-3.3-6.8-1.7-9.2,1.1
		c-2.3-1.7-5.5-2.5-6.1-5.7c0.6-1.5,3-0.3,3.4-2.4c-4.4-1.4-3.8-6.6-6.6-9.1c-3.6,2-1.3,4.7-0.9,6.5c-1.5,3.3-4.4,4.4-7.1,5.5
		c2.1,3.3,5.1,0.6,7.1,2c-0.1,5.5-7-0.7-7.4,4.3c1.3,2.7,5.1-0.2,6.4,3.3c-2.1,3.4-5.9,4.8-9.5,7.1c1,2.1-0.9,3.4-2,5
		c-1.9-2-2.6-4.4-4-6.1c-5.9,3.6-4.7,8.9-4.9,13.8c-2.6-1.5-5.4-2.7-8.3-3.4c-0.2-0.4-0.3-0.7-0.5-1.1c0.3-0.8,1.5-0.4,1.8-1.1
		c-0.5-1.8-3.3-1-3.6-3.7c3.3-1.2,7.1,0.8,10.2-1.1c-1.1-1.4-2.2-2.8-3.3-4.1c-2.3-1.5-5.8,2.5-7.6-1.4c1.9-2.3,5.1,0.5,6.6-1.9
		c-0.6-3.3-3.4-0.4-4.6-1.8c0.7-1.2,1.9-2.1,1.3-3.6c-1.1-0.3-2.1-0.6-3.1-0.9c0-3.1-0.7-5.7-2.6-7.7c-1.1,1.1-2.2,2.1-3.2,3
		c2.6,3-2.6,4.8-0.7,7.3c-2.6,1.4-4.6,2.5-6.9,3.7c2,1.4,3.2,3.2,5.6,2.5c-3.1,1.2-5.1,4-8.2,4c-0.7,5.8,5.9,1.5,6.7,5.3
		c-2.4,1.4-4.7,2.8-7.1,4.2c0,0,0.1,0,0.1,0c0,0-0.1,0.1-0.1,0.1c0,0.1,0,0.2,0,0.3c-0.2,0.3-0.4,0.6-0.5,0.9
		c-0.2-0.1-0.3-0.3-0.3-0.4c-1,0.9-2.2,1.6-3.1,2.6c-0.6-0.9-0.4-2.3-1.9-2.5c-3.2,1.4-1.3,4.9-4.4,6.1c0.6,0.9,3.4,0.2,1.9,2.1
		c-3.2,2-2-1.8-3.8-1.9c-0.6,0.5-1,1-1.3,1.5c-0.8-0.7-1.5-1.3-2.2-1.9c0,0,0,0,0,0c0,0,0,0,0,0l0,0c-0.1-0.1-0.2-0.1-0.3-0.2
		c0,0-0.1-0.1-0.1-0.1c-0.2-0.1-0.4-0.3-0.5-0.4c0,0-0.1-0.1-0.1-0.1c0-0.1-0.1-0.1-0.1-0.2c0,0,0,0,0,0c0-0.1,0-0.2,0-0.3
		c0.1-0.2,0.4-0.4,0.9-0.7c0.3-0.2,0.6-0.4,0.9-0.7c-2-2.5-2.6-5.4-3-8.4c1.9-0.3,3.4,1.8,4.9-0.3c-3.2-6.4-6.8-12.7-7.4-21.3
		c-4.3,5.9-5.4,11.5-6.9,16.8c0.1-0.3,0.4-0.3,0.8-0.1c0.1,0.1,0.3,0.3,0.3,0.4c-1.8,5-3.7,10-5.6,15.3c2.4-0.3,2.7-2.5,3.9-3.3
		c-1.9,5.2-2.8,10.7-4.4,16.1c-0.3-0.2-0.7-0.5-1.1-0.7c-1.4,3.2-2,6.4-5.7,8.4c0.1-0.8,0-1.6,0-2.3c0.2-0.1,0.3-0.2,0.5-0.3
		c-0.2-0.2-0.4-0.4-0.6-0.6c-0.2-1.7-0.7-3.4-1.1-5.1c0.9-0.6,1.7-1.4,2.3-2.3c-1.1-0.6-2.2-1.3-3.3-1.9c0-0.1-0.1-0.2-0.1-0.3
		c0,0.1-0.1,0.1-0.1,0.2c-3.1-1.8-6.2-3.6-9.8-4.3c-0.3-1.8,1.3-1.1,1.6-1.8c-0.4-1.5-2.8-0.9-3.1-3.2c2.8-1,6.1,0.6,8.8-1
		c-0.9-1.2-1.9-2.4-2.8-3.6c-2-1.3-5,2.2-6.5-1.2c1.6-2,4.4,0.4,5.7-1.6c-0.5-2.8-2.9-0.3-4-1.6c0.6-1,1.6-1.8,1.1-3.1
		c-0.9-0.3-1.8-0.5-2.7-0.7c0-2.6-0.6-4.9-2.2-6.7c-1,0.9-1.9,1.8-2.7,2.6c2.3,2.6-2.3,4.1-0.6,6.2c-2.2,1.2-4,2.2-5.9,3.2
		c1.7,1.2,2.8,2.8,4.8,2.1c-2.7,1.1-4.4,3.5-7.1,3.5c-0.6,5,5.1,1.3,5.8,4.6c-2.1,1.2-4.1,2.4-6.1,3.6c0,0,0.1,0,0.1,0
		c0,0-0.1,0.1-0.1,0.1c0,0.4,0,0.8,0.1,1.3c-0.4-0.2-0.7-0.5-0.8-0.6c-2,1.7-4.7,3-3.9,6.7c1,0.2,1.9,0.2,2.8,0.1
		c-0.3,2.4-0.5,4.6-3.7,5.8c0.3,0.6,0.9,0.7,1.4,0.8c0.2,0.4,0.4,0.7,0.5,1c-1.6,0.6-3.1,1.1-4.4,1.6c-4.3-1.4,0.6-6.1-4.4-7
		c-0.1,0.2-0.3,0.4-0.4,0.6c-2.5-2.7-6.8-4.3-6.1-9.3c-1-0.9-3.2-0.3-4.2-2.1c0.1-4.7,4.6-1.9,6.7-3.8c-1.6-2.3-5.2-2.4-5.8-5.5
		c0.5-1.1,2.3-0.2,2.7-1.8c-3.4-1.1-2.9-5.1-5.1-7.1c-2.8,1.6-1,3.6-0.7,5.1c-1.2,2.5-3.4,3.4-5.5,4.3c1.6,2.6,3.9,0.4,5.5,1.6
		c-0.1,4.3-5.4-0.6-5.8,3.3c1,2.1,4-0.1,4.9,2.6c-1.4,2.4-4,3.5-6.5,5c-0.4-0.6-0.9-1.3-1.5-1.9c-1,2.7-1.4,5-3.6,6.7
		c-0.2-0.1-0.5-0.3-0.7-0.4c-0.5-0.7-0.9-1.2-1.2-1.7c-0.3,0.2-0.6,0.4-0.8,0.6c-1.7-0.9-3.5-1.6-5.5-2c-0.2-1.6,1.1-1,1.4-1.6
		c-0.4-1.4-2.5-0.8-2.8-2.9c2.5-0.9,5.5,0.6,8-0.9c-0.9-1.1-1.7-2.1-2.5-3.2c-1.8-1.1-4.5,2-5.9-1.1c1.5-1.8,3.9,0.4,5.2-1.5
		c-0.5-2.6-2.6-0.3-3.6-1.4c0.5-0.9,1.5-1.6,1-2.8c-0.8-0.2-1.6-0.5-2.4-0.7c0-2.4-0.5-4.4-2-6c-0.9,0.8-1.7,1.6-2.5,2.3
		c2.1,2.3-2.1,3.7-0.5,5.6c-2,1.1-3.6,1.9-5.4,2.9c1.6,1.1,2.5,2.5,4.4,1.9c-0.5,0.2-1,0.5-1.4,0.8c0-0.1-0.1-0.1-0.1-0.2
		c-0.1,0.1-0.2,0.3-0.3,0.4c-1.5,1-2.8,2.1-4.5,2.1c-0.2,1.9,0.5,2.4,1.5,2.6c-0.6,0.9-1.2,1.9-1.8,2.8c0.9,0.1,1.6,0.4,2.1,0.8
		c-0.7,0.4-1.4,0.8-2.1,1.2c0,0,0.1,0,0.1,0c0,0-0.1,0.1-0.1,0.1c0,0.4,0,0.7,0.1,1.2c-0.4-0.2-0.6-0.4-0.7-0.6
		c-0.8,0.7-1.7,1.2-2.4,2c0.9-2.3-0.7-4.1-2.2-5.9c-3.1,1.7-1.3,4.9-2.2,7.4c0-0.3,0-0.6,0-0.9c-2.6-1-2.7-3.9-4.5-6
		c1.6-1.1,1.9-2.8,2.2-4.3c-3.2-3.9-2.1-9.1-4.5-13.2c0.1,3.7-1,7.2-2,10.7c-0.3-1.9-0.4-3.9-0.2-6c-4.7,3.2-4.3,7.1-4.2,10.8
		c-3.6,0.1-2.4-2.8-4.8-3.7c-1.5,2.1-3,4.2-4.4,6.3c0.4,1.2,2.9,0.1,2.5,2.1c-1.3,0.4-2.7,0.9-3.5,1.2c0.3-1.2,0-2.1-0.6-3
		c0.5,0.1,1,0.1,1.5,0.1c-1.7-1.3-3.1-2.4-4.5-3.6c-0.1-0.1-0.2-0.2-0.2-0.3c0,0,0,0,0,0c-0.3-0.2-0.5-0.4-0.8-0.6
		c1.5-0.6,2.8,1,3.9-0.4c-2.4-2.4-6.9-3.3-6.6-8.1c0.8,0.1,1.3,0.2,1.9,0.3l0.1-0.1c0,0,0.1-0.1,0.1-0.1l0.1-0.1
		c-2-1.8,1.4-2.3,0.7-3.8c-1.4-5.1-7.4-8.8-4.4-15.5c-1.5-1.4-2.8-3.2-3.1-5.2c-5.8,4.4-4.6,12.6-10.3,18.1c1.4-0.4,1.8-0.5,2.3-0.6
		c0.4-0.2,0.8-0.3,1.2-0.5c0.3,0.8,0.1,1.1-0.5,1.3c-1.4,3.6-2.7,7.3-4.2,11.2c-0.1,0-0.1-0.1-0.2-0.1c-1.7,1.1-1.9,2.6-2,4.2
		c-2.3-7.6-3.5-15.3-3.9-23c2-1.3,2.4,1.5,3.8,0.4c-1-3.8-4.8-6.8-3.1-11.2c-2.2-2-4.1-4.1-5.5-6.9c1.6,2.8-2.4,3.6-1.8,6.5
		c1.3,6.6-0.6,12.9-3.7,18.9c-4.7-2.7-9.5-5.8-15-6.9c-0.3-2.3,1.6-1.4,2-2.3c-0.5-2-3.6-1.1-4-4.1c3.7-1.3,7.9,0.8,11.4-1.3
		c-1.2-1.5-2.4-3.1-3.7-4.6c-2.6-1.6-6.5,2.8-8.4-1.5c2.1-2.6,5.7,0.6,7.4-2.1c-0.7-3.7-3.8-0.4-5.1-2.1c0.8-1.3,2.1-2.3,1.4-4.1
		c-1.2-0.3-2.3-0.6-3.5-1c0-3.4-0.7-6.3-2.9-8.6c-1.3,1.2-2.5,2.3-3.6,3.3c3,3.4-2.9,5.3-0.7,8.1c-2.9,1.5-5.1,2.8-7.7,4.2
		c2.2,1.6,3.6,3.6,6.3,2.8c-3.5,1.4-5.7,4.5-9.1,4.5c-0.8,6.2,5.9,2.1,7.3,5.4c-0.3,0.3-0.5,0.7-0.7,1.1c-1,0.6-2,1.2-3,1.8
		c-0.7-1-1.4-2-2.2-3.1c-1.7,2.4-2.9,4.3-4.2,6.2c-0.1,0.1-0.1,0.2-0.1,0.2c0-0.1,0-0.2,0.1-0.3c-0.4,0.1-0.8,0.2-1.2,0.4
		c-1.9-0.9-4.3-0.7-5.3-3c-0.7-0.1-1.4-0.3-2.1-0.4c-0.7-0.1-1.4-0.3-2.2-0.4c-0.1-0.2-0.3-0.5-0.5-0.7c0.7-0.4,1.3-0.8,1.9-1.1
		c0-0.1-0.1-0.2-0.1-0.3c0.9,0.3,1.7,0.7,2.5,1.1c0.5,0.3,1,0.6,1.5,1c3.1,0.6,5-1.2,6.3-3c-4.2-2.3-8.4-5.3-13.3-6.3
		c-0.3-1.8,1.3-1.1,1.6-1.8c-0.4-1.5-2.8-0.9-3.1-3.2c2.8-1,6.1,0.6,8.8-1c-0.9-1.2-1.9-2.4-2.8-3.6c-2-1.3-5,2.2-6.5-1.2
		c1.6-2,4.4,0.4,5.7-1.6c-0.5-2.8-2.9-0.3-4-1.6c0.6-1,1.6-1.8,1.1-3.1c-0.9-0.3-1.8-0.5-2.7-0.7c0-2.6-0.6-4.9-2.2-6.7
		c-1,0.9-1.9,1.8-2.7,2.6c2.3,2.6-2.3,4.1-0.6,6.2c-2.2,1.2-4,2.2-5.9,3.2c1.7,1.2,2.8,2.8,4.8,2.1c-2.7,1.1-4.4,3.5-7.1,3.5
		c-0.6,5,5.1,1.3,5.8,4.6c-2.1,1.2-4.1,2.4-6.1,3.6c0,0,0.1,0,0.1,0c0,0-0.1,0.1-0.1,0.1c0,0.4,0,0.8,0.1,1.3
		c-0.4-0.2-0.7-0.5-0.8-0.6c-2,1.7-4.7,3-3.9,6.7c4.9,1,7.6-2.9,11.3-4.9c0.7,0.7,2.4,0,2.9,2.3c-4.1,2.4-7.7,5.8-12.4,7.8
		c-0.1-1.7-0.1-3.4-1.9-4.5c-2.4,2.3,0,5-1.3,7.7c-1.6-1.4-1.7-3.4-4-3.9c-1.2,1.9-2.2,3.6-3.4,5.4c0.9,0.9,1.8,1.8,2.7,2.7
		c-0.7,0-1.4,0.1-2.1,0.1c-0.4,11.1-0.6,22.1-0.6,33.2c-0.2,0.1-0.4,0.2-0.6,0.3c0.2,0.1,0.4,0.1,0.6,0.2c-0.1,16.7,0.1,33.4,0,50
		c28.5,0,57,0,85.4,0c0.1,0.3,0.1,0.6,0.2,0.9C105,163.9,105.4,163.6,105.8,163.3z M100.4,77.6c0,2.8-2.1,4.5-4.1,6.3
		c-0.3-1.1-0.6-2.2-1.1-3.2C97.5,80.5,99.1,79.2,100.4,77.6z M116.9,88.5c0.1,0,0.3,0.1,0.5,0.2c-0.1,0.4-0.3,0.9-0.4,1.3
		C117,89.4,117,88.9,116.9,88.5z M99.8,94.3c-0.2,0.2-0.5,0.4-0.7,0.6c-0.6-1.3-1-2.6-1.3-3.9c0.6,0,1.2,0,1.8,0
		c-0.1-1.2-0.7-1.8-1.3-2.2c0.7-0.5,1.3-1,1.8-1.6c0.1-0.1,0.2-0.1,0.3-0.2c0,0,0,0,0-0.1c0.3-0.3,0.5-0.7,0.7-1
		C100.5,88.6,101,91.6,99.8,94.3z M130.3,95.3c0-0.1-0.1-0.2-0.1-0.3c0.1,0,0.2-0.1,0.3-0.1C130.5,95,130.4,95.2,130.3,95.3z
		 M234,105.5c1.9,2.2,2.9-0.5,4.6-0.8c0,0.4,0,0.7,0,1c-1.3,0.7-2.8,1-4.1,1.3c-0.3-0.2-0.6-0.3-0.8-0.5
		C233.7,106.2,233.9,105.9,234,105.5z M232.3,109.7C232.3,109.7,232.3,109.7,232.3,109.7L232.3,109.7z M232.4,109.6
		C232.4,109.7,232.4,109.7,232.4,109.6L232.4,109.6z M185.7,112c0.1-0.1,0.1-0.1,0.2-0.2c0.4,0.1,0.6,0.3,0.7,0.5
		C186.4,112.2,186.1,112.1,185.7,112z M200.6,105.4c0,0.1,0,0.1,0.1,0.2C200.6,105.5,200.6,105.4,200.6,105.4z M187.3,104
		c-0.1,0-0.2,0-0.3,0c-0.6-0.1-1.3-0.3-2-0.4c-0.1-0.1-0.2-0.3-0.3-0.4C186.1,103.1,186.8,103.5,187.3,104z M177.8,100.4
		c0-0.1-0.1-0.2-0.1-0.3c0,0,0,0,0-0.1C177.7,100.2,177.7,100.3,177.8,100.4z M260.1,112.7c-0.1-0.4-0.2-0.8-0.4-1.2
		c0.3-0.1,0.5-0.1,0.8-0.2c0.2,0.4,0.4,0.7,0.7,1.1C260.8,112.5,260.4,112.6,260.1,112.7z M300.9,89.1c0-0.1,0-0.1,0-0.2
		c0.4,0,0.9,0,1.3,0c0,0.1,0,0.1,0,0.2C301.8,89.1,301.3,89.1,300.9,89.1z M364.5,76.7c-0.6,0.5-1.1,1-1.7,1.4
		c-0.6-0.2-1.1-0.3-1.7-0.5c-0.1-0.6,0-0.9,0.3-1c0.1-0.1,0.3-0.1,0.5-0.2c0.7-0.1,1.6,0,1.6-0.4c0,0-0.1-0.1-0.1-0.1
		c0.7-0.3,1.4-0.5,2.2-0.7C365.1,75.5,364.7,76.1,364.5,76.7z M316.6,87.8c0.3-0.5,0.6-0.9,0.8-1.4c0.4,0.1,0.8,0.2,1.2,0.4
		C318.3,87.3,317.7,87.7,316.6,87.8z M294.1,92.3c-0.5,0-0.9,0-1.4,0c0-0.2,0-0.4,0-0.6c0.5,0.1,1,0.1,1.5,0.2
		C294.2,92.1,294.2,92.2,294.1,92.3z M406.3,66.5c-0.6,2.5-1.2,5-2.4,7.5c-0.5-0.8-0.8-1.7-1.1-2.6c-0.1-1.6-0.4-3.1-1.1-4.5
		c-0.1-0.3-0.1-0.6-0.2-1C403.3,65.6,404.9,67.2,406.3,66.5z M374.4,61.5c0-0.3,0.1-0.6,0.5-1c0,0,0.1,0,0.1,0
		c0-0.8-1.2-1.5-0.4-2.5c0.1-0.1,0.3-0.3,0.5-0.5c1.4-0.4,2.1,0.6,2.6,2c-0.1,0.2-0.1,0.4-0.2,0.5c-0.4,0.6-1.1,0.4-1.7,0.3
		c-0.1-0.1-0.2-0.2-0.4-0.3c-0.1,0.1-0.1,0.2-0.2,0.3c-0.1,0-0.1,0-0.2,0c0,0.1,0,0.1,0,0.2c0,0,0,0,0,0c0,0,0,0.1,0,0.1
		c-0.1,0.2-0.2,0.4-0.3,0.6C374.7,61.5,374.6,61.5,374.4,61.5c0,0.1,0.1,0.2,0.1,0.4c-0.3,0.7-0.5,1.4-0.7,2
		c-0.6-0.1-1.1-0.6-1.3-1.4C372.3,61,373.6,61.6,374.4,61.5z M353.8,60c0,0-0.1,0.1-0.1,0.1c4,2.8,8.7-0.5,12.6,1.2
		c1,3.3-7.6,1.5-2.3,6.2c-3.4,1-6.7,1.8-9.7,3.1c-0.1-1-0.2-2-0.6-3.1c0-0.3,0-0.6,0.1-1c-0.2-0.1-0.3-0.2-0.5-0.3
		c-0.6-1.6-1.6-3.4-3.1-5.3c0.1,1.6,0.1,3,0,4.5c-0.7-0.3-1.4-0.7-1.9-1.6C348.5,59.8,351.3,60.2,353.8,60z M346,72.8l-0.2-0.2
		c0,0,0.3,0,0.3,0c0.3,3.1-5.6,3-3.9,6.5c-0.3,0.2-0.7,0.3-1.1,0.4c0-1.5,0.1-2.9-1-4C342.1,74.6,344.1,73.7,346,72.8z M332.1,76.2
		c-0.1,0.7,0.1,1.5,0.6,2.5c1.6-0.7,3.1-1.4,4.7-2.1c-0.8,1.5-0.9,3.3,0.8,6.1c-4.2-1.7-6.5-2.6-8.8-3.5
		C330.1,77.9,331.1,77,332.1,76.2z M306.2,69.1c2.3,0.7,0.6,1.9,0.5,2.9c0,0,0.1,0,0.1,0l-0.1,0.1c0,0,0.1-0.1,0.1-0.1
		c0.2,0.1,0.3,0.2,0.4,0.4c1.2,0.6,2.8,1,1,2.9c-0.2,0-0.3,0-0.5-0.1c-1.7-0.4-0.2-2-0.5-2.8c-0.2-0.1-0.3-0.2-0.5-0.3
		c0,0,0-0.1,0-0.1c-0.7-0.1-1.4-0.3-2-0.4C304.4,70.1,305.1,69.5,306.2,69.1z M304.6,82.9C304.6,82.9,304.6,82.9,304.6,82.9
		c-1.2,1.4-2.3,2.8-3.5,4.2c-0.5-0.3-0.9-0.7-1.1-1.1C301.5,85,303,83.8,304.6,82.9z M279.1,87.5c1.1,1.3,2.2,1.9,3.6,2.2
		c-0.5,1.3-0.3,2.7,0.6,4.3c-0.7,0.3-1.2,0.9-1.6,1.5C279.7,93.6,277.1,91.8,279.1,87.5z M259.6,108.9c-2.1,1.6-2.8,0.3-3.9-1.5
		c0.6,0,1.3,0,1.9,0C258.6,107.6,259.2,108,259.6,108.9z M246.1,96.6c0,0,0.1-0.1,0.1-0.1C246.1,96.6,246.1,96.6,246.1,96.6
		c1.7,0.4,3.4,1,4.9,1.8c0.5,0.3,1,0.6,1.5,1c0.5,0.1,1,0.1,1.5,0.1c0,0.9,0,1.9-0.1,2.9c-1-0.3-1.9-0.9-2.4-2
		c-0.4-0.1-0.7-0.1-1.1-0.2c-0.3-0.1-0.5-0.2-0.8-0.3c0,0,0,0.1-0.1,0.1c0,0-0.1,0-0.1,0c-0.7-0.1-1.4-0.3-2.2-0.4
		C246.6,98.6,245.5,98,246.1,96.6C246.1,96.7,246.1,96.7,246.1,96.6C246.1,96.7,246.1,96.7,246.1,96.6
		C246.1,96.6,246.1,96.6,246.1,96.6c-1,1.3-1.2,0-1.7-0.6C245.3,95.5,245.8,95.8,246.1,96.6z M245.8,105.3c-0.1,0-0.1,0.1-0.1,0.1
		c1.2,1.2,3.4,1.4,2.9,3.6c-0.1,0-0.1,0-0.2,0c-1.5-0.5-2.8-1-4-1.8c-0.7-0.7-1.4-1.6-2.2-2.2c-0.3-0.6-0.6-1.2-0.8-1.9
		C242.8,103.9,244.3,104.6,245.8,105.3z M237.6,82c2,0.6,0.5,1.6,0.4,2.5c0,0,0,0,0.1,0l-0.1,0.1c0,0,0.1-0.1,0.1-0.1
		c0.2,0.1,0.3,0.2,0.4,0.3c1,0.5,2.4,0.9,0.8,2.5c-0.2,0-0.3,0-0.4-0.1c-1.5-0.4-0.1-1.7-0.4-2.4c-0.2-0.1-0.3-0.2-0.4-0.3
		c0,0,0-0.1,0-0.1c-0.6-0.1-1.2-0.2-1.7-0.3C236.1,82.9,236.7,82.4,237.6,82z M236.3,93.9c0.7,0.7,2.4,0,2.9,2.3
		c-2.3,1.3-4.4,3-6.7,4.5c-0.6-0.3-1.2-0.6-1.2-1.3c1-1.1,1.1-1.9,0.8-2.7C233.4,95.9,234.8,94.8,236.3,93.9z M215.6,103.7
		c-0.3,0.9-0.3,1.8,0.3,2.9c-1.5,0.1-2.7-0.1-3.8-0.4c-1-0.6-2-1.2-3-2c0.1-0.7,0.6-1.1,1.2-1.4
		C212.1,103.2,213.8,103.9,215.6,103.7z M204.5,97.1l-0.1-0.1c0,0,0.2,0,0.2,0c0.2,2.4-4.4,2.3-3,5c-0.5,0.4-1.3,0.2-1.8,0.5
		c-0.2-1-0.4-2-0.7-2.9C200.9,98.7,202.7,97.9,204.5,97.1z M184.1,101C184.1,101,184.1,101,184.1,101C184.1,101,184.1,101,184.1,101
		c0.9,0.2,1.7,0.5,2.5,0.8c-0.4,0.5-1,1-1.9,1.4C184.2,102.5,183.7,102,184.1,101C184.1,101,184.1,101,184.1,101
		C184.1,101,184.1,101.1,184.1,101C184.1,101,184.1,101,184.1,101c-0.9,1.2-1.1,0-1.5-0.5C183.4,100,183.8,100.3,184.1,101z
		 M178.2,92.4c-0.3-0.6-0.6-1.2-0.9-1.8c0-0.1,0-0.1,0-0.2c-0.1,0-0.1-0.1-0.1-0.1c0-0.1-0.1-0.1-0.1-0.2c0.1,0.1,0.2,0.2,0.3,0.3
		C178.1,90.8,179.3,91.1,178.2,92.4z M176.5,87.8c1.7,0.5,0.6,1.4,0.4,2.1c-0.4-0.6-0.8-1.1-1.2-1.7C175.9,88.1,176.2,88,176.5,87.8
		z M133.2,92.3c-0.4,0.5-0.8,0.9-1.1,1.3c-0.1-0.8-1-1.3-1.6-1.9c0,0,0,0,0,0C131.5,91.6,132.4,91.9,133.2,92.3z M118.3,85.5
		c-0.5,1.6-0.7,2.4-0.9,3.1c0,0,0,0,0,0.1c0,0,0,0,0-0.1c0,0,0,0,0,0C117.1,87.8,116.9,87,118.3,85.5z M110.4,91.9
		C110.4,91.9,110.4,91.9,110.4,91.9C110.4,91.9,110.4,91.9,110.4,91.9C110.4,91.9,110.4,91.9,110.4,91.9z M100.2,75.9
		c0.4-0.3,0.8-0.5,1.3-0.8c0.2,0.3,0.4,0.5,0.6,0.8c0,0,0,0,0,0c-0.1-0.3-0.3-0.5-0.3-0.7c-0.3-0.8-0.1-1.6,0.7-2.4
		c0.9,1.2-0.6,2.1-0.3,3.2l0,0.1c0,0,0,0,0,0c0,0,0,0-0.1-0.1C101.4,75.9,100.8,76.4,100.2,75.9C100.2,75.9,100.2,75.9,100.2,75.9
		c0,0-0.1-0.1-0.1-0.1C100.1,75.8,100.1,75.8,100.2,75.9z M100.1,76c0,0.1,0,0.2,0.1,0.2c0,0-0.1,0-0.1-0.1L100.1,76z M92,80
		c-0.2,0.6-0.5,1.3-1,1.8c-0.4-0.1-0.8-0.2-1.2-0.2c0.4-0.8,0.6-1.6,0.5-2.4c0.2,0.1,0.5,0.2,0.7,0.4C91.4,79.6,91.7,79.8,92,80z
		 M84.7,77.1c0,0,0.1-0.1,0.1-0.1C84.8,77,84.8,77,84.7,77.1c0.5,0.1,0.9,0.3,1.4,0.4c-0.2,0.7-0.6,1.4-1,2
		C84.6,78.8,84.3,78.1,84.7,77.1C84.8,77.1,84.7,77.1,84.7,77.1C84.7,77.1,84.7,77.1,84.7,77.1C84.7,77.1,84.7,77.1,84.7,77.1
		c-1.3,1.7-1.6,0.1-2.2-0.8C83.8,75.6,84.4,76,84.7,77.1z M74.1,77.7c-0.2-0.4,0-1,0.6-1.8c0.2-0.1,0.5-0.3,0.7-0.5
		c0.2,0.3,0.3,0.7,0.4,1.2C75.2,76.9,74.6,77.3,74.1,77.7z M33.1,80.5C32,81.1,31,81.9,30,81.2C31.1,80.9,32.1,80.6,33.1,80.5
		C33.1,80.5,33.1,80.5,33.1,80.5z M41.1,72.9c0.2-0.1,0.3-0.1,0.5-0.2c0,0,0,0.1,0,0.1C41.4,72.9,41.3,72.9,41.1,72.9z M73.8,58.1
		c2.6,0.8,0.7,2.1,0.6,3.2c0,0,0.1,0,0.1,0l-0.1,0.1c0,0,0.1-0.1,0.1-0.1c0.3,0.1,0.4,0.3,0.5,0.5c1.3,0.7,3.2,1.1,1.1,3.2
		c-0.2,0-0.4,0-0.5-0.1c-1.9-0.5-0.2-2.2-0.6-3.2c-0.2-0.1-0.4-0.2-0.5-0.3c0,0,0-0.1,0-0.1c-0.8-0.2-1.5-0.3-2.3-0.4
		C71.8,59.3,72.6,58.6,73.8,58.1z M60.8,71.6c0,0.3,0.3,0.4,0.6,0.5c-0.1,0.1-0.2,0.2-0.4,0.3c-0.1-0.1-0.2-0.2-0.3-0.3
		C60.8,71.9,60.8,71.7,60.8,71.6z M57.9,72.6c-0.2,0.2-0.4,0.3-0.6,0.5c-0.6-0.2-1.2-0.6-1.4-1.6C56.7,71.9,57.3,72.3,57.9,72.6z
		 M41.9,55.3c-1.5-0.4-0.1-1.7-0.4-2.4c-0.2-0.1-0.3-0.2-0.4-0.3c0,0,0-0.1,0-0.1c-0.6-0.1-1.2-0.2-1.7-0.3
		c-0.3-1.2,0.4-1.8,1.3-2.1c2,0.6,0.5,1.6,0.4,2.5c0,0,0,0,0.1,0L41,52.6c0,0,0.1-0.1,0.1-0.1c0.2,0.1,0.3,0.2,0.4,0.3
		c1,0.5,2.4,0.9,0.8,2.5C42.2,55.4,42,55.3,41.9,55.3z"/>
</g>
<path class="st0" d="M699,155.2V99c-0.4-0.1-0.7-0.1-1.1-0.2c0.3-0.5,0.7-0.8,1.1-0.9v-3.2c-0.4,0.2-0.8,0.5-1.2,0.8
	c0.7-2.5-1.6-4.4,0.1-6.8c-1.8,0.3-1.6-1.3-2.7-1.7c-0.2,1.1-0.4,2.2-0.4,2.7c-0.7,1.3-1.7,0-2.1,1.1c0.1,0.9,0.3,1.8,0.5,2.8
	c-1.7,1.1-2.9,2.5-4,4c0.6,0.6,1.7,0.1,2,1.2c-2.6,2.3-5.6,4.2-7.4,7.5c2,0.3,3.8-0.9,5.9-1c-1.5,2-3.7,2.3-5.6,3.1
	c-0.4,1.1,0.6,0.9,1,1.3c-0.5,1.2-2.3,0.9-2.6,2.3c1,1,2-0.5,3.1,0c-0.5,1.7-3,1.7-3.4,3.6c1.8,0.4,2.5-1.8,4.3-1.6
	c-1,2.1-2.9,3.1-4.2,4.7c0.7,1,1.7-0.5,2.4,0.2c-0.9,2.4-3.3,2.8-5.6,4.2c3.4,1,5.8-0.2,8.1-1.6c0.5-0.4,0.7-1.2,1.6-1
	c-0.1,0.7-0.4,1.3-1.1,1.5c-3.6,3.4-8.6,5.1-11.8,9.2c2.1-1.5,3.9,0.7,5.8,0.3c0.2-0.5,0.6-0.6,2.4-0.1c-1,0.4-1.5,0.5-1.9,0.6
	c-2.3,1.9-4.9,3.6-6.6,6.2c2,0.5,4-0.3,6-0.6c-0.5,2-2.9,1.1-3.5,2.6c1.2,0.8,2.4-0.5,4.1,0.2c-4,3.1-8.6,0.8-13.1,2.2
	c2.6,1.8,5,1.7,7.4,1.9c0.4,1.4-2.2,0.9-1.4,2.6c4-0.5,8.1-1,12.7-1.5c-4.6,4-9.8,5.2-15.9,6.6c3,1.3,5.2,0.9,7.2,0.9
	c0.3,1.6-1.6,1.1-1.4,2.5c4.9,1.2,8.7-0.9,12.4-4.2c-0.2,2.5-3,3-2.7,5.4c1.5,0.3,2-1.3,3.1-1.5c0.3,0.5,0.7,0.9,1.1,1.5
	c0.9-0.7,1.7-1.4,2.9-2.4c0,3.5,0,6.2,0,9c1.6,0,3,0,4.3,0C699.6,160.6,698.2,157.8,699,155.2C699,155.2,699,155.2,699,155.2z"/>
<line class="st2" x1="18" y1="176" x2="699" y2="176"/>
</svg>
