<?xml version="1.0" encoding="utf-8"?>
<!-- Generator: Adobe Illustrator 27.9.0, SVG Export Plug-In . SVG Version: 6.00 Build 0)  -->
<svg version="1.0" id="Layer_1" xmlns="http://www.w3.org/2000/svg" xmlns:xlink="http://www.w3.org/1999/xlink" x="0px" y="0px"
	 viewBox="0 0 749.4 348.5" style="enable-background:new 0 0 749.4 348.5;" xml:space="preserve">
<style type="text/css">
	.st0{fill:none;stroke:#000000;stroke-width:0.5;stroke-miterlimit:10;}
	.st1{fill:none;stroke:#000000;stroke-width:0.5;stroke-miterlimit:10;stroke-dasharray:4.964,4.964;}
	.st2{enable-background:new    ;}
	.st3{fill:#606161;}
	.st4{fill:#E8BA3A;}
	.st5{fill:#31638F;}
	.st6{fill:#E97B2E;}
	.st7{fill:#7D9B43;}
</style>
<g>
	<g>
		<line class="st0" x1="35.3" y1="96" x2="35.3" y2="98.5"/>
		<line class="st1" x1="35.3" y1="103.5" x2="35.3" y2="309.5"/>
		<line class="st0" x1="35.3" y1="312" x2="35.3" y2="314.5"/>
	</g>
</g>
<g>
	<g>
		<line class="st0" x1="86.8" y1="96" x2="86.8" y2="98.5"/>
		<line class="st1" x1="86.8" y1="103.5" x2="86.8" y2="309.5"/>
		<line class="st0" x1="86.8" y1="312" x2="86.8" y2="314.5"/>
	</g>
</g>
<g>
	<g>
		<line class="st0" x1="138.3" y1="96" x2="138.3" y2="98.5"/>
		<line class="st1" x1="138.3" y1="103.5" x2="138.3" y2="309.5"/>
		<line class="st0" x1="138.3" y1="312" x2="138.3" y2="314.5"/>
	</g>
</g>
<g>
	<g>
		<line class="st0" x1="189.8" y1="96" x2="189.8" y2="98.5"/>
		<line class="st1" x1="189.8" y1="103.5" x2="189.8" y2="309.5"/>
		<line class="st0" x1="189.8" y1="312" x2="189.8" y2="314.5"/>
	</g>
</g>
<g>
	<g>
		<line class="st0" x1="241.3" y1="96" x2="241.3" y2="98.5"/>
		<line class="st1" x1="241.3" y1="103.5" x2="241.3" y2="309.5"/>
		<line class="st0" x1="241.3" y1="312" x2="241.3" y2="314.5"/>
	</g>
</g>
<g>
	<g>
		<line class="st0" x1="292.8" y1="96" x2="292.8" y2="98.5"/>
		<line class="st1" x1="292.8" y1="103.5" x2="292.8" y2="309.5"/>
		<line class="st0" x1="292.8" y1="312" x2="292.8" y2="314.5"/>
	</g>
</g>
<g>
	<g>
		<line class="st0" x1="344.3" y1="96" x2="344.3" y2="98.5"/>
		<line class="st1" x1="344.3" y1="103.5" x2="344.3" y2="309.5"/>
		<line class="st0" x1="344.3" y1="312" x2="344.3" y2="314.5"/>
	</g>
</g>
<g>
	<g>
		<line class="st0" x1="395.8" y1="96" x2="395.8" y2="98.5"/>
		<line class="st1" x1="395.8" y1="103.5" x2="395.8" y2="309.5"/>
		<line class="st0" x1="395.8" y1="312" x2="395.8" y2="314.5"/>
	</g>
</g>
<g>
	<g>
		<line class="st0" x1="447.3" y1="96" x2="447.3" y2="98.5"/>
		<line class="st1" x1="447.3" y1="103.5" x2="447.3" y2="309.5"/>
		<line class="st0" x1="447.3" y1="312" x2="447.3" y2="314.5"/>
	</g>
</g>
<g>
	<g>
		<line class="st0" x1="498.8" y1="96" x2="498.8" y2="98.5"/>
		<line class="st1" x1="498.8" y1="103.5" x2="498.8" y2="309.5"/>
		<line class="st0" x1="498.8" y1="312" x2="498.8" y2="314.5"/>
	</g>
</g>
<g>
	<g>
		<line class="st0" x1="550.3" y1="96" x2="550.3" y2="98.5"/>
		<line class="st1" x1="550.3" y1="103.5" x2="550.3" y2="309.5"/>
		<line class="st0" x1="550.3" y1="312" x2="550.3" y2="314.5"/>
	</g>
</g>
<g>
	<g>
		<line class="st0" x1="601.9" y1="96" x2="601.9" y2="98.5"/>
		<line class="st1" x1="601.9" y1="103.5" x2="601.9" y2="309.5"/>
		<line class="st0" x1="601.9" y1="312" x2="601.9" y2="314.5"/>
	</g>
</g>
<g>
	<g>
		<line class="st0" x1="653.4" y1="96" x2="653.4" y2="98.5"/>
		<line class="st1" x1="653.4" y1="103.5" x2="653.4" y2="309.5"/>
		<line class="st0" x1="653.4" y1="312" x2="653.4" y2="314.5"/>
	</g>
</g>
<line class="st0" x1="24" y1="314.5" x2="663.9" y2="314.5"/>
<g class="st2">
	<path d="M55.5,324.7c0,0.7-0.2,1.3-0.5,1.7s-0.7,0.6-1.2,0.6c-0.2,0-0.4,0-0.6-0.1v-0.7c0.2,0.1,0.4,0.2,0.6,0.2c0.6,0,1-0.5,1-1.6
		v-3.9h0.7V324.7z"/>
	<path d="M61.6,326.9h-0.8l-0.6-1.7h-2.6l-0.6,1.7h-0.8l2.3-6.1h0.7L61.6,326.9z M59.9,324.5l-1-2.6c0-0.1-0.1-0.2-0.1-0.4h0
		c0,0.2-0.1,0.3-0.1,0.4l-0.9,2.6H59.9z"/>
	<path d="M67.4,326.9h-0.9l-3.1-4.8c-0.1-0.1-0.1-0.2-0.2-0.4h0c0,0.1,0,0.4,0,0.8v4.4h-0.7v-6.1h0.9l3,4.8c0.1,0.2,0.2,0.3,0.2,0.4
		h0c0-0.2,0-0.5,0-0.9v-4.3h0.7V326.9z"/>
</g>
<g class="st2">
	<path class="st3" d="M10.3,107.4c0,0.4-0.1,0.7-0.2,1c-0.1,0.3-0.3,0.6-0.6,0.8c-0.2,0.2-0.5,0.4-0.9,0.5c-0.3,0.1-0.7,0.2-1.2,0.2
		c-0.8,0-1.4-0.1-1.8-0.4v-1c0.5,0.4,1.2,0.6,1.9,0.6c0.3,0,0.5,0,0.8-0.1s0.4-0.2,0.6-0.3c0.2-0.1,0.3-0.3,0.4-0.5s0.1-0.4,0.1-0.6
		c0-1.1-0.7-1.6-2.2-1.6H6.5v-0.8h0.6c1.3,0,2-0.5,2-1.5c0-0.9-0.5-1.4-1.5-1.4c-0.6,0-1.1,0.2-1.6,0.6V102c0.5-0.3,1.1-0.5,1.8-0.5
		c0.3,0,0.6,0,0.9,0.1s0.5,0.2,0.7,0.4c0.2,0.2,0.3,0.4,0.5,0.6c0.1,0.2,0.2,0.5,0.2,0.8c0,1.1-0.5,1.7-1.6,2v0
		c0.3,0,0.5,0.1,0.8,0.2s0.4,0.2,0.6,0.4c0.2,0.2,0.3,0.4,0.4,0.6C10.3,106.9,10.3,107.2,10.3,107.4z"/>
	<path class="st3" d="M16.9,105.6c0,0.7-0.1,1.3-0.2,1.8c-0.1,0.5-0.3,1-0.5,1.3s-0.5,0.6-0.8,0.8c-0.3,0.2-0.7,0.3-1.1,0.3
		c-0.4,0-0.8-0.1-1.1-0.3s-0.6-0.4-0.8-0.8c-0.2-0.3-0.4-0.8-0.5-1.3c-0.1-0.5-0.2-1.1-0.2-1.7c0-0.7,0.1-1.3,0.2-1.9
		c0.1-0.5,0.3-1,0.5-1.4c0.2-0.4,0.5-0.6,0.9-0.8c0.3-0.2,0.7-0.3,1.2-0.3C16.1,101.5,16.9,102.9,16.9,105.6z M16,105.7
		c0-2.3-0.5-3.4-1.6-3.4c-1.1,0-1.7,1.2-1.7,3.5c0,2.2,0.6,3.3,1.7,3.3C15.4,109.1,16,107.9,16,105.7z"/>
	<path class="st3" d="M23.1,105.6c0,0.7-0.1,1.3-0.2,1.8c-0.1,0.5-0.3,1-0.5,1.3s-0.5,0.6-0.8,0.8c-0.3,0.2-0.7,0.3-1.1,0.3
		c-0.4,0-0.8-0.1-1.1-0.3s-0.6-0.4-0.8-0.8c-0.2-0.3-0.4-0.8-0.5-1.3c-0.1-0.5-0.2-1.1-0.2-1.7c0-0.7,0.1-1.3,0.2-1.9
		c0.1-0.5,0.3-1,0.5-1.4c0.2-0.4,0.5-0.6,0.9-0.8c0.3-0.2,0.7-0.3,1.2-0.3C22.3,101.5,23.1,102.9,23.1,105.6z M22.2,105.7
		c0-2.3-0.5-3.4-1.6-3.4c-1.1,0-1.7,1.2-1.7,3.5c0,2.2,0.6,3.3,1.7,3.3C21.6,109.1,22.2,107.9,22.2,105.7z"/>
	<path class="st3" d="M29.3,105.6c0,0.7-0.1,1.3-0.2,1.8c-0.1,0.5-0.3,1-0.5,1.3s-0.5,0.6-0.8,0.8c-0.3,0.2-0.7,0.3-1.1,0.3
		c-0.4,0-0.8-0.1-1.1-0.3s-0.6-0.4-0.8-0.8c-0.2-0.3-0.4-0.8-0.5-1.3c-0.1-0.5-0.2-1.1-0.2-1.7c0-0.7,0.1-1.3,0.2-1.9
		c0.1-0.5,0.3-1,0.5-1.4c0.2-0.4,0.5-0.6,0.9-0.8c0.3-0.2,0.7-0.3,1.2-0.3C28.5,101.5,29.3,102.9,29.3,105.6z M28.4,105.7
		c0-2.3-0.5-3.4-1.6-3.4c-1.1,0-1.7,1.2-1.7,3.5c0,2.2,0.6,3.3,1.7,3.3C27.8,109.1,28.4,107.9,28.4,105.7z"/>
</g>
<g class="st2">
	<path class="st3" d="M9.3,139.7c0-0.2,0-0.4-0.1-0.5s-0.2-0.3-0.3-0.4c-0.1-0.1-0.3-0.2-0.5-0.2c-0.2,0-0.4-0.1-0.6-0.1
		c-0.2,0-0.4,0-0.5,0.1c-0.2,0-0.3,0.1-0.5,0.2c-0.2,0.1-0.3,0.2-0.5,0.3c-0.2,0.1-0.3,0.2-0.4,0.3v-0.8c0.3-0.2,0.5-0.4,0.9-0.5
		s0.7-0.2,1.2-0.2c0.3,0,0.6,0,0.9,0.1c0.3,0.1,0.5,0.2,0.7,0.3c0.2,0.2,0.4,0.3,0.5,0.6c0.1,0.2,0.2,0.5,0.2,0.8
		c0,0.3,0,0.5-0.1,0.7c-0.1,0.2-0.2,0.4-0.3,0.6c-0.1,0.2-0.3,0.4-0.6,0.5c-0.2,0.2-0.5,0.3-0.8,0.5c-0.4,0.2-0.7,0.4-0.9,0.6
		c-0.2,0.2-0.4,0.3-0.6,0.4c-0.1,0.1-0.2,0.3-0.3,0.4c-0.1,0.1-0.1,0.3-0.1,0.5h4v0.7h-5v-0.3c0-0.3,0-0.5,0.1-0.7
		c0.1-0.2,0.2-0.4,0.4-0.6c0.2-0.2,0.4-0.4,0.7-0.6c0.3-0.2,0.6-0.4,1-0.7c0.3-0.2,0.5-0.3,0.7-0.5c0.2-0.2,0.4-0.3,0.5-0.5
		c0.1-0.2,0.2-0.3,0.3-0.5C9.3,140,9.3,139.9,9.3,139.7z"/>
	<path class="st3" d="M16.6,142.5c0,0.3-0.1,0.6-0.2,0.9s-0.3,0.5-0.6,0.7c-0.2,0.2-0.5,0.3-0.9,0.4c-0.4,0.1-0.7,0.2-1.2,0.2
		c-0.7,0-1.3-0.1-1.7-0.3v-0.8c0.5,0.3,1.1,0.4,1.7,0.4c0.3,0,0.6,0,0.8-0.1s0.4-0.2,0.6-0.3c0.2-0.1,0.3-0.3,0.4-0.5
		c0.1-0.2,0.1-0.4,0.1-0.6c0-0.4-0.2-0.8-0.5-1c-0.4-0.2-0.9-0.4-1.5-0.4c-0.1,0-0.2,0-0.3,0c-0.1,0-0.2,0-0.4,0c-0.1,0-0.2,0-0.4,0
		c-0.1,0-0.2,0-0.3,0l0.3-3.3h3.7v0.7h-2.9l-0.2,1.9c0.1,0,0.2,0,0.4,0c0.1,0,0.3,0,0.4,0c0.4,0,0.8,0,1.1,0.1
		c0.3,0.1,0.6,0.2,0.9,0.4c0.2,0.2,0.4,0.4,0.5,0.6S16.6,142.2,16.6,142.5z"/>
	<path class="st3" d="M23.1,141.2c0,0.6-0.1,1-0.2,1.5c-0.1,0.4-0.3,0.8-0.5,1.1s-0.5,0.5-0.8,0.7c-0.3,0.2-0.7,0.2-1.1,0.2
		c-0.4,0-0.8-0.1-1.1-0.2c-0.3-0.1-0.6-0.4-0.8-0.6c-0.2-0.3-0.4-0.6-0.5-1s-0.2-0.9-0.2-1.4c0-0.6,0.1-1.1,0.2-1.5
		c0.1-0.4,0.3-0.8,0.5-1.1c0.2-0.3,0.5-0.5,0.9-0.7c0.3-0.2,0.7-0.2,1.2-0.2C22.3,137.8,23.1,139,23.1,141.2z M22.2,141.3
		c0-1.9-0.5-2.8-1.6-2.8c-1.1,0-1.7,1-1.7,2.9c0,1.8,0.6,2.7,1.7,2.7C21.6,144,22.2,143.1,22.2,141.3z"/>
	<path class="st3" d="M29.3,141.2c0,0.6-0.1,1-0.2,1.5c-0.1,0.4-0.3,0.8-0.5,1.1s-0.5,0.5-0.8,0.7c-0.3,0.2-0.7,0.2-1.1,0.2
		c-0.4,0-0.8-0.1-1.1-0.2c-0.3-0.1-0.6-0.4-0.8-0.6c-0.2-0.3-0.4-0.6-0.5-1s-0.2-0.9-0.2-1.4c0-0.6,0.1-1.1,0.2-1.5
		c0.1-0.4,0.3-0.8,0.5-1.1c0.2-0.3,0.5-0.5,0.9-0.7c0.3-0.2,0.7-0.2,1.2-0.2C28.5,137.8,29.3,139,29.3,141.2z M28.4,141.3
		c0-1.9-0.5-2.8-1.6-2.8c-1.1,0-1.7,1-1.7,2.9c0,1.8,0.6,2.7,1.7,2.7C27.8,144,28.4,143.1,28.4,141.3z"/>
</g>
<g class="st2">
	<path class="st3" d="M9.3,171.8c0-0.2,0-0.5-0.1-0.6s-0.2-0.3-0.3-0.5c-0.1-0.1-0.3-0.2-0.5-0.3s-0.4-0.1-0.6-0.1
		c-0.2,0-0.4,0-0.5,0.1c-0.2,0-0.3,0.1-0.5,0.2c-0.2,0.1-0.3,0.2-0.5,0.3c-0.2,0.1-0.3,0.3-0.4,0.4v-1c0.3-0.2,0.5-0.4,0.9-0.6
		s0.7-0.2,1.2-0.2c0.3,0,0.6,0,0.9,0.1c0.3,0.1,0.5,0.2,0.7,0.4s0.4,0.4,0.5,0.7s0.2,0.6,0.2,0.9c0,0.3,0,0.6-0.1,0.9
		s-0.2,0.5-0.3,0.7s-0.3,0.4-0.6,0.7c-0.2,0.2-0.5,0.4-0.8,0.6c-0.4,0.3-0.7,0.5-0.9,0.7c-0.2,0.2-0.4,0.4-0.6,0.5s-0.2,0.3-0.3,0.5
		c-0.1,0.2-0.1,0.4-0.1,0.6h4v0.8h-5v-0.4c0-0.3,0-0.6,0.1-0.9c0.1-0.3,0.2-0.5,0.4-0.7c0.2-0.2,0.4-0.5,0.7-0.7
		c0.3-0.2,0.6-0.5,1-0.8c0.3-0.2,0.5-0.4,0.7-0.6c0.2-0.2,0.4-0.4,0.5-0.6s0.2-0.4,0.3-0.6C9.3,172.2,9.3,172,9.3,171.8z"/>
	<path class="st3" d="M16.9,173.6c0,0.7-0.1,1.3-0.2,1.8c-0.1,0.5-0.3,1-0.5,1.3s-0.5,0.6-0.8,0.8c-0.3,0.2-0.7,0.3-1.1,0.3
		c-0.4,0-0.8-0.1-1.1-0.3s-0.6-0.4-0.8-0.8c-0.2-0.3-0.4-0.8-0.5-1.3c-0.1-0.5-0.2-1.1-0.2-1.7c0-0.7,0.1-1.3,0.2-1.9
		c0.1-0.5,0.3-1,0.5-1.4c0.2-0.4,0.5-0.6,0.9-0.8c0.3-0.2,0.7-0.3,1.2-0.3C16.1,169.5,16.9,170.9,16.9,173.6z M16,173.7
		c0-2.3-0.5-3.4-1.6-3.4c-1.1,0-1.7,1.2-1.7,3.5c0,2.2,0.6,3.3,1.7,3.3C15.4,177.1,16,175.9,16,173.7z"/>
	<path class="st3" d="M23.1,173.6c0,0.7-0.1,1.3-0.2,1.8c-0.1,0.5-0.3,1-0.5,1.3s-0.5,0.6-0.8,0.8c-0.3,0.2-0.7,0.3-1.1,0.3
		c-0.4,0-0.8-0.1-1.1-0.3s-0.6-0.4-0.8-0.8c-0.2-0.3-0.4-0.8-0.5-1.3c-0.1-0.5-0.2-1.1-0.2-1.7c0-0.7,0.1-1.3,0.2-1.9
		c0.1-0.5,0.3-1,0.5-1.4c0.2-0.4,0.5-0.6,0.9-0.8c0.3-0.2,0.7-0.3,1.2-0.3C22.3,169.5,23.1,170.9,23.1,173.6z M22.2,173.7
		c0-2.3-0.5-3.4-1.6-3.4c-1.1,0-1.7,1.2-1.7,3.5c0,2.2,0.6,3.3,1.7,3.3C21.6,177.1,22.2,175.9,22.2,173.7z"/>
	<path class="st3" d="M29.3,173.6c0,0.7-0.1,1.3-0.2,1.8c-0.1,0.5-0.3,1-0.5,1.3s-0.5,0.6-0.8,0.8c-0.3,0.2-0.7,0.3-1.1,0.3
		c-0.4,0-0.8-0.1-1.1-0.3s-0.6-0.4-0.8-0.8c-0.2-0.3-0.4-0.8-0.5-1.3c-0.1-0.5-0.2-1.1-0.2-1.7c0-0.7,0.1-1.3,0.2-1.9
		c0.1-0.5,0.3-1,0.5-1.4c0.2-0.4,0.5-0.6,0.9-0.8c0.3-0.2,0.7-0.3,1.2-0.3C28.5,169.5,29.3,170.9,29.3,173.6z M28.4,173.7
		c0-2.3-0.5-3.4-1.6-3.4c-1.1,0-1.7,1.2-1.7,3.5c0,2.2,0.6,3.3,1.7,3.3C27.8,177.1,28.4,175.9,28.4,173.7z"/>
</g>
<g class="st2">
	<path class="st3" d="M9.1,211.7H8.1v-7c-0.1,0.1-0.2,0.2-0.3,0.2c-0.1,0.1-0.3,0.2-0.5,0.3c-0.2,0.1-0.3,0.2-0.5,0.3
		c-0.2,0.1-0.4,0.1-0.6,0.2v-0.9c0.2-0.1,0.4-0.1,0.6-0.2c0.2-0.1,0.4-0.2,0.7-0.3c0.2-0.1,0.4-0.2,0.6-0.4c0.2-0.1,0.4-0.3,0.5-0.4
		h0.3V211.7z"/>
	<path class="st3" d="M16.6,209.2c0,0.4-0.1,0.7-0.2,1.1s-0.3,0.6-0.6,0.8c-0.2,0.2-0.5,0.4-0.9,0.5c-0.4,0.1-0.7,0.2-1.2,0.2
		c-0.7,0-1.3-0.1-1.7-0.3v-1c0.5,0.4,1.1,0.5,1.7,0.5c0.3,0,0.6,0,0.8-0.1c0.2-0.1,0.4-0.2,0.6-0.4s0.3-0.3,0.4-0.6
		c0.1-0.2,0.1-0.5,0.1-0.7c0-0.5-0.2-0.9-0.5-1.2c-0.4-0.3-0.9-0.4-1.5-0.4c-0.1,0-0.2,0-0.3,0c-0.1,0-0.2,0-0.4,0
		c-0.1,0-0.2,0-0.4,0c-0.1,0-0.2,0-0.3,0l0.3-4h3.7v0.8h-2.9l-0.2,2.4c0.1,0,0.2,0,0.4,0c0.1,0,0.3,0,0.4,0c0.4,0,0.8,0.1,1.1,0.2
		c0.3,0.1,0.6,0.3,0.9,0.5c0.2,0.2,0.4,0.5,0.5,0.8S16.6,208.9,16.6,209.2z"/>
	<path class="st3" d="M23.1,207.6c0,0.7-0.1,1.3-0.2,1.8c-0.1,0.5-0.3,1-0.5,1.3s-0.5,0.6-0.8,0.8c-0.3,0.2-0.7,0.3-1.1,0.3
		c-0.4,0-0.8-0.1-1.1-0.3s-0.6-0.4-0.8-0.8c-0.2-0.3-0.4-0.8-0.5-1.3c-0.1-0.5-0.2-1.1-0.2-1.7c0-0.7,0.1-1.3,0.2-1.9
		c0.1-0.5,0.3-1,0.5-1.4c0.2-0.4,0.5-0.6,0.9-0.8c0.3-0.2,0.7-0.3,1.2-0.3C22.3,203.5,23.1,204.9,23.1,207.6z M22.2,207.7
		c0-2.3-0.5-3.4-1.6-3.4c-1.1,0-1.7,1.2-1.7,3.5c0,2.2,0.6,3.3,1.7,3.3C21.6,211.1,22.2,209.9,22.2,207.7z"/>
	<path class="st3" d="M29.3,207.6c0,0.7-0.1,1.3-0.2,1.8c-0.1,0.5-0.3,1-0.5,1.3s-0.5,0.6-0.8,0.8c-0.3,0.2-0.7,0.3-1.1,0.3
		c-0.4,0-0.8-0.1-1.1-0.3s-0.6-0.4-0.8-0.8c-0.2-0.3-0.4-0.8-0.5-1.3c-0.1-0.5-0.2-1.1-0.2-1.7c0-0.7,0.1-1.3,0.2-1.9
		c0.1-0.5,0.3-1,0.5-1.4c0.2-0.4,0.5-0.6,0.9-0.8c0.3-0.2,0.7-0.3,1.2-0.3C28.5,203.5,29.3,204.9,29.3,207.6z M28.4,207.7
		c0-2.3-0.5-3.4-1.6-3.4c-1.1,0-1.7,1.2-1.7,3.5c0,2.2,0.6,3.3,1.7,3.3C27.8,211.1,28.4,209.9,28.4,207.7z"/>
</g>
<g class="st2">
	<path class="st3" d="M9.1,245.7H8.1v-7c-0.1,0.1-0.2,0.2-0.3,0.2c-0.1,0.1-0.3,0.2-0.5,0.3c-0.2,0.1-0.3,0.2-0.5,0.3
		c-0.2,0.1-0.4,0.1-0.6,0.2v-0.9c0.2-0.1,0.4-0.1,0.6-0.2c0.2-0.1,0.4-0.2,0.7-0.3c0.2-0.1,0.4-0.2,0.6-0.4c0.2-0.1,0.4-0.3,0.5-0.4
		h0.3V245.7z"/>
	<path class="st3" d="M16.9,241.6c0,0.7-0.1,1.3-0.2,1.8c-0.1,0.5-0.3,1-0.5,1.3s-0.5,0.6-0.8,0.8c-0.3,0.2-0.7,0.3-1.1,0.3
		c-0.4,0-0.8-0.1-1.1-0.3s-0.6-0.4-0.8-0.8c-0.2-0.3-0.4-0.8-0.5-1.3c-0.1-0.5-0.2-1.1-0.2-1.7c0-0.7,0.1-1.3,0.2-1.9
		c0.1-0.5,0.3-1,0.5-1.4c0.2-0.4,0.5-0.6,0.9-0.8c0.3-0.2,0.7-0.3,1.2-0.3C16.1,237.5,16.9,238.9,16.9,241.6z M16,241.7
		c0-2.3-0.5-3.4-1.6-3.4c-1.1,0-1.7,1.2-1.7,3.5c0,2.2,0.6,3.3,1.7,3.3C15.4,245.1,16,243.9,16,241.7z"/>
	<path class="st3" d="M23.1,241.6c0,0.7-0.1,1.3-0.2,1.8c-0.1,0.5-0.3,1-0.5,1.3s-0.5,0.6-0.8,0.8c-0.3,0.2-0.7,0.3-1.1,0.3
		c-0.4,0-0.8-0.1-1.1-0.3s-0.6-0.4-0.8-0.8c-0.2-0.3-0.4-0.8-0.5-1.3c-0.1-0.5-0.2-1.1-0.2-1.7c0-0.7,0.1-1.3,0.2-1.9
		c0.1-0.5,0.3-1,0.5-1.4c0.2-0.4,0.5-0.6,0.9-0.8c0.3-0.2,0.7-0.3,1.2-0.3C22.3,237.5,23.1,238.9,23.1,241.6z M22.2,241.7
		c0-2.3-0.5-3.4-1.6-3.4c-1.1,0-1.7,1.2-1.7,3.5c0,2.2,0.6,3.3,1.7,3.3C21.6,245.1,22.2,243.9,22.2,241.7z"/>
	<path class="st3" d="M29.3,241.6c0,0.7-0.1,1.3-0.2,1.8c-0.1,0.5-0.3,1-0.5,1.3s-0.5,0.6-0.8,0.8c-0.3,0.2-0.7,0.3-1.1,0.3
		c-0.4,0-0.8-0.1-1.1-0.3s-0.6-0.4-0.8-0.8c-0.2-0.3-0.4-0.8-0.5-1.3c-0.1-0.5-0.2-1.1-0.2-1.7c0-0.7,0.1-1.3,0.2-1.9
		c0.1-0.5,0.3-1,0.5-1.4c0.2-0.4,0.5-0.6,0.9-0.8c0.3-0.2,0.7-0.3,1.2-0.3C28.5,237.5,29.3,238.9,29.3,241.6z M28.4,241.7
		c0-2.3-0.5-3.4-1.6-3.4c-1.1,0-1.7,1.2-1.7,3.5c0,2.2,0.6,3.3,1.7,3.3C27.8,245.1,28.4,243.9,28.4,241.7z"/>
</g>
<g class="st2">
	<path class="st3" d="M16.6,277.2c0,0.4-0.1,0.7-0.2,1.1s-0.3,0.6-0.6,0.8c-0.2,0.2-0.5,0.4-0.9,0.5c-0.4,0.1-0.7,0.2-1.2,0.2
		c-0.7,0-1.3-0.1-1.7-0.3v-1c0.5,0.4,1.1,0.5,1.7,0.5c0.3,0,0.6,0,0.8-0.1c0.2-0.1,0.4-0.2,0.6-0.4s0.3-0.3,0.4-0.6
		c0.1-0.2,0.1-0.5,0.1-0.7c0-0.5-0.2-0.9-0.5-1.2c-0.4-0.3-0.9-0.4-1.5-0.4c-0.1,0-0.2,0-0.3,0c-0.1,0-0.2,0-0.4,0
		c-0.1,0-0.2,0-0.4,0c-0.1,0-0.2,0-0.3,0l0.3-4h3.7v0.8h-2.9l-0.2,2.4c0.1,0,0.2,0,0.4,0c0.1,0,0.3,0,0.4,0c0.4,0,0.8,0.1,1.1,0.2
		c0.3,0.1,0.6,0.3,0.9,0.5c0.2,0.2,0.4,0.5,0.5,0.8S16.6,276.9,16.6,277.2z"/>
	<path class="st3" d="M23.1,275.6c0,0.7-0.1,1.3-0.2,1.8c-0.1,0.5-0.3,1-0.5,1.3s-0.5,0.6-0.8,0.8c-0.3,0.2-0.7,0.3-1.1,0.3
		c-0.4,0-0.8-0.1-1.1-0.3s-0.6-0.4-0.8-0.8c-0.2-0.3-0.4-0.8-0.5-1.3c-0.1-0.5-0.2-1.1-0.2-1.7c0-0.7,0.1-1.3,0.2-1.9
		c0.1-0.5,0.3-1,0.5-1.4c0.2-0.4,0.5-0.6,0.9-0.8c0.3-0.2,0.7-0.3,1.2-0.3C22.3,271.5,23.1,272.9,23.1,275.6z M22.2,275.7
		c0-2.3-0.5-3.4-1.6-3.4c-1.1,0-1.7,1.2-1.7,3.5c0,2.2,0.6,3.3,1.7,3.3C21.6,279.1,22.2,277.9,22.2,275.7z"/>
	<path class="st3" d="M29.3,275.6c0,0.7-0.1,1.3-0.2,1.8c-0.1,0.5-0.3,1-0.5,1.3s-0.5,0.6-0.8,0.8c-0.3,0.2-0.7,0.3-1.1,0.3
		c-0.4,0-0.8-0.1-1.1-0.3s-0.6-0.4-0.8-0.8c-0.2-0.3-0.4-0.8-0.5-1.3c-0.1-0.5-0.2-1.1-0.2-1.7c0-0.7,0.1-1.3,0.2-1.9
		c0.1-0.5,0.3-1,0.5-1.4c0.2-0.4,0.5-0.6,0.9-0.8c0.3-0.2,0.7-0.3,1.2-0.3C28.5,271.5,29.3,272.9,29.3,275.6z M28.4,275.7
		c0-2.3-0.5-3.4-1.6-3.4c-1.1,0-1.7,1.2-1.7,3.5c0,2.2,0.6,3.3,1.7,3.3C27.8,279.1,28.4,277.9,28.4,275.7z"/>
</g>
<g class="st2">
	<path class="st3" d="M29.3,309.6c0,0.7-0.1,1.3-0.2,1.8c-0.1,0.5-0.3,1-0.5,1.3s-0.5,0.6-0.8,0.8c-0.3,0.2-0.7,0.3-1.1,0.3
		c-0.4,0-0.8-0.1-1.1-0.3s-0.6-0.4-0.8-0.8c-0.2-0.3-0.4-0.8-0.5-1.3c-0.1-0.5-0.2-1.1-0.2-1.7c0-0.7,0.1-1.3,0.2-1.9
		c0.1-0.5,0.3-1,0.5-1.4c0.2-0.4,0.5-0.6,0.9-0.8c0.3-0.2,0.7-0.3,1.2-0.3C28.5,305.5,29.3,306.9,29.3,309.6z M28.4,309.7
		c0-2.3-0.5-3.4-1.6-3.4c-1.1,0-1.7,1.2-1.7,3.5c0,2.2,0.6,3.3,1.7,3.3C27.8,313.1,28.4,311.9,28.4,309.7z"/>
</g>
<g class="st2">
	<path d="M109.6,321.4h-2.4v2.1h2.2v0.6h-2.2v2.7h-0.7v-6.1h3.1V321.4z"/>
	<path d="M113.9,326.9h-3.2v-6.1h3.1v0.6h-2.4v2h2.2v0.6h-2.2v2.1h2.5V326.9z"/>
	<path d="M115.1,326.9v-6.1h1.7c0.5,0,0.9,0.1,1.2,0.4s0.5,0.6,0.5,1c0,0.3-0.1,0.6-0.3,0.9c-0.2,0.3-0.4,0.4-0.8,0.5v0
		c0.4,0,0.7,0.2,1,0.5s0.4,0.6,0.4,1c0,0.5-0.2,0.9-0.6,1.3c-0.4,0.3-0.8,0.5-1.4,0.5H115.1z M115.8,321.4v2h0.7
		c0.4,0,0.7-0.1,0.9-0.3c0.2-0.2,0.3-0.5,0.3-0.8c0-0.6-0.4-0.9-1.2-0.9H115.8z M115.8,324v2.2h1c0.4,0,0.7-0.1,1-0.3
		s0.3-0.5,0.3-0.8c0-0.7-0.5-1.1-1.5-1.1H115.8z"/>
</g>
<g class="st2">
	<path d="M161.9,326.9h-0.7v-4.1c0-0.3,0-0.7,0.1-1.2h0c-0.1,0.3-0.1,0.5-0.2,0.6l-2.1,4.7h-0.3l-2.1-4.6c-0.1-0.1-0.1-0.3-0.2-0.6
		h0c0,0.2,0,0.6,0,1.2v4.1h-0.7v-6.1h0.9l1.9,4.2c0.1,0.3,0.2,0.6,0.3,0.7h0c0.1-0.3,0.2-0.6,0.3-0.7l1.9-4.2h0.9V326.9z"/>
	<path d="M168.2,326.9h-0.8l-0.6-1.7h-2.6l-0.6,1.7h-0.8l2.3-6.1h0.7L168.2,326.9z M166.5,324.5l-1-2.6c0-0.1-0.1-0.2-0.1-0.4h0
		c0,0.2-0.1,0.3-0.1,0.4l-0.9,2.6H166.5z"/>
	<path d="M173.4,326.9h-0.8l-1-1.7c-0.1-0.2-0.2-0.3-0.3-0.4s-0.2-0.2-0.3-0.3c-0.1-0.1-0.2-0.1-0.3-0.2s-0.2,0-0.4,0h-0.6v2.6h-0.7
		v-6.1h1.8c0.3,0,0.5,0,0.7,0.1s0.4,0.2,0.6,0.3c0.2,0.1,0.3,0.3,0.4,0.5c0.1,0.2,0.1,0.4,0.1,0.7c0,0.2,0,0.4-0.1,0.6
		c-0.1,0.2-0.2,0.3-0.3,0.5c-0.1,0.1-0.3,0.3-0.4,0.4c-0.2,0.1-0.4,0.2-0.6,0.2v0c0.1,0,0.2,0.1,0.3,0.2s0.1,0.1,0.2,0.2
		c0.1,0.1,0.1,0.2,0.2,0.3c0.1,0.1,0.1,0.2,0.2,0.3L173.4,326.9z M169.8,321.4v2.2h1c0.2,0,0.3,0,0.5-0.1c0.2-0.1,0.3-0.1,0.4-0.2
		c0.1-0.1,0.2-0.2,0.3-0.4c0.1-0.1,0.1-0.3,0.1-0.5c0-0.3-0.1-0.6-0.3-0.8c-0.2-0.2-0.5-0.3-0.9-0.3H169.8z"/>
</g>
<g class="st2">
	<path d="M213.6,326.9h-0.8l-0.6-1.7h-2.6l-0.6,1.7h-0.8l2.3-6.1h0.7L213.6,326.9z M211.9,324.5l-1-2.6c0-0.1-0.1-0.2-0.1-0.4h0
		c0,0.2-0.1,0.3-0.1,0.4l-0.9,2.6H211.9z"/>
	<path d="M215.2,324.6v2.3h-0.7v-6.1h1.7c0.6,0,1.2,0.2,1.5,0.5s0.5,0.8,0.5,1.3c0,0.6-0.2,1-0.6,1.4c-0.4,0.4-0.9,0.6-1.6,0.6
		H215.2z M215.2,321.4v2.5h0.7c0.5,0,0.9-0.1,1.1-0.3c0.3-0.2,0.4-0.5,0.4-1c0-0.8-0.5-1.2-1.4-1.2H215.2z"/>
	<path d="M223.7,326.9h-0.8l-1-1.7c-0.1-0.2-0.2-0.3-0.3-0.4s-0.2-0.2-0.3-0.3c-0.1-0.1-0.2-0.1-0.3-0.2s-0.2,0-0.4,0H220v2.6h-0.7
		v-6.1h1.8c0.3,0,0.5,0,0.7,0.1s0.4,0.2,0.6,0.3c0.2,0.1,0.3,0.3,0.4,0.5c0.1,0.2,0.1,0.4,0.1,0.7c0,0.2,0,0.4-0.1,0.6
		c-0.1,0.2-0.2,0.3-0.3,0.5c-0.1,0.1-0.3,0.3-0.4,0.4c-0.2,0.1-0.4,0.2-0.6,0.2v0c0.1,0,0.2,0.1,0.3,0.2s0.1,0.1,0.2,0.2
		c0.1,0.1,0.1,0.2,0.2,0.3c0.1,0.1,0.1,0.2,0.2,0.3L223.7,326.9z M220,321.4v2.2h1c0.2,0,0.3,0,0.5-0.1c0.2-0.1,0.3-0.1,0.4-0.2
		c0.1-0.1,0.2-0.2,0.3-0.4c0.1-0.1,0.1-0.3,0.1-0.5c0-0.3-0.1-0.6-0.3-0.8c-0.2-0.2-0.5-0.3-0.9-0.3H220z"/>
</g>
<g class="st2">
	<path d="M265.5,326.9h-0.7v-4.1c0-0.3,0-0.7,0.1-1.2h0c-0.1,0.3-0.1,0.5-0.2,0.6l-2.1,4.7h-0.3l-2.1-4.6c-0.1-0.1-0.1-0.3-0.2-0.6
		h0c0,0.2,0,0.6,0,1.2v4.1h-0.7v-6.1h0.9l1.9,4.2c0.1,0.3,0.2,0.6,0.3,0.7h0c0.1-0.3,0.2-0.6,0.3-0.7l1.9-4.2h0.9V326.9z"/>
	<path d="M271.8,326.9H271l-0.6-1.7h-2.6l-0.6,1.7h-0.8l2.3-6.1h0.7L271.8,326.9z M270.1,324.5l-1-2.6c0-0.1-0.1-0.2-0.1-0.4h0
		c0,0.2-0.1,0.3-0.1,0.4l-0.9,2.6H270.1z"/>
	<path d="M276,320.8l-2,3.8v2.2h-0.7v-2.2l-2-3.8h0.8l1.4,2.7c0,0,0.1,0.2,0.1,0.4h0c0-0.1,0.1-0.2,0.2-0.4l1.4-2.7H276z"/>
</g>
<g class="st2">
	<path d="M313.8,324.7c0,0.7-0.2,1.3-0.5,1.7s-0.7,0.6-1.2,0.6c-0.2,0-0.4,0-0.6-0.1v-0.7c0.2,0.1,0.4,0.2,0.6,0.2
		c0.6,0,1-0.5,1-1.6v-3.9h0.7V324.7z"/>
	<path d="M319.8,324.4c0,1.7-0.8,2.6-2.3,2.6c-1.5,0-2.2-0.8-2.2-2.5v-3.7h0.7v3.7c0,1.2,0.5,1.9,1.6,1.9c1,0,1.5-0.6,1.5-1.8v-3.7
		h0.7V324.4z"/>
	<path d="M326.2,326.9h-0.9l-3.1-4.8c-0.1-0.1-0.1-0.2-0.2-0.4h0c0,0.1,0,0.4,0,0.8v4.4h-0.7v-6.1h0.9l3,4.8
		c0.1,0.2,0.2,0.3,0.2,0.4h0c0-0.2,0-0.5,0-0.9v-4.3h0.7V326.9z"/>
</g>
<g class="st2">
	<path d="M366.7,324.7c0,0.7-0.2,1.3-0.5,1.7s-0.7,0.6-1.2,0.6c-0.2,0-0.4,0-0.6-0.1v-0.7c0.2,0.1,0.4,0.2,0.6,0.2
		c0.6,0,1-0.5,1-1.6v-3.9h0.7V324.7z"/>
	<path d="M372.7,324.4c0,1.7-0.8,2.6-2.3,2.6c-1.5,0-2.2-0.8-2.2-2.5v-3.7h0.7v3.7c0,1.2,0.5,1.9,1.6,1.9c1,0,1.5-0.6,1.5-1.8v-3.7
		h0.7V324.4z"/>
	<path d="M377.4,326.9h-3.1v-6.1h0.7v5.4h2.4V326.9z"/>
</g>
<g class="st2">
	<path d="M416.4,326.6v-0.8c0.1,0.1,0.2,0.2,0.3,0.2c0.1,0.1,0.3,0.1,0.4,0.2s0.3,0.1,0.4,0.1c0.1,0,0.3,0,0.4,0
		c0.4,0,0.8-0.1,1-0.2c0.2-0.2,0.3-0.4,0.3-0.7c0-0.2,0-0.3-0.1-0.4c-0.1-0.1-0.2-0.2-0.3-0.3s-0.3-0.2-0.5-0.3
		c-0.2-0.1-0.4-0.2-0.6-0.3c-0.2-0.1-0.4-0.2-0.6-0.3c-0.2-0.1-0.3-0.2-0.5-0.4c-0.1-0.1-0.2-0.3-0.3-0.5c-0.1-0.2-0.1-0.4-0.1-0.6
		c0-0.3,0.1-0.5,0.2-0.7c0.1-0.2,0.3-0.4,0.5-0.5c0.2-0.1,0.4-0.2,0.7-0.3c0.3-0.1,0.5-0.1,0.8-0.1c0.6,0,1,0.1,1.3,0.2v0.8
		c-0.4-0.2-0.8-0.4-1.4-0.4c-0.2,0-0.3,0-0.5,0s-0.3,0.1-0.4,0.2c-0.1,0.1-0.2,0.2-0.3,0.3c-0.1,0.1-0.1,0.3-0.1,0.4
		c0,0.2,0,0.3,0.1,0.4c0.1,0.1,0.1,0.2,0.3,0.3c0.1,0.1,0.2,0.2,0.4,0.3c0.2,0.1,0.3,0.2,0.6,0.3c0.2,0.1,0.4,0.2,0.6,0.3
		c0.2,0.1,0.4,0.2,0.5,0.4c0.1,0.1,0.3,0.3,0.3,0.5c0.1,0.2,0.1,0.4,0.1,0.6c0,0.3-0.1,0.6-0.2,0.8s-0.3,0.4-0.5,0.5
		c-0.2,0.1-0.4,0.2-0.7,0.3s-0.5,0.1-0.8,0.1c-0.1,0-0.2,0-0.4,0c-0.1,0-0.3,0-0.4-0.1c-0.1,0-0.3-0.1-0.4-0.1
		S416.5,326.7,416.4,326.6z"/>
	<path d="M424.5,326.9h-3.2v-6.1h3.1v0.6H422v2h2.2v0.6H422v2.1h2.5V326.9z"/>
	<path d="M429.3,321.4h-1.8v5.4h-0.7v-5.4h-1.7v-0.6h4.2V321.4z"/>
</g>
<g class="st2">
	<path d="M471.1,326.9h-0.8l-0.6-1.7h-2.6l-0.6,1.7h-0.8l2.3-6.1h0.7L471.1,326.9z M469.4,324.5l-1-2.6c0-0.1-0.1-0.2-0.1-0.4h0
		c0,0.2-0.1,0.3-0.1,0.4l-0.9,2.6H469.4z"/>
	<path d="M476.3,324.4c0,1.7-0.8,2.6-2.3,2.6c-1.5,0-2.2-0.8-2.2-2.5v-3.7h0.7v3.7c0,1.2,0.5,1.9,1.6,1.9c1,0,1.5-0.6,1.5-1.8v-3.7
		h0.7V324.4z"/>
	<path d="M482.3,326.4c-0.6,0.3-1.3,0.5-2,0.5c-0.9,0-1.6-0.3-2.1-0.8c-0.5-0.6-0.8-1.3-0.8-2.2c0-0.9,0.3-1.7,0.9-2.3
		c0.6-0.6,1.3-0.9,2.3-0.9c0.7,0,1.2,0.1,1.7,0.3v0.8c-0.5-0.3-1.1-0.5-1.7-0.5c-0.7,0-1.2,0.2-1.7,0.7c-0.4,0.5-0.7,1.1-0.7,1.8
		c0,0.8,0.2,1.4,0.6,1.8c0.4,0.4,1,0.7,1.6,0.7c0.5,0,0.9-0.1,1.2-0.3v-1.7h-1.3v-0.6h2V326.4z"/>
</g>
<g class="st2">
	<path d="M521.1,327c-0.9,0-1.5-0.3-2.1-0.9s-0.8-1.3-0.8-2.2c0-1,0.3-1.8,0.8-2.3c0.5-0.6,1.2-0.9,2.2-0.9c0.8,0,1.5,0.3,2,0.8
		s0.8,1.3,0.8,2.2c0,1-0.3,1.8-0.8,2.3C522.7,326.7,522,327,521.1,327z M521.1,321.3c-0.6,0-1.2,0.2-1.6,0.7
		c-0.4,0.5-0.6,1.1-0.6,1.8s0.2,1.3,0.6,1.8c0.4,0.5,0.9,0.7,1.5,0.7c0.7,0,1.2-0.2,1.6-0.7c0.4-0.4,0.6-1,0.6-1.8
		c0-0.8-0.2-1.4-0.6-1.9S521.8,321.3,521.1,321.3z"/>
	<path d="M529.3,326.6c-0.4,0.2-1,0.4-1.7,0.4c-0.9,0-1.6-0.3-2.1-0.8c-0.5-0.6-0.8-1.3-0.8-2.2c0-1,0.3-1.8,0.9-2.4
		c0.6-0.6,1.3-0.9,2.2-0.9c0.6,0,1.1,0.1,1.4,0.2v0.8c-0.4-0.2-0.9-0.4-1.4-0.4c-0.7,0-1.3,0.2-1.7,0.7c-0.4,0.5-0.6,1.1-0.6,1.9
		c0,0.7,0.2,1.3,0.6,1.8c0.4,0.4,0.9,0.7,1.6,0.7c0.6,0,1.1-0.1,1.6-0.4V326.6z"/>
	<path d="M534.1,321.4h-1.8v5.4h-0.7v-5.4h-1.7v-0.6h4.2V321.4z"/>
</g>
<g class="st2">
	<path d="M574.2,326.9h-0.9l-3.1-4.8c-0.1-0.1-0.1-0.2-0.2-0.4h0c0,0.1,0,0.4,0,0.8v4.4h-0.7v-6.1h0.9l3,4.8
		c0.1,0.2,0.2,0.3,0.2,0.4h0c0-0.2,0-0.5,0-0.9v-4.3h0.7V326.9z"/>
	<path d="M578.3,327c-0.9,0-1.5-0.3-2.1-0.9c-0.5-0.6-0.8-1.3-0.8-2.2c0-1,0.3-1.8,0.8-2.3c0.5-0.6,1.2-0.9,2.2-0.9
		c0.8,0,1.5,0.3,2,0.8c0.5,0.6,0.8,1.3,0.8,2.2c0,1-0.3,1.8-0.8,2.3C579.9,326.7,579.2,327,578.3,327z M578.3,321.3
		c-0.6,0-1.2,0.2-1.6,0.7s-0.6,1.1-0.6,1.8s0.2,1.3,0.6,1.8c0.4,0.5,0.9,0.7,1.5,0.7c0.7,0,1.2-0.2,1.6-0.7s0.6-1,0.6-1.8
		c0-0.8-0.2-1.4-0.6-1.9C579.5,321.5,579,321.3,578.3,321.3z"/>
	<path d="M586.7,320.8l-2.2,6.1h-0.8l-2.2-6.1h0.8l1.7,4.8c0.1,0.2,0.1,0.3,0.1,0.5h0c0-0.2,0.1-0.4,0.1-0.5l1.7-4.8H586.7z"/>
</g>
<g class="st2">
	<path d="M622.3,326.9v-6.1h1.7c2.1,0,3.2,1,3.2,3c0,0.9-0.3,1.7-0.9,2.3c-0.6,0.6-1.4,0.9-2.4,0.9H622.3z M623,321.4v4.8h0.9
		c0.8,0,1.4-0.2,1.9-0.6c0.4-0.4,0.7-1,0.7-1.8c0-1.6-0.8-2.3-2.5-2.3H623z"/>
	<path d="M631.6,326.9h-3.2v-6.1h3.1v0.6h-2.4v2h2.2v0.6h-2.2v2.1h2.5V326.9z"/>
	<path d="M636.9,326.6c-0.4,0.2-1,0.4-1.7,0.4c-0.9,0-1.6-0.3-2.1-0.8c-0.5-0.6-0.8-1.3-0.8-2.2c0-1,0.3-1.8,0.9-2.4
		c0.6-0.6,1.3-0.9,2.2-0.9c0.6,0,1.1,0.1,1.4,0.2v0.8c-0.4-0.2-0.9-0.4-1.4-0.4c-0.7,0-1.3,0.2-1.7,0.7c-0.4,0.5-0.6,1.1-0.6,1.9
		c0,0.7,0.2,1.3,0.6,1.8c0.4,0.4,0.9,0.7,1.6,0.7c0.6,0,1.1-0.1,1.6-0.4V326.6z"/>
</g>
<g>
	<path class="st4" d="M38.3,276.1c11.1,1.2,22.2,2.5,33.3,3.6c8.6,0.9,17.1-0.4,25.6-1c11.8-0.8,23.7-1.2,35.5-1.8
		c20.6-1.1,41.2-0.3,61.8-0.3c20.1-0.1,40.2-0.1,60.3-0.1c11.6,0,23,1.4,34.4,2.9c5.2,0.7,10.4,1.8,15.6,1.9c4.7,0,9.4-1,14.1-1.7
		c15.2-2.6,30.5-4.6,46-5.1c6.6-0.2,13.1-1.3,19.7-1.2c7.2,0.2,14.5,0.4,21.7,0.5c17.1,0,34.2,2.1,51.3,2.6
		c12.8,0.4,25.7,0.4,38.6-0.2c9.7-0.5,19.2-2.2,28.8-3.5c5.4-0.7,10.7-1.4,16.2-1.5c9.5-0.1,19.1-0.4,28.6-0.6
		c7.4-0.1,14.7,1.3,22.1,1.8c8.3,0.6,16.6,2.2,25,2.2c1.6,0,2.8,0.5,4,1.2c4-1.8,7.9-2.9,11.9-0.2c3.7-1.9,7.4-2.7,11.7-0.2
		c1.4-1.7,3.8-1.7,6.2-1.6c1.5,0.1,2.4,0.9,2.7,2.1c-2.4,2.7-4.2,2.9-8.7,1.1c-3.9,2.1-7.8,2.7-11.8,0.1c-4,2.2-7.6,2.3-11.5,0.1
		c-1.4,1.2-3.2,1.7-5.4,1.8c-8.4,0.1-16.8-1.1-25-2.1c-11.3-1.4-22.6-1.3-34-1.6c-16.6-0.3-32.8,1.9-49.1,4.2
		c-6.4,0.9-12.7,1.2-19.2,1.3c-8.1,0-16.1,0.1-24.2,0.4c-10.9,0.3-21.7-1.1-32.5-1.7c-12.8-0.8-25.6-1-38.5-1.4
		c-16.8-0.4-33.6,1.1-50.2,2.6c-10.9,1-21.7,3.1-32.6,4.8c-2.8,0.4-5.6,0.6-8.4,0.3c-10.3-1.3-20.5-2.7-30.8-3.9
		c-2.6-0.3-5.3-0.4-7.9-0.4c-20.8-0.2-41.5-0.3-62.3-0.1c-11.9,0.1-23.7,0.1-35.6-0.2c-23.6-0.6-47,1-70.5,2.2
		c-5.6,0.3-11.1,0.9-16.7,1.4c-1.8,0.2-3.6-0.1-5.4-0.2c-11.6-1.1-23.2-2.7-34.8-3.3c-0.2-0.4-0.7-0.5-1.1-0.4
		c-0.9-0.6-1.7-1.2-1.8-2.3c0.1-1.1,1-1.6,1.9-2.3C37.6,276.2,38,276.2,38.3,276.1z"/>
	<path class="st5" d="M37.1,175.1c-0.8-0.6-1.5-1.3-1.7-2.1c0.2-1.2,1.2-1.7,1.9-2.4c0.3,0,0.7,0,1-0.1c1.8,0.1,3.6,0.2,5.4,0.2
		c22.1,0,44.2,0,66.3,0c3.3,0,6.5,0.4,9.8,1c17,3.5,33.8,7.3,51.1,9.8c12.7,1.9,25.4,3.5,38.3,2.9c13.5-0.6,27,0.1,40.5,1
		c24,1.7,48,2.8,72.1,2.5c11.4-0.1,22.7,0.1,34.1-0.8c12.1-1,24.3-2.1,36.5-2c8.7,0.1,17.5-0.1,26.2-0.4c5.4-0.2,10.9,0,16.1-1.3
		c6.3,0.4,12.5-0.5,18.8-1.1c40.3-1.1,80.4-5.1,121.2-3.9c12.5,7.1,25.3,14.4,37.8,21.6c3-0.4,5.6-2.6,8.2-0.1
		c1.1-3.8,5.1-3.6,7.8-4.8c2.2,0.4,3.1,1.4,2.4,3.4c-2.9,1.4-5.8,3.3-9.8,2.4c-1.7,2.7-5.4,2.6-8.7,4.3c-13-7.4-26.2-14.9-39.5-22.5
		c-19.3-0.1-38.5-0.3-57.8,1.2c-10.2,0.8-20.4,1-30.5,1.5c-2.9-0.3-5.8-0.1-8.6,0.2c-2.1,0.1-4.2,0.2-6.3,0.4
		c-4.6,0.4-9.3-0.5-13.9,0.9c-2.3,0.1-4.6,0-6.9,0.2c-17.5,1.7-35.1,2.6-52.7,2.4c-5.8-0.1-11.5,0-17.3,0.4
		c-11.2,0.7-22.3,2-33.4,2.2c-15.9,0.2-31.9,1-47.9,0.1c-11.2-0.6-22.4-0.7-33.5-1.3c-18.2-1.1-36.4-2.7-54.7-2.2
		c-8.9,0.2-17.7,0.6-26.6-1c-14.3-2.5-28.9-4.1-43-7.4c-7.9-1.9-16-3.3-24-4.9c-1.6-1.1-3.5-0.6-5.2-0.6c-22.5,0-44.9,0-67.4,0
		C41.1,174.9,39.1,175,37.1,175.1z"/>
	<path class="st6" d="M37.2,201.9c-0.9-0.6-1.6-1.2-1.7-2.2c0.1-1.1,1.2-1.6,1.8-2.3c0.4-0.1,0.8-0.2,1.1-0.2
		c6.9-0.8,13.5-2.5,20.2-3.7c9-1.6,17.7-3.6,27.2-3.3c15.9,0.6,31.9,0.5,47.7,2.8c11.8,1.7,23.7,3.2,34.9,7.3
		c7.7,2.9,15.7,5.1,23.1,7.4c9.9-1.8,19.3-3.5,28.6-5.3c5.2-1,10.3-1.8,15.6-1.7c16.1,0.3,32.3,0.3,48.4,0.9
		c12.1,0.5,24.3,0.9,36.4-0.6c9.7-1.2,19.5-2.4,29.4-2.2c20.7,0.5,41.4,1.6,62.2,2.2c5.3,0.2,10.5,0.8,15.7,1.2
		c13.1,0.9,26,3.5,39.3,3c14.8-0.6,29.6-0.5,44.3-2.3c13.7-1.7,27.4-3.2,41.3-3.1c2.1,0,4.3,0.6,6.2-0.6c4,0,8.1,0,12.1,0
		c0.8,1.5,0.3,3.1,1.7,4.1c-6.6,0.3-13.1,0.8-19.7,0.8c-13.4,0.1-26.7,1.4-39.8,3c-15.2,1.9-30.5,1.8-45.8,2.5
		c-10.3,0.5-20.4-1-30.5-2.1c-12.9-1.4-25.9-2.1-38.9-2.6c-17.3-0.6-34.5-1.4-51.8-1.8c-6.2-0.1-12.5,1-18.7,1.5c-8,0.7-16,2-24.1,2
		c-6.6,0-13.2-0.5-19.7-0.7c-15.6-0.4-31.3-0.5-46.9-1c-8.1-0.3-15.6,1.8-23.4,3.1c-6.5,1.1-12.9,2.4-19.3,3.7
		c-2,0.4-3.8,0.3-5.8-0.4c-6.8-2.2-13.7-4.1-20.4-6.6c-11.3-4.2-23.3-5.7-35.3-7.6c-17.8-2.8-35.8-2.4-53.7-2.8
		c-4.4-0.1-8.4,1.1-12.6,1.9c-9.3,1.8-18.6,3.8-27.9,5.7C38,202,37.6,202,37.2,201.9z"/>
	<path class="st7" d="M453.3,182.4c-6.2,0.6-12.5,1.5-18.8,1.1c-0.5-0.7-1.4-0.7-2.2-0.9c-4.5-0.9-9-1.6-13.4-2.7
		c-11.3-3-22.5-6.3-33.8-9.4c-1.4-0.4-2.8-0.8-4.3-0.8c-23.7-0.3-47.4,0.4-71.1,1c-2.3,0.1-4.5-0.1-6.8-0.7
		c-23-6.6-46.3-12.1-69.9-16.6c-2.3-0.4-4.5-0.6-6.8,0c-10.3,2.4-20.7,4.6-31,7.1c-3.1,0.7-5.6,0.6-8.5-0.7
		c-10.7-4.7-21.5-9.3-32.3-14c-1.5-0.6-2.9-1.2-4.6-1.4c-10.6-1-21.2-2.2-31.9-3.3c-1.8-0.2-3.6-0.3-5.4,0c-7.3,0.9-14.6,2.1-21.9,3
		c-5.4,0.6-10.7,2.1-16.1,1.7c-5.9-0.4-11.7-1.5-17.6-2c-6.2-0.5-12.3-1.7-18.6-1.8c-0.3-0.1-0.7-0.1-1-0.2
		c-0.7-0.7-1.7-1.2-1.9-2.3c0.1-1,0.9-1.6,1.8-2.2c0.4,0,0.8-0.1,1.2-0.1c11.9,1.4,23.8,2.7,35.7,4.1c1.5,0.2,2.9,0.1,4.4-0.1
		c7.7-1,15.4-1.6,22.9-3.1c9.2-1.7,18.3-1.4,27.5-0.3c6.8,0.9,13.7,1.6,20.6,2.2c2.5,0.2,4.8,0.8,7,1.8c11.5,5,23,10,34.7,15
		c11.2-2.5,22.5-5,33.8-7.7c3-0.7,5.7-0.7,8.7-0.1c23.5,4.5,46.7,9.9,69.5,16.4c2.2,0.6,4.4,0.9,6.8,0.8c23-0.7,46.1-1.1,69.2-1
		c2.7,0,5.2,0.4,7.7,1.1c11.3,3.2,22.5,6.6,33.9,9.3c10.1,2.4,20.5,4.1,30.8,6.1C452.2,181.9,452.9,181.9,453.3,182.4z"/>
	<path class="st7" d="M572.7,203.2c-1.4-1-0.9-2.6-1.7-4.1c-4,0-8,0-12.1,0c-4.5-1.4-9-2.6-13.4-4.3c-7.3-2.8-14.8-2.8-22.7-2.5
		c-11.9,0.6-23.9,2.3-35.8-0.3c-1.7-0.4-3.6-0.5-5.3-0.9c-8.7-1.5-17.5-2.3-26.1-4.3c4.5-1.4,9.2-0.5,13.9-0.9
		c2.1-0.2,4.2-0.3,6.3-0.4c2.2,0.4,4.3,1.6,6.6,1.2c13.6,3.3,27.4,1.8,41.1,1.2c3.1-0.1,6.2-0.1,9.3-0.4c2.4-0.2,4.5,0.1,6.7,0.8
		c13,3.9,26.1,7.7,39.1,11.6c10.9,4.2,22,7.7,33.2,11.1c2.3,1.2,4.5-0.6,6.8-0.2c0.7,0.3,1.3,0.7,2,1c0.7-0.9,1.4-1.7,2.1-2.5
		c2.7-0.1,5.4,0.1,8-0.8c1.2,1.3,1.5,3-0.5,3.6c-2.8,0.9-5.8,2.3-9.1,0.5c-1.9,3-5.7,2.5-9.1,3.4c-11.4-3.8-22.9-7.7-34.4-11.6
		C576.2,204.1,574.6,203.4,572.7,203.2z"/>
	<path class="st6" d="M612,211.3c-11.2-3.5-22.3-7-33.2-11.1c8.9,1.7,17.8,3.4,26.7,5.2c3.8,0.8,7.6,1.7,11.5,0.8
		c1.2-0.3,2.3,0,3.1,0.8c0.4,1.4,0,2.6-1.4,3.4C616.4,210.4,614.1,210.1,612,211.3z"/>
	<path class="st7" d="M652.8,206c-1,3.6-5,4.5-8.7,1.7c-1.6,3.5-5.6,3.3-9,4.1c-2-0.8-3.3-1.9-1.4-3.8c3.5,1.1,6.7,0.2,9.7-1.3
		c0.4-0.2,0.9-0.4,1.3-0.6C647.5,207.6,650.2,207.2,652.8,206z"/>
	<path class="st5" d="M642.8,193.1c-0.2-1.9,0.8-3,2.7-3.6c1.7-0.5,3.4-1,4.8-1.4c1.8,0.3,2.6,1.1,2.9,2.4c-1.7,2.9-5.3,2.4-7.4,3.5
		C644.2,194.2,643.8,193.1,642.8,193.1L642.8,193.1z"/>
	<path class="st5" d="M642.8,193c-1.2,3.9-5.6,3.3-8,4.6c-1.9-0.3-2.4-1.1-2.9-2.2c1.6-3.2,5.3-2.9,7.6-3.7
		C641.2,191.7,641.5,193.2,642.8,193L642.8,193z"/>
	<path class="st6" d="M643.6,206.8c-3.1,1.4-6.2,2.3-9.7,1.3c-1.3-2-0.8-3.3,1.8-3.8c2.1-0.4,4.2-0.5,5.9-0.7
		C643.4,204.3,644.1,205.3,643.6,206.8z"/>
	<path class="st6" d="M631,208.8c-2.6,0.9-5.3,0.7-8,0.8c-0.8-1-1.3-2.2-0.8-3.4c2.8-1.3,5.8-1.3,8.6-1.2
		C632.4,206.4,632.2,207.6,631,208.8z"/>
	<path class="st6" d="M652.8,206c-2.6,1.2-5.3,1.6-8,0.1c0.9-3.4,0.9-3.4,6.8-3.4C653.1,203.5,653.7,204.6,652.8,206z"/>
</g>
<g class="st2">
	<path class="st5" d="M662.8,184.7h-2v6.3h-0.8v-6.3h-2V184h4.9V184.7z"/>
	<path class="st5" d="M668.9,191h-1l-1.2-2c-0.1-0.2-0.2-0.3-0.3-0.5c-0.1-0.1-0.2-0.2-0.3-0.3c-0.1-0.1-0.2-0.1-0.3-0.2
		s-0.3-0.1-0.4-0.1h-0.7v3h-0.8v-7h2.1c0.3,0,0.6,0,0.8,0.1s0.5,0.2,0.7,0.3s0.3,0.3,0.4,0.6c0.1,0.2,0.2,0.5,0.2,0.8
		c0,0.2,0,0.5-0.1,0.7s-0.2,0.4-0.3,0.5c-0.1,0.2-0.3,0.3-0.5,0.4c-0.2,0.1-0.4,0.2-0.6,0.3v0c0.1,0.1,0.2,0.1,0.3,0.2
		c0.1,0.1,0.2,0.1,0.2,0.2c0.1,0.1,0.2,0.2,0.2,0.3c0.1,0.1,0.2,0.2,0.3,0.4L668.9,191z M664.7,184.7v2.5h1.1c0.2,0,0.4,0,0.6-0.1
		c0.2-0.1,0.3-0.2,0.5-0.3c0.1-0.1,0.2-0.3,0.3-0.4c0.1-0.2,0.1-0.4,0.1-0.6c0-0.4-0.1-0.7-0.4-0.9c-0.2-0.2-0.6-0.3-1.1-0.3H664.7z
		"/>
	<path class="st5" d="M675.3,191h-0.9l-0.7-2h-3l-0.7,2h-0.9l2.7-7h0.8L675.3,191z M673.4,188.3l-1.1-3c0-0.1-0.1-0.3-0.1-0.5h0
		c0,0.2-0.1,0.4-0.1,0.5l-1.1,3H673.4z"/>
	<path class="st5" d="M682,191h-1l-3.6-5.6c-0.1-0.1-0.2-0.3-0.2-0.4h0c0,0.1,0,0.5,0,1v5.1h-0.8v-7h1.1l3.5,5.5
		c0.1,0.2,0.2,0.4,0.3,0.5h0c0-0.2,0-0.5,0-1V184h0.8V191z"/>
	<path class="st5" d="M683.5,190.7v-1c0.1,0.1,0.2,0.2,0.4,0.3c0.2,0.1,0.3,0.1,0.5,0.2c0.2,0.1,0.3,0.1,0.5,0.1c0.2,0,0.3,0,0.5,0
		c0.5,0,0.9-0.1,1.1-0.3s0.4-0.5,0.4-0.8c0-0.2,0-0.4-0.1-0.5c-0.1-0.1-0.2-0.3-0.3-0.4c-0.1-0.1-0.3-0.2-0.5-0.3
		c-0.2-0.1-0.4-0.2-0.6-0.3c-0.2-0.1-0.5-0.2-0.7-0.4c-0.2-0.1-0.4-0.3-0.6-0.4c-0.2-0.2-0.3-0.3-0.4-0.5c-0.1-0.2-0.1-0.4-0.1-0.7
		c0-0.3,0.1-0.6,0.2-0.8c0.1-0.2,0.3-0.4,0.6-0.6c0.2-0.2,0.5-0.3,0.8-0.3c0.3-0.1,0.6-0.1,0.9-0.1c0.7,0,1.2,0.1,1.5,0.2v0.9
		c-0.4-0.3-0.9-0.4-1.6-0.4c-0.2,0-0.4,0-0.5,0.1c-0.2,0-0.3,0.1-0.5,0.2c-0.1,0.1-0.3,0.2-0.3,0.3c-0.1,0.1-0.1,0.3-0.1,0.5
		c0,0.2,0,0.3,0.1,0.5c0.1,0.1,0.2,0.2,0.3,0.4c0.1,0.1,0.3,0.2,0.5,0.3c0.2,0.1,0.4,0.2,0.6,0.3c0.2,0.1,0.5,0.3,0.7,0.4
		s0.4,0.3,0.6,0.5c0.2,0.2,0.3,0.3,0.4,0.6c0.1,0.2,0.1,0.4,0.1,0.7c0,0.3-0.1,0.6-0.2,0.9c-0.1,0.2-0.3,0.4-0.5,0.6
		c-0.2,0.1-0.5,0.3-0.8,0.3c-0.3,0.1-0.6,0.1-0.9,0.1c-0.1,0-0.2,0-0.4,0c-0.2,0-0.3,0-0.5-0.1c-0.2,0-0.3-0.1-0.5-0.1
		C683.7,190.8,683.6,190.8,683.5,190.7z"/>
	<path class="st5" d="M689.9,188.3v2.6h-0.8v-7h1.9c0.7,0,1.3,0.2,1.7,0.5c0.4,0.4,0.6,0.9,0.6,1.5s-0.2,1.2-0.7,1.6
		c-0.5,0.4-1.1,0.6-1.9,0.6H689.9z M689.9,184.7v2.9h0.9c0.6,0,1-0.1,1.3-0.4c0.3-0.3,0.4-0.6,0.4-1.1c0-0.9-0.5-1.4-1.6-1.4H689.9z
		"/>
	<path class="st5" d="M697.5,191.1c-1,0-1.8-0.3-2.4-1c-0.6-0.7-0.9-1.5-0.9-2.6c0-1.1,0.3-2,0.9-2.7c0.6-0.7,1.4-1,2.5-1
		c1,0,1.7,0.3,2.3,1c0.6,0.7,0.9,1.5,0.9,2.6c0,1.1-0.3,2-0.9,2.7S698.5,191.1,697.5,191.1z M697.6,184.6c-0.7,0-1.3,0.3-1.8,0.8
		c-0.5,0.5-0.7,1.2-0.7,2.1c0,0.9,0.2,1.6,0.7,2.1c0.4,0.5,1,0.8,1.8,0.8c0.8,0,1.4-0.3,1.8-0.8c0.4-0.5,0.7-1.2,0.7-2.1
		c0-0.9-0.2-1.6-0.6-2.1C698.9,184.8,698.3,184.6,697.6,184.6z"/>
	<path class="st5" d="M707.3,191h-1l-1.2-2c-0.1-0.2-0.2-0.3-0.3-0.5c-0.1-0.1-0.2-0.2-0.3-0.3c-0.1-0.1-0.2-0.1-0.3-0.2
		s-0.3-0.1-0.4-0.1h-0.7v3h-0.8v-7h2.1c0.3,0,0.6,0,0.8,0.1s0.5,0.2,0.7,0.3s0.3,0.3,0.4,0.6c0.1,0.2,0.2,0.5,0.2,0.8
		c0,0.2,0,0.5-0.1,0.7s-0.2,0.4-0.3,0.5c-0.1,0.2-0.3,0.3-0.5,0.4c-0.2,0.1-0.4,0.2-0.6,0.3v0c0.1,0.1,0.2,0.1,0.3,0.2
		c0.1,0.1,0.2,0.1,0.2,0.2c0.1,0.1,0.2,0.2,0.2,0.3c0.1,0.1,0.2,0.2,0.3,0.4L707.3,191z M703.1,184.7v2.5h1.1c0.2,0,0.4,0,0.6-0.1
		c0.2-0.1,0.3-0.2,0.5-0.3c0.1-0.1,0.2-0.3,0.3-0.4c0.1-0.2,0.1-0.4,0.1-0.6c0-0.4-0.1-0.7-0.4-0.9c-0.2-0.2-0.6-0.3-1.1-0.3H703.1z
		"/>
	<path class="st5" d="M711.9,184.7h-2v6.3h-0.8v-6.3h-2V184h4.9V184.7z"/>
	<path class="st5" d="M717.8,191h-0.9l-0.7-2h-3l-0.7,2h-0.9l2.7-7h0.8L717.8,191z M715.8,188.3l-1.1-3c0-0.1-0.1-0.3-0.1-0.5h0
		c0,0.2-0.1,0.4-0.1,0.5l-1.1,3H715.8z"/>
	<path class="st5" d="M722.2,184.7h-2v6.3h-0.8v-6.3h-2V184h4.9V184.7z"/>
	<path class="st5" d="M724.1,191h-0.8v-7h0.8V191z"/>
	<path class="st5" d="M728.8,191.1c-1,0-1.8-0.3-2.4-1c-0.6-0.7-0.9-1.5-0.9-2.6c0-1.1,0.3-2,0.9-2.7c0.6-0.7,1.4-1,2.5-1
		c1,0,1.7,0.3,2.3,1c0.6,0.7,0.9,1.5,0.9,2.6c0,1.1-0.3,2-0.9,2.7S729.8,191.1,728.8,191.1z M728.9,184.6c-0.7,0-1.3,0.3-1.8,0.8
		c-0.5,0.5-0.7,1.2-0.7,2.1c0,0.9,0.2,1.6,0.7,2.1c0.4,0.5,1,0.8,1.8,0.8c0.8,0,1.4-0.3,1.8-0.8c0.4-0.5,0.7-1.2,0.7-2.1
		c0-0.9-0.2-1.6-0.6-2.1C730.2,184.8,729.6,184.6,728.9,184.6z"/>
	<path class="st5" d="M739.2,191h-1l-3.6-5.6c-0.1-0.1-0.2-0.3-0.2-0.4h0c0,0.1,0,0.5,0,1v5.1h-0.8v-7h1.1l3.5,5.5
		c0.1,0.2,0.2,0.4,0.3,0.5h0c0-0.2,0-0.5,0-1V184h0.8V191z"/>
</g>
<g class="st2">
	<path class="st7" d="M659.5,202.3v2.6h-0.8v-7h1.9c0.7,0,1.3,0.2,1.7,0.5c0.4,0.4,0.6,0.9,0.6,1.5s-0.2,1.2-0.7,1.6
		c-0.5,0.4-1.1,0.6-1.9,0.6H659.5z M659.5,198.7v2.9h0.9c0.6,0,1-0.1,1.3-0.4c0.3-0.3,0.4-0.6,0.4-1.1c0-0.9-0.5-1.4-1.6-1.4H659.5z
		"/>
	<path class="st7" d="M667.1,205.1c-1,0-1.8-0.3-2.4-1c-0.6-0.7-0.9-1.5-0.9-2.6c0-1.1,0.3-2,0.9-2.7c0.6-0.7,1.4-1,2.5-1
		c1,0,1.7,0.3,2.3,1c0.6,0.7,0.9,1.5,0.9,2.6c0,1.1-0.3,2-0.9,2.7S668.1,205.1,667.1,205.1z M667.1,198.6c-0.7,0-1.3,0.3-1.8,0.8
		c-0.5,0.5-0.7,1.2-0.7,2.1c0,0.9,0.2,1.6,0.7,2.1c0.4,0.5,1,0.8,1.8,0.8c0.8,0,1.4-0.3,1.8-0.8c0.4-0.5,0.7-1.2,0.7-2.1
		c0-0.9-0.2-1.6-0.6-2.1C668.5,198.8,667.9,198.6,667.1,198.6z"/>
	<path class="st7" d="M679.8,198l-2,7h-1l-1.4-5.1c-0.1-0.2-0.1-0.5-0.1-0.7h0c0,0.2-0.1,0.5-0.1,0.7l-1.5,5.1h-1l-2.1-7h0.9
		l1.5,5.4c0.1,0.2,0.1,0.5,0.1,0.7h0c0-0.2,0.1-0.4,0.2-0.7l1.5-5.4h0.8l1.5,5.4c0.1,0.2,0.1,0.4,0.1,0.7h0c0-0.2,0.1-0.4,0.1-0.7
		l1.4-5.4H679.8z"/>
	<path class="st7" d="M684.6,205h-3.7v-7h3.6v0.7h-2.7v2.3h2.5v0.7h-2.5v2.5h2.9V205z"/>
	<path class="st7" d="M691,205h-1l-1.2-2c-0.1-0.2-0.2-0.3-0.3-0.5c-0.1-0.1-0.2-0.2-0.3-0.3c-0.1-0.1-0.2-0.1-0.3-0.2
		s-0.3-0.1-0.4-0.1h-0.7v3h-0.8v-7h2.1c0.3,0,0.6,0,0.8,0.1s0.5,0.2,0.7,0.3s0.3,0.3,0.4,0.6c0.1,0.2,0.2,0.5,0.2,0.8
		c0,0.2,0,0.5-0.1,0.7s-0.2,0.4-0.3,0.5c-0.1,0.2-0.3,0.3-0.5,0.4c-0.2,0.1-0.4,0.2-0.6,0.3v0c0.1,0.1,0.2,0.1,0.3,0.2
		c0.1,0.1,0.2,0.1,0.2,0.2c0.1,0.1,0.2,0.2,0.2,0.3c0.1,0.1,0.2,0.2,0.3,0.4L691,205z M686.8,198.7v2.5h1.1c0.2,0,0.4,0,0.6-0.1
		c0.2-0.1,0.3-0.2,0.5-0.3c0.1-0.1,0.2-0.3,0.3-0.4c0.1-0.2,0.1-0.4,0.1-0.6c0-0.4-0.1-0.7-0.4-0.9c-0.2-0.2-0.6-0.3-1.1-0.3H686.8z
		"/>
	<path class="st7" d="M695.7,200l-2,5H693l-1.9-5h0.9l1.3,3.6c0.1,0.3,0.2,0.5,0.2,0.7h0c0-0.3,0.1-0.5,0.2-0.7l1.3-3.7H695.7z"/>
</g>
<g class="st2">
	<path class="st6" d="M659.5,216h-0.8v-7h0.8V216z"/>
	<path class="st6" d="M667,216h-1l-3.6-5.6c-0.1-0.1-0.2-0.3-0.2-0.4h0c0,0.1,0,0.5,0,1v5.1h-0.8v-7h1.1l3.5,5.5
		c0.1,0.2,0.2,0.4,0.3,0.5h0c0-0.2,0-0.5,0-1V209h0.8V216z"/>
	<path class="st6" d="M668.8,216v-7h1.9c2.5,0,3.7,1.1,3.7,3.4c0,1.1-0.3,1.9-1,2.6c-0.7,0.7-1.6,1-2.8,1H668.8z M669.6,209.7v5.5h1
		c0.9,0,1.6-0.2,2.1-0.7c0.5-0.5,0.8-1.2,0.8-2.1c0-1.8-1-2.7-2.9-2.7H669.6z"/>
	<path class="st6" d="M680.9,213.1c0,2-0.9,2.9-2.7,2.9c-1.7,0-2.5-0.9-2.5-2.8V209h0.8v4.2c0,1.4,0.6,2.2,1.8,2.2
		c1.2,0,1.8-0.7,1.8-2.1V209h0.8V213.1z"/>
	<path class="st6" d="M682.3,215.7v-1c0.1,0.1,0.2,0.2,0.4,0.3c0.2,0.1,0.3,0.1,0.5,0.2c0.2,0.1,0.3,0.1,0.5,0.1c0.2,0,0.3,0,0.5,0
		c0.5,0,0.9-0.1,1.1-0.3s0.4-0.5,0.4-0.8c0-0.2,0-0.4-0.1-0.5c-0.1-0.1-0.2-0.3-0.3-0.4c-0.1-0.1-0.3-0.2-0.5-0.3
		c-0.2-0.1-0.4-0.2-0.6-0.3c-0.2-0.1-0.5-0.2-0.7-0.4c-0.2-0.1-0.4-0.3-0.6-0.4c-0.2-0.2-0.3-0.3-0.4-0.5c-0.1-0.2-0.1-0.4-0.1-0.7
		c0-0.3,0.1-0.6,0.2-0.8c0.1-0.2,0.3-0.4,0.6-0.6c0.2-0.2,0.5-0.3,0.8-0.3c0.3-0.1,0.6-0.1,0.9-0.1c0.7,0,1.2,0.1,1.5,0.2v0.9
		c-0.4-0.3-0.9-0.4-1.6-0.4c-0.2,0-0.4,0-0.5,0.1c-0.2,0-0.3,0.1-0.5,0.2c-0.1,0.1-0.3,0.2-0.3,0.3c-0.1,0.1-0.1,0.3-0.1,0.5
		c0,0.2,0,0.3,0.1,0.5c0.1,0.1,0.2,0.2,0.3,0.4c0.1,0.1,0.3,0.2,0.5,0.3c0.2,0.1,0.4,0.2,0.6,0.3c0.2,0.1,0.5,0.3,0.7,0.4
		s0.4,0.3,0.6,0.5c0.2,0.2,0.3,0.3,0.4,0.6c0.1,0.2,0.1,0.4,0.1,0.7c0,0.3-0.1,0.6-0.2,0.9c-0.1,0.2-0.3,0.4-0.5,0.6
		c-0.2,0.1-0.5,0.3-0.8,0.3c-0.3,0.1-0.6,0.1-0.9,0.1c-0.1,0-0.2,0-0.4,0c-0.2,0-0.3,0-0.5-0.1c-0.2,0-0.3-0.1-0.5-0.1
		C682.6,215.8,682.4,215.8,682.3,215.7z"/>
	<path class="st6" d="M692.1,209.7h-2v6.3h-0.8v-6.3h-2V209h4.9V209.7z"/>
	<path class="st6" d="M698.2,216h-1l-1.2-2c-0.1-0.2-0.2-0.3-0.3-0.5c-0.1-0.1-0.2-0.2-0.3-0.3c-0.1-0.1-0.2-0.1-0.3-0.2
		s-0.3-0.1-0.4-0.1H694v3h-0.8v-7h2.1c0.3,0,0.6,0,0.8,0.1s0.5,0.2,0.7,0.3s0.3,0.3,0.4,0.6c0.1,0.2,0.2,0.5,0.2,0.8
		c0,0.2,0,0.5-0.1,0.7s-0.2,0.4-0.3,0.5c-0.1,0.2-0.3,0.3-0.5,0.4c-0.2,0.1-0.4,0.2-0.6,0.3v0c0.1,0.1,0.2,0.1,0.3,0.2
		c0.1,0.1,0.2,0.1,0.2,0.2c0.1,0.1,0.2,0.2,0.2,0.3c0.1,0.1,0.2,0.2,0.3,0.4L698.2,216z M694,209.7v2.5h1.1c0.2,0,0.4,0,0.6-0.1
		c0.2-0.1,0.3-0.2,0.5-0.3c0.1-0.1,0.2-0.3,0.3-0.4c0.1-0.2,0.1-0.4,0.1-0.6c0-0.4-0.1-0.7-0.4-0.9c-0.2-0.2-0.6-0.3-1.1-0.3H694z"
		/>
	<path class="st6" d="M703.6,209l-2.3,4.4v2.6h-0.8v-2.6l-2.3-4.4h0.9l1.6,3.2c0,0,0.1,0.2,0.2,0.4h0c0-0.1,0.1-0.3,0.2-0.4l1.6-3.2
		H703.6z"/>
</g>
<g class="st2">
	<path class="st4" d="M658.6,278v-7h2c0.6,0,1.1,0.1,1.4,0.4c0.4,0.3,0.5,0.7,0.5,1.2c0,0.4-0.1,0.7-0.3,1s-0.5,0.5-0.9,0.6v0
		c0.5,0.1,0.8,0.2,1.1,0.5s0.4,0.7,0.4,1.2c0,0.6-0.2,1.1-0.6,1.5s-1,0.6-1.6,0.6H658.6z M659.5,271.7v2.3h0.8
		c0.4,0,0.8-0.1,1.1-0.3c0.3-0.2,0.4-0.5,0.4-0.9c0-0.7-0.4-1-1.3-1H659.5z M659.5,274.7v2.5h1.1c0.5,0,0.9-0.1,1.1-0.3
		c0.3-0.2,0.4-0.5,0.4-0.9c0-0.8-0.6-1.2-1.7-1.2H659.5z"/>
	<path class="st4" d="M669.5,275.1c0,2-0.9,2.9-2.7,2.9c-1.7,0-2.5-0.9-2.5-2.8V271h0.8v4.2c0,1.4,0.6,2.2,1.8,2.2
		c1.2,0,1.8-0.7,1.8-2.1V271h0.8V275.1z"/>
	<path class="st4" d="M672.1,278h-0.8v-7h0.8V278z"/>
	<path class="st4" d="M677.5,278h-3.6v-7h0.8v6.3h2.8V278z"/>
	<path class="st4" d="M678.6,278v-7h1.9c2.5,0,3.7,1.1,3.7,3.4c0,1.1-0.3,1.9-1,2.6c-0.7,0.7-1.6,1-2.8,1H678.6z M679.4,271.7v5.5h1
		c0.9,0,1.6-0.2,2.1-0.7c0.5-0.5,0.8-1.2,0.8-2.1c0-1.8-1-2.7-2.9-2.7H679.4z"/>
	<path class="st4" d="M686.4,278h-0.8v-7h0.8V278z"/>
	<path class="st4" d="M693.9,278h-1l-3.6-5.6c-0.1-0.1-0.2-0.3-0.2-0.4h0c0,0.1,0,0.5,0,1v5.1h-0.8v-7h1.1l3.5,5.5
		c0.1,0.2,0.2,0.4,0.3,0.5h0c0-0.2,0-0.5,0-1V271h0.8V278z"/>
	<path class="st4" d="M701,277.5c-0.7,0.4-1.5,0.6-2.3,0.6c-1,0-1.8-0.3-2.4-1c-0.6-0.6-0.9-1.5-0.9-2.6c0-1.1,0.3-2,1-2.7
		c0.7-0.7,1.6-1,2.6-1c0.8,0,1.4,0.1,1.9,0.4v0.9c-0.6-0.4-1.2-0.5-2-0.5c-0.8,0-1.4,0.3-1.9,0.8c-0.5,0.5-0.8,1.2-0.8,2.1
		c0,0.9,0.2,1.6,0.7,2.1c0.5,0.5,1.1,0.8,1.9,0.8c0.5,0,1-0.1,1.4-0.3v-2h-1.5v-0.7h2.4V277.5z"/>
	<path class="st4" d="M702.3,277.7v-1c0.1,0.1,0.2,0.2,0.4,0.3c0.2,0.1,0.3,0.1,0.5,0.2c0.2,0.1,0.3,0.1,0.5,0.1c0.2,0,0.3,0,0.5,0
		c0.5,0,0.9-0.1,1.1-0.3s0.4-0.5,0.4-0.8c0-0.2,0-0.4-0.1-0.5c-0.1-0.1-0.2-0.3-0.3-0.4c-0.1-0.1-0.3-0.2-0.5-0.3
		c-0.2-0.1-0.4-0.2-0.6-0.3c-0.2-0.1-0.5-0.2-0.7-0.4c-0.2-0.1-0.4-0.3-0.6-0.4c-0.2-0.2-0.3-0.3-0.4-0.5c-0.1-0.2-0.1-0.4-0.1-0.7
		c0-0.3,0.1-0.6,0.2-0.8c0.1-0.2,0.3-0.4,0.6-0.6c0.2-0.2,0.5-0.3,0.8-0.3c0.3-0.1,0.6-0.1,0.9-0.1c0.7,0,1.2,0.1,1.5,0.2v0.9
		c-0.4-0.3-0.9-0.4-1.6-0.4c-0.2,0-0.4,0-0.5,0.1c-0.2,0-0.3,0.1-0.5,0.2c-0.1,0.1-0.3,0.2-0.3,0.3c-0.1,0.1-0.1,0.3-0.1,0.5
		c0,0.2,0,0.3,0.1,0.5c0.1,0.1,0.2,0.2,0.3,0.4c0.1,0.1,0.3,0.2,0.5,0.3c0.2,0.1,0.4,0.2,0.6,0.3c0.2,0.1,0.5,0.3,0.7,0.4
		s0.4,0.3,0.6,0.5c0.2,0.2,0.3,0.3,0.4,0.6c0.1,0.2,0.1,0.4,0.1,0.7c0,0.3-0.1,0.6-0.2,0.9c-0.1,0.2-0.3,0.4-0.5,0.6
		c-0.2,0.1-0.5,0.3-0.8,0.3c-0.3,0.1-0.6,0.1-0.9,0.1c-0.1,0-0.2,0-0.4,0c-0.2,0-0.3,0-0.5-0.1c-0.2,0-0.3-0.1-0.5-0.1
		C702.5,277.8,702.4,277.8,702.3,277.7z"/>
</g>
</svg>
