<?xml version="1.0" encoding="utf-8"?>
<!-- Generator: Adobe Illustrator 23.1.0, SVG Export Plug-In . SVG Version: 6.00 Build 0)  -->
<svg  xmlns="http://www.w3.org/2000/svg" x="0px" y="0px" viewBox="0 0 512 512" >
	 <g>
	<g>
		<path  d="M424.6,11.1c-51.4,0-102.9,0-154.3,0c4.8,50.2,5.9,100.6,9.6,150.9c74,0,147.9,0,221.9,0
			c-17.7-44.5-34.4-89.4-53.3-133.5C444.1,19.4,434.9,11.8,424.6,11.1z"/>
		<path  d="M237.2,11.1c-51.4,0-102.9,0-154.3,0c-9.7,0.5-18.8,6.8-23,15.5C40.9,71.4,23.5,116.8,5.7,162
			c74,0,147.9,0,221.9,0C229.7,111.6,235.3,61.5,237.2,11.1z"/>
	</g>
</g>
<path  d="M5.7,200.5v285.2c0,9.2,7.5,16.7,16.7,16.7h462.6c9.2,0,16.7-7.5,16.7-16.7V200.5H5.7z M265.5,468.1
	c-1,0-110.8-0.1-110.8-0.1v-54c0,0,109.8,0.2,110.8,0.2c18.4,0,33.3-19.9,33.3-38.3s-14.9-38.3-33.3-38.3c-1,0-2,0.1-2.9,0.1
	c0,16.2,0,28.5,0,29.4c0,11.7-5.4,16.2-5.4,16.2c-7.2,7.2-18.9,7.2-26.1,0l-58.6-58.6c-7.2-7.2-7.2-18.9,0-26.1l58.7-58.6
	c7.2-7.2,18.9-7.2,26.1,0c0,0,5.4,6.7,5.4,15.1c0,0.7,0,12.7,0,28.6c1,0,1.9-0.1,2.9-0.1c48.2,0,87.2,44,87.2,92.2
	C352.7,424.1,313.7,468.1,265.5,468.1z"/>
</svg>
