<?xml version="1.0" encoding="utf-8"?>
<!-- Generator: Adobe Illustrator 23.1.0, SVG Export Plug-In . SVG Version: 6.00 Build 0)  -->
<svg version="1.1" id="Layer_1" focusable="false" xmlns="http://www.w3.org/2000/svg" xmlns:xlink="http://www.w3.org/1999/xlink"
	 x="0px" y="0px" viewBox="0 0 512 512" style="enable-background:new 0 0 512 512;">
	 <g fill="#fff">
	<path  d="M143.9,486H22.2V341.5c0-8.3,6.7-15,15-15h91.7c8.3,0,15,6.7,15,15V486z"/>
	<path  d="M491,486H369.3V226c0-8.3,6.7-15,15-15H476c8.3,0,15,6.7,15,15V486z"/>
</g>
<path fill="#fff" d="M317.4,486H195.7V302.2c0-8.3,6.7-15,15-15h91.7c8.3,0,15,6.7,15,15V486z"/>
<path fill="#fff" d="M378.4,42.1c0,0-0.6,6.6,7.2,14.4c1.7,1.7,6,6,11.7,11.7c0,0-77.5,60.8-171.4,97S40,206,40,206
	c-9.8,0-17.8,8-17.8,17.8v35.4c0,9.8,8,17.8,17.8,17.8c0,0,126.3-11.3,213-45s194.5-113.5,194.5-113.5c6.4,6.4,11.1,11.1,12.5,12.5
	c5.6,5.6,13.6,6.4,13.6,6.4c9.6,0,17.4-7.8,17.4-17.4l0.1-81.9c0-9.6-3.8-13.4-13.4-13.4l-81.9,0C386.1,24.8,378.3,32.5,378.4,42.1z
	"/>
</svg>
