<?xml version="1.0" encoding="utf-8"?>
<!-- Generator: Adobe Illustrator 23.1.0, SVG Export Plug-In . SVG Version: 6.00 Build 0)  -->
<svg version="1.1" id="Layer_1" focusable="false" xmlns="http://www.w3.org/2000/svg" x="0px" y="0px" viewBox="0 0 512 512">
<g>
	<g>
		<path  d="M424.6,11.1c-51.4,0-102.9,0-154.3,0c4.8,50.2,5.9,100.6,9.6,150.9c74,0,147.9,0,221.9,0
			c-17.7-44.5-34.4-89.4-53.3-133.5C444.1,19.4,434.9,11.8,424.6,11.1z"/>
		<path  d="M237.2,11.1c-51.4,0-102.9,0-154.3,0c-9.7,0.5-18.8,6.8-23,15.5C40.9,71.4,23.5,116.8,5.7,162
			c74,0,147.9,0,221.9,0C229.7,111.6,235.3,61.5,237.2,11.1z"/>
	</g>
</g>
<path  d="M5.7,200.5v285.2c0,9.2,7.5,16.7,16.7,16.7H485c9.2,0,16.7-7.5,16.7-16.7V200.5H5.7z M374.2,273.8
	c-14.2,21.3-28.5,42.5-42.9,63.7c-28.2,41.4-56.4,82.8-84.7,124.2c-8.1,11.8-20.7,13.4-30.9,3.4c-25.7-25.3-51.2-50.9-76.6-76.5
	c-5.4-5.4-5.5-11.7-0.3-17.3c6.3-6.7,12.8-13.3,19.5-19.5c5.3-4.9,11.8-4.6,16.9,0.4c15.2,14.9,30.4,29.8,45.6,44.8
	c1.3,1.2,2.6,2.4,4.3,4.1c5.1-7.4,9.9-14.6,14.7-21.7c30.2-44.2,60.3-88.5,90.5-132.7c7-10.2,12.8-11.2,23-4.3
	c6,4,11.9,8.2,17.6,12.5C377.9,260.2,379.1,266.5,374.2,273.8z"/>
</svg>
