<?xml version="1.0" encoding="utf-8"?>
<!-- Generator: Adobe Illustrator 23.1.0, SVG Export Plug-In . SVG Version: 6.00 Build 0)  -->
<svg version="1.1" id="Layer_1" focusable="false" xmlns="http://www.w3.org/2000/svg" xmlns:xlink="http://www.w3.org/1999/xlink"
	 x="0px" y="0px" viewBox="0 0 512 512" style="enable-background:new 0 0 512 512;" xml:space="preserve">
<style type="text/css">
	.st0{fill:#330000;}
</style>
<path class="st0" d="M412.7,232.9c0,0-9.8-11.9-35.5-11.9c-5.6,0-19.7,0-38.5,0v-89.5c0-22.9-18.6-41.5-41.5-41.5h-82.3
	c-22.9,0-41.5,18.6-41.5,41.5V221c-21.1,0-36.6,0-41.1,0c-18.4,0-33,11.8-33,11.8c-15.8,15.8-15.8,41.4,0,57.1l128.1,128.3
	c15.8,15.8,41.4,15.8,57.1,0L412.7,290C428.5,274.2,428.5,248.6,412.7,232.9z"/>
</svg>
