<?xml version="1.0" encoding="utf-8"?>
<!-- Generator: Adobe Illustrator 23.1.0, SVG Export Plug-In . SVG Version: 6.00 Build 0)  -->
<svg version="1.1" id="Layer_1" focusable="false" xmlns="http://www.w3.org/2000/svg" xmlns:xlink="http://www.w3.org/1999/xlink"
	 x="0px" y="0px" viewBox="0 0 512 512" style="enable-background:new 0 0 512 512;" xml:space="preserve">
<style type="text/css">
	.st0{fill:#A35C2E;}
</style>
<path class="st0" d="M368.1,131.3L368.1,131.3c16,0,28.9-12.9,28.9-28.9V33.3c0-16-12.9-28.9-28.9-28.9h0c-16,0-28.9,12.9-28.9,28.9
	v69.2C339.2,118.4,352.2,131.3,368.1,131.3z M478.5,90H432v12.4c0,35.2-28.7,63.9-63.9,63.9c-35.2,0-63.9-28.7-63.9-63.9V90h-96.5
	v12.4c0,35.2-28.7,63.9-63.9,63.9S80,137.7,80,102.4V90H33.5C19.4,90,8,101.4,8,115.5v366C8,495.6,19.4,507,33.5,507h445
	c14.1,0,25.5-11.4,25.5-25.5v-366C504,101.4,492.6,90,478.5,90z M207.8,416.7c0,14.1-11.4,25.5-25.5,25.5h-76.8
	c-14.1,0-25.5-11.4-25.5-25.5v-35.2c0-14.1,11.4-25.5,25.5-25.5h76.8c14.1,0,25.5,11.4,25.5,25.5V416.7z M207.8,278.8
	c0,14.1-11.4,25.5-25.5,25.5h-76.8c-14.1,0-25.5-11.4-25.5-25.5v-35.2c0-14.1,11.4-25.5,25.5-25.5h76.8c14.1,0,25.5,11.4,25.5,25.5
	V278.8z M432,416.7c0,14.1-11.4,25.5-25.5,25.5h-76.8c-14.1,0-25.5-11.4-25.5-25.5v-35.2c0-14.1,11.4-25.5,25.5-25.5h76.8
	c14.1,0,25.5,11.4,25.5,25.5V416.7z M432,278.8c0,14.1-11.4,25.5-25.5,25.5h-76.8c-14.1,0-25.5-11.4-25.5-25.5v-35.2
	c0-14.1,11.4-25.5,25.5-25.5h76.8c14.1,0,25.5,11.4,25.5,25.5V278.8z M143.9,131.3L143.9,131.3c16,0,28.9-12.9,28.9-28.9V33.3
	c0-16-12.9-28.9-28.9-28.9h0c-16,0-28.9,12.9-28.9,28.9v69.2C115,118.4,127.9,131.3,143.9,131.3z"/>
</svg>
