<?xml version="1.0" encoding="utf-8"?>
<!-- Generator: Adobe Illustrator 23.1.0, SVG Export Plug-In . SVG Version: 6.00 Build 0)  -->
<svg version="1.1" id="Layer_1" focusable="false" xmlns="http://www.w3.org/2000/svg" xmlns:xlink="http://www.w3.org/1999/xlink"
	 x="0px" y="0px" viewBox="0 0 512 512" style="enable-background:new 0 0 512 512;" xml:space="preserve">
<style type="text/css">
	.st0{fill:#330000;}
</style>
<path class="st0" d="M131.5,265.4c-5.4,0-10.2-2.1-13.8-5.7l-0.1-0.1l-0.1-0.1c-3.5-3.5-5.7-8.3-5.7-13.7V99.5H39.7
	c-14.5,0-26.3,11.8-26.3,26.4v347.9c0,14.5,11.8,26.4,26.3,26.4h212.9c14.5,0,26.4-11.8,26.4-26.4V265.4H131.5z M169.8,99.5h-1.1
	v109.2h110.3L169.8,99.5z"/>
<g>
	<polygon class="st0" points="391.7,13.5 390.6,13.5 390.6,122.6 500.9,122.6 	"/>
	<path class="st0" d="M353.5,179.4c-5.4,0-10.2-2.1-13.8-5.7l-0.1-0.1l-0.1-0.1c-3.5-3.5-5.7-8.3-5.7-13.7v-0.1V13.5h-72.2
		c-14.5,0-26.3,11.8-26.3,26.4v75.7l78,78v220.5h161.2c14.5,0,26.4-11.8,26.4-26.4V179.4H353.5z"/>
</g>
</svg>
