<?xml version="1.0" encoding="utf-8"?>
<!-- Generator: Adobe Illustrator 23.1.0, SVG Export Plug-In . SVG Version: 6.00 Build 0)  -->
<svg version="1.1" id="Layer_1" focusable="false" xmlns="http://www.w3.org/2000/svg" xmlns:xlink="http://www.w3.org/1999/xlink"
	 x="0px" y="0px" viewBox="0 0 512 512" style="enable-background:new 0 0 512 512;" xml:space="preserve">
<style type="text/css">
	.st0{fill:#330000;}
</style>
<path class="st0" d="M256,8C119,8,8,119,8,256s111,248,248,248s248-111,248-248S393,8,256,8z M136.2,119.4h239.6
	c25.1,0,45.8,18.7,48.8,43c-12.7,10.1-26.7,21-41.2,31.9c-97.6,73.2-125.7,75.5-127.4,75.6c-1.7-0.1-29.8-2.5-127.4-75.6
	c-14.5-10.9-28.5-21.8-41.2-31.9C90.4,138.2,111.1,119.4,136.2,119.4z M87,211.7c17.2,13.3,35.7,27,54.1,39.8L87,305.6V211.7z
	 M375.8,392.6H136.2c-21.9,0-40.4-14.3-46.8-34.1l84.9-84.9c32.9,20.6,62.9,35.3,81.7,35.3s48.8-14.7,81.7-35.3l84.9,84.9
	C416.3,378.3,397.7,392.6,375.8,392.6z M425,305.7l-54.1-54.1c18.4-12.9,36.9-26.6,54.1-39.8V305.7z"/>
</svg>
