<?xml version="1.0" encoding="utf-8"?>
<!-- Generator: Adobe Illustrator 23.1.0, SVG Export Plug-In . SVG Version: 6.00 Build 0)  -->
<svg version="1.1" id="Layer_1" focusable="false" xmlns="http://www.w3.org/2000/svg" xmlns:xlink="http://www.w3.org/1999/xlink"
	 x="0px" y="0px" viewBox="0 0 512 512" style="enable-background:new 0 0 512 512;" xml:space="preserve">
<style type="text/css">
	.st0{fill:#A35C2E;}
</style>
<path class="st0" d="M237.2,11.1H82.9c-9.7,0.5-18.8,6.8-23,15.5C40.9,71.4,23.5,116.8,5.7,162h221.9
	C229.7,111.6,235.3,61.5,237.2,11.1z M501.8,162c-17.7-44.5-34.4-89.4-53.3-133.5c-4.4-9.1-13.6-16.7-23.9-17.4H270.3
	c4.8,50.2,5.9,100.6,9.6,150.9H501.8z M5.7,485.7c0,9.2,7.5,16.7,16.7,16.7h439.7L413,453.3c-43.1,24.8-98.9,18.7-135.7-18.1
	c-44-44-44-115.3,0-159.3s115.3-44,159.3,0c36.8,36.8,42.8,92.6,18.1,135.7l47,47v-258H5.7V485.7z M313.5,312.1
	c-24,24-24,62.8,0,86.8s62.8,24,86.8,0s24-62.8,0-86.8C376.4,288.1,337.5,288.1,313.5,312.1z"/>
</svg>
