<?xml version="1.0" encoding="utf-8"?>
<!-- Generator: Adobe Illustrator 23.1.0, SVG Export Plug-In . SVG Version: 6.00 Build 0)  -->
<svg version="1.1" id="Layer_1" focusable="false" xmlns="http://www.w3.org/2000/svg" xmlns:xlink="http://www.w3.org/1999/xlink"
	 x="0px" y="0px" viewBox="0 0 512 512" style="enable-background:new 0 0 512 512;" xml:space="preserve">
<style type="text/css">
	.st0{fill:#A35C2E;}
</style>
<path class="st0" d="M432.7,20.9c-23.6-23.6-61.8-23.6-85.3,0l-183,183V29.8c0-14.7-11.9-26.6-26.6-26.6H88.3
	c-14.7,0-26.6,11.9-26.6,26.6v450.2c0,14.7,11.9,26.6,26.6,26.6h49.4c14.7,0,26.6-11.9,26.6-26.6V306.2L347.2,489
	c23.6,23.6,61.8,23.6,85.3,0c0,0,17.8-14.6,17.8-53c0-8.3,0-359.1,0-365.8C450.3,42.7,432.7,20.9,432.7,20.9z"/>
</svg>
