<?xml version="1.0" encoding="utf-8"?>
<!-- Generator: Adobe Illustrator 23.1.0, SVG Export Plug-In . SVG Version: 6.00 Build 0)  -->
<svg version="1.1" id="Layer_1" focusable="false" xmlns="http://www.w3.org/2000/svg" xmlns:xlink="http://www.w3.org/1999/xlink"
	 x="0px" y="0px" viewBox="0 0 512 512" style="enable-background:new 0 0 512 512;" xml:space="preserve">
<style type="text/css">
	.st0{fill:#330000;}
</style>
<g>
	<path class="st0" d="M162.9,316.6h-9.3v32.7h9.3c12.6,0,18.9-5.5,18.9-16.5C181.8,322,175.5,316.6,162.9,316.6z"/>
	<polygon class="st0" points="283.3,23 282,23 282,150 410.3,150 	"/>
	<path class="st0" d="M249.8,316.6h-9.3v32.7h9.3c12.6,0,18.9-5.5,18.9-16.5C268.7,322,262.4,316.6,249.8,316.6z"/>
	<path class="st0" d="M238.8,216c-6.3,0-11.9-2.5-16-6.6l-0.2-0.2c-4.1-4.1-6.6-9.7-6.6-15.9V23h-84c-16.9,0-30.6,13.7-30.6,30.7
		v404.7c0,16.9,13.7,30.7,30.6,30.7h247.7c16.9,0,30.7-13.7,30.7-30.7V216H238.8z M195.3,357.5c-7.6,6.5-17.7,9.8-30.4,9.8h-11.3
		v36.1H130V298.5h37c26.4,0,39.6,11.1,39.6,33.4C206.6,342.4,202.8,351,195.3,357.5z M282.2,357.5c-7.6,6.5-17.7,9.8-30.4,9.8h-11.3
		v36.1h-23.6V298.5h37c26.4,0,39.6,11.1,39.6,33.4C293.5,342.4,289.7,351,282.2,357.5z M381.9,317.7H352v85.6h-23.7v-85.6h-29.8
		v-19.2h83.4V317.7z"/>
</g>
</svg>
