<?xml version="1.0" encoding="utf-8"?>
<!-- Generator: Adobe Illustrator 26.3.1, SVG Export Plug-In . SVG Version: 6.00 Build 0)  -->
<svg version="1.1" id="Layer_1" focusable="false" xmlns="http://www.w3.org/2000/svg" xmlns:xlink="http://www.w3.org/1999/xlink"
	 x="0px" y="0px" viewBox="0 0 512 512" style="enable-background:new 0 0 512 512;" xml:space="preserve">
<style type="text/css">
	.st0{fill:#FFFFFF;}
</style>
<path class="st0" d="M426.5,0h-341C59.8,0,39,20.8,39,46.5v419c0,25.7,20.8,46.5,46.5,46.5h341c25.7,0,46.5-20.8,46.5-46.5v-419
	C473,20.8,452.2,0,426.5,0z M232.7,238.3c7.3,3.5,14.9,5.3,23.1,5.3c21.9,0,32.8-5.2,32.8-15.4c0-5.3-3.4-9.1-10.2-11.5
	c-6.9-2.4-18.1-4.9-33.6-7.5c-18.8-3.1-34-6.5-46.1-10.2s-22.5-9.9-31.5-18.8s-13.5-21.1-13.5-37c0-22.1,7.4-38.8,22.4-49.8
	c14.9-11.1,34.8-17.6,59.9-19.8l-1.9-23.6h42.7l-2.1,23.3c24.3,1.9,44.3,8.3,60.1,19.2c15.8,10.9,23.7,26.6,23.7,47.2h-73.1
	c-0.2-7.4-3.3-12.6-8.9-15.6c-5.7-2.9-12.1-4.5-19.2-4.5c-19,0-28.4,4.5-28.4,13.5c0,5.1,3.3,8.5,9.9,10.7
	c6.5,2.1,17.3,4.4,32.4,6.7c18.5,2.7,33.9,5.7,46.3,9.3s23.1,9.9,32.4,19c9.2,9,13.8,21.8,13.8,38.1c0,24-8.1,41.8-24.3,53.4
	c-16.2,11.6-37.8,18.3-64.6,20l2,24.5h-42.5l1.8-24.9c-25.3-2.6-46.2-9.9-62.8-21.9c-16.6-12-24.9-28.7-24.9-50h73.1v1.6
	C221.7,228.6,225.4,234.7,232.7,238.3z M421.1,441.2H90.9v-75.7h330.2V441.2z"/>
</svg>
