<?xml version="1.0" encoding="utf-8"?>
<!-- Generator: Adobe Illustrator 23.1.0, SVG Export Plug-In . SVG Version: 6.00 Build 0)  -->
<svg version="1.1" id="Layer_1" focusable="false" xmlns="http://www.w3.org/2000/svg" xmlns:xlink="http://www.w3.org/1999/xlink"
	 x="0px" y="0px" viewBox="0 0 512 512" style="enable-background:new 0 0 512 512;" xml:space="preserve">
<style type="text/css">
	.st0{fill:#FFFFFF;}
</style>
<path class="st0" d="M431.8,208.5H303.5V39c0-16.3-13.2-29.4-29.4-29.4l-36.2,0c-16.3,0-29.4,13.2-29.4,29.4v169.4H80.2H39
	c-16.3,0-29.4,13.2-29.4,29.4l0,36.2c0,16.3,13.2,29.4,29.4,29.4h41.2l0,0h128.3V473c0,16.3,13.2,29.4,29.4,29.4h36.2
	c16.3,0,29.4-13.2,29.4-29.4V303.5h128.3l0,0H473c16.3,0,29.4-13.2,29.4-29.4v-36.2c0-16.3-13.2-29.4-29.4-29.4H431.8z"/>
</svg>
