<?xml version="1.0" encoding="utf-8"?>
<!-- Generator: Adobe Illustrator 26.5.0, SVG Export Plug-In . SVG Version: 6.00 Build 0)  -->
<svg version="1.1" id="Layer_1" focusable="false" xmlns="http://www.w3.org/2000/svg" xmlns:xlink="http://www.w3.org/1999/xlink"
	 x="0px" y="0px" viewBox="0 0 512 512" style="enable-background:new 0 0 512 512;" xml:space="preserve">
<style type="text/css">
	.st0{fill:#FFFFFF;}
</style>
<g>
	<circle class="st0" cx="280.5" cy="351.5" r="44.5"/>
	<polygon class="st0" points="283.3,23 282,23 282,150 410.3,150 	"/>
	<path class="st0" d="M325.1,430.2c-13.2,7.5-28.4,11.8-44.6,11.8c-50,0-90.5-40.5-90.5-90.5s40.5-90.5,90.5-90.5
		c50,0,90.5,40.5,90.5,90.5c0,16.7-4.5,32.3-12.4,45.7l51.8,51.8V216H238.8c-6.3,0-11.9-2.5-16-6.6l-0.1-0.1l-0.1-0.1
		c-4.1-4.1-6.6-9.7-6.6-15.9v-0.1V23h-84c-16.9,0-30.6,13.7-30.6,30.7v404.7c0,16.9,13.7,30.7,30.6,30.7h247.7c1.4,0,2.7-0.1,4-0.3
		L325.1,430.2z"/>
</g>
</svg>
