<?xml version="1.0" encoding="utf-8"?>
<!-- Generator: Adobe Illustrator 23.1.0, SVG Export Plug-In . SVG Version: 6.00 Build 0)  -->
<svg version="1.1" id="Layer_1" focusable="false" xmlns="http://www.w3.org/2000/svg" xmlns:xlink="http://www.w3.org/1999/xlink"
	 x="0px" y="0px" viewBox="0 0 512 512" style="enable-background:new 0 0 512 512;" xml:space="preserve">
<style type="text/css">
	.st0{fill:#E0B78D;}
</style>
<path class="st0" d="M149.8,36.9v87.9c0,14.6-10.7,26.4-24,26.4H24.5c-13.3,0-24-11.8-24-26.4V36.9c0-14.6,10.7-26.4,24-26.4h101.3
	C139.1,10.5,149.8,22.3,149.8,36.9L149.8,36.9z M331.2,300.4v-87.9c0-14.6-10.7-26.4-24-26.4H205.8c-13.3,0-24,11.8-24,26.4v87.9
	c0,14.6,10.7,26.4,24,26.4h101.3C320.4,326.8,331.2,315,331.2,300.4z M363.2,36.9v87.9c0,14.6,10.7,26.4,24,26.4h101.3
	c13.3,0,24-11.8,24-26.4V36.9c0-14.6-10.7-26.4-24-26.4H387.2C373.9,10.5,363.2,22.3,363.2,36.9z M331.2,124.7V36.9
	c0-14.6-10.7-26.4-24-26.4H205.8c-13.3,0-24,11.8-24,26.4v87.9c0,14.6,10.7,26.4,24,26.4h101.3C320.4,151.1,331.2,139.3,331.2,124.7
	z M125.8,186.2H24.5c-13.3,0-24,11.8-24,26.4v87.9c0,14.6,10.7,26.4,24,26.4h101.3c13.3,0,24-11.8,24-26.4v-87.9
	C149.8,198,139.1,186.2,125.8,186.2L125.8,186.2z M0.5,388.3v87.9c0,14.6,10.7,26.4,24,26.4h101.3c13.3,0,24-11.8,24-26.4v-87.9
	c0-14.6-10.7-26.4-24-26.4H24.5C11.2,361.9,0.5,373.7,0.5,388.3z M387.2,326.8h101.3c13.3,0,24-11.8,24-26.4v-87.9
	c0-14.6-10.7-26.4-24-26.4H387.2c-13.3,0-24,11.8-24,26.4v87.9C363.2,315,373.9,326.8,387.2,326.8z M387.2,502.5h101.3
	c13.3,0,24-11.8,24-26.4v-87.9c0-14.6-10.7-26.4-24-26.4H387.2c-13.3,0-24,11.8-24,26.4v87.9C363.2,490.7,373.9,502.5,387.2,502.5z
	 M181.8,388.3v87.9c0,14.6,10.7,26.4,24,26.4h101.3c13.3,0,24-11.8,24-26.4v-87.9c0-14.6-10.7-26.4-24-26.4H205.8
	C192.6,361.9,181.8,373.7,181.8,388.3z"/>
</svg>
