<?xml version="1.0" encoding="utf-8"?>
<!-- Generator: Adobe Illustrator 23.1.0, SVG Export Plug-In . SVG Version: 6.00 Build 0)  -->
<svg version="1.1" id="Layer_1" focusable="false" xmlns="http://www.w3.org/2000/svg" xmlns:xlink="http://www.w3.org/1999/xlink"
	 x="0px" y="0px" viewBox="0 0 512 512" style="enable-background:new 0 0 512 512;" xml:space="preserve">
<style type="text/css">
	.st0{fill:#A35C2E;}
</style>
<path class="st0" d="M5.7,487.7c0,9.2,7.5,16.7,16.7,16.7H485c9.2,0,16.7-7.5,16.7-16.7V202.5H5.7V487.7z M293.2,292.4h21.6V264
	c0-19,8.8-26.2,8.8-26.2c11.6-11.7,30.5-11.7,42.2,0l94.7,94.7c11.7,11.6,11.7,30.5,0,42.2l-94.7,94.6c-11.6,11.7-30.5,11.7-42.2,0
	c0,0-8.7-10.8-8.7-24.4v-30.3h-21.6L293.2,292.4L293.2,292.4z M257.1,292.4h16.3v122.1h-16.3V292.4z M221.2,292.4h16.1v122.1h-16.1
	V292.4z M151.9,292.4h33.5v122.1h-33.5V292.4z M114.2,292.4h25.2v122.1h-25.2V292.4z M41.4,323c0-16.9,13.7-30.6,30.6-30.6h22.5
	v122.1H72c-16.9,0-30.6-13.7-30.6-30.6V323z M501.8,162c-17.7-44.5-34.4-89.4-53.3-133.5c-4.4-9.1-13.6-16.7-23.9-17.4H270.3
	c4.8,50.2,5.9,100.6,9.6,150.9H501.8z M237.2,11.1H82.9c-9.7,0.5-18.8,6.8-23,15.5C40.9,71.4,23.5,116.8,5.7,162h221.9
	C229.7,111.6,235.3,61.5,237.2,11.1z"/>
</svg>
