<?xml version="1.0" encoding="utf-8"?>
<!-- Generator: Adobe Illustrator 23.1.0, SVG Export Plug-In . SVG Version: 6.00 Build 0)  -->
<svg version="1.1" id="Layer_1" focusable="false" xmlns="http://www.w3.org/2000/svg" xmlns:xlink="http://www.w3.org/1999/xlink"
	 x="0px" y="0px" viewBox="0 0 512 512" style="enable-background:new 0 0 512 512;" xml:space="preserve">
<style type="text/css">
	.st0{fill:#330000;}
</style>
<path class="st0" d="M148.6,189.5c-21.8,0-39.5,17.7-39.5,39.5s17.7,39.5,39.5,39.5s39.5-17.7,39.5-39.5S170.5,189.5,148.6,189.5z
	 M408.8,92.3c17.5-4.6,31.7-10,38.2-16.3c24.1-23.5,19-59,19-59s-29,26-76,43S256,82,256,82s-87-5-134-22S46,17,46,17
	s-5.1,35.5,19,59c6.4,6.3,20.7,11.7,38.2,16.3C59.5,111.3,29,154.8,29,205.5V512h454V205.5C483,154.8,452.5,111.3,408.8,92.3z
	 M63.1,229c0-47.2,38.3-85.5,85.5-85.5s85.5,38.3,85.5,85.5s-38.3,85.5-85.5,85.5S63.1,276.2,63.1,229z M256,473
	c0,0-55.5-39.8-55.5-89c0-49.2,24.8-47,55.5-47s55.5-2.2,55.5,47C311.5,433.1,256,473,256,473z M363.4,314.5
	c-47.2,0-85.5-38.3-85.5-85.5s38.3-85.5,85.5-85.5s85.5,38.3,85.5,85.5S410.6,314.5,363.4,314.5z M363.4,189.5
	c-21.8,0-39.5,17.7-39.5,39.5s17.7,39.5,39.5,39.5s39.5-17.7,39.5-39.5S385.2,189.5,363.4,189.5z"/>
</svg>
