<?xml version="1.0" encoding="utf-8"?>
<!-- Generator: Adobe Illustrator 23.1.0, SVG Export Plug-In . SVG Version: 6.00 Build 0)  -->
<svg version="1.1" id="Layer_1" focusable="false" xmlns="http://www.w3.org/2000/svg" xmlns:xlink="http://www.w3.org/1999/xlink"
	 x="0px" y="0px" viewBox="0 0 512 512" style="enable-background:new 0 0 512 512;" xml:space="preserve">
<style type="text/css">
	.st0{fill:#FFFFFF;}
</style>
<path class="st0" d="M79.3,489c23.6,23.6,61.8,23.6,85.3,0l183-183v174.1c0,14.7,11.9,26.6,26.6,26.6h49.4
	c14.7,0,26.6-11.9,26.6-26.6V29.8c0-14.7-11.9-26.6-26.6-26.6h-49.4c-14.7,0-26.6,11.9-26.6,26.6v173.9L164.8,20.9
	c-23.6-23.6-61.8-23.6-85.3,0c0,0-17.8,14.6-17.8,53c0,8.3,0,359.1,0,365.8C61.7,467.2,79.3,489,79.3,489z"/>
</svg>
