<?xml version="1.0" encoding="utf-8"?>
<!-- Generator: Adobe Illustrator 23.1.0, SVG Export Plug-In . SVG Version: 6.00 Build 0)  -->
<svg version="1.1" id="Layer_1" focusable="false" xmlns="http://www.w3.org/2000/svg" xmlns:xlink="http://www.w3.org/1999/xlink"
	 x="0px" y="0px" viewBox="0 0 512 512" style="enable-background:new 0 0 512 512;" xml:space="preserve">
<style type="text/css">
	.st0{fill:#330000;}
</style>
<path class="st0" d="M73.4,193.6c22.1-16.5,48.4-25.6,74.1-25.6h297.7c-8.9-25.1-32.9-43-61-43H249.5c-48,0-60.1-73.3-129-73.3H68.9
	C38.6,51.7,14,76.2,14,106.6v202.9l14.3-51.8C35.1,233,51.1,210.3,73.4,193.6z M454.5,208h-307c-35.3,0-71.5,27-80.6,60.3
	L28.2,408.5c-9.2,33.3,12,60.3,47.4,60.3h307c35.3,0,71.5-27,80.6-60.3l38.7-140.2C511,235,489.8,208,454.5,208z"/>
</svg>
