<?xml version="1.0" encoding="utf-8"?>
<!-- Generator: Adobe Illustrator 26.3.1, SVG Export Plug-In . SVG Version: 6.00 Build 0)  -->
<svg version="1.1" id="Layer_1" focusable="false" xmlns="http://www.w3.org/2000/svg" xmlns:xlink="http://www.w3.org/1999/xlink"
	 x="0px" y="0px" viewBox="0 0 512 512" style="enable-background:new 0 0 512 512;" xml:space="preserve">
<style type="text/css">
	.st0{fill:#FFFFFF;}
</style>
<path class="st0" d="M455,0H57v65.3h38.2C93.1,77.2,92,92.4,92,112.2C92,204.5,212.1,185,212.1,258S92,308,92,403.8
	c0,17.6,0.8,31.7,2.4,42.9H57V512H455v-65.3h-38c1.9-11.2,3-25.3,3-42.9c0-85.2-120.1-68.8-120.1-145.8S420,207,420,112.2
	c0-19.8-1.1-35.1-3-46.9H455V0z M380,112.2c0,22.5-8.6,29.2-42.4,46c-28.9,14.3-71.7,35.5-77.1,88.4c-1.5,0-3,0-4.5,0
	c-1.5,0-3,0-4.5,0c-5.5-50.4-47.3-72.2-75.7-87c-35-18.2-43.8-25.7-43.8-47.4c0-27.3,2.3-40.7,4-46.8c0.4,0,0.7,0,1.1,0
	c1.4,0,2.8,0,4.2,0c1.7,0,3.5,0,5.2,0h218.9c2.6,0,5.1,0,7.3-0.1c1.2,0,2.3,0,3.5-0.1C377.9,71.9,380,85.5,380,112.2z"/>
</svg>
