<?xml version="1.0" encoding="utf-8"?>
<!-- Generator: Adobe Illustrator 23.1.0, SVG Export Plug-In . SVG Version: 6.00 Build 0)  -->
<svg version="1.1" id="Layer_1" focusable="false" xmlns="http://www.w3.org/2000/svg" xmlns:xlink="http://www.w3.org/1999/xlink"
	 x="0px" y="0px" viewBox="0 0 512 512" style="enable-background:new 0 0 512 512;" xml:space="preserve">
<style type="text/css">
	.st0{fill:#A35C2E;}
</style>
<path class="st0" d="M442.5,52H71.5C39.7,52,14,77.7,14,109.4v329.1c0,31.7,25.7,57.5,57.5,57.5h371.1c31.7,0,57.5-25.7,57.5-57.5
	V109.4C500,77.7,474.3,52,442.5,52z M188.4,162.3c0-16.4,17.8-26.6,32-18.4L334,209.5c14.2,8.2,14.2,28.7,0,36.9L220.3,312
	c-14.2,8.2-32-2-32-18.4V162.3z M62.1,429.9v-7.3c0-7.3,6-13.3,13.3-13.3h232.5v33.9H75.4C68.1,443.2,62.1,437.2,62.1,429.9z
	 M451.9,429.9c0,7.3-6,13.3-13.3,13.3h-68.1v-33.9h68.1c7.3,0,13.3,6,13.3,13.3V429.9z"/>
</svg>
