<?xml version="1.0" encoding="utf-8"?>
<!-- Generator: Adobe Illustrator 23.1.0, SVG Export Plug-In . SVG Version: 6.00 Build 0)  -->
<svg version="1.1" id="Layer_1" focusable="false" xmlns="http://www.w3.org/2000/svg" xmlns:xlink="http://www.w3.org/1999/xlink"
	 x="0px" y="0px" viewBox="0 0 512 512" style="enable-background:new 0 0 512 512;" xml:space="preserve">
<style type="text/css">
	.st0{fill:#A35C2E;}
</style>
<path class="st0" d="M461.7,265.8h-3.9l-6.7-84.8c0-24.9-20.2-45.2-45.2-45.2h-70.3v139.3h-30.3V122.8H26.9c-12.7,0-23,10.3-23,23
	v205.3c0,12.6,10.3,23,23,23h9.8c0-36.6,29.7-66.2,66.2-66.2c36.6,0,66.2,29.7,66.2,66.2h9.5c0-36,29.2-65.3,65.3-65.3
	c36,0,65.3,29.2,65.3,65.3h36.2c0-36.6,29.7-66.2,66.2-66.2s66.2,29.7,66.2,66.2h29.1V311C506.8,286,486.6,265.8,461.7,265.8z
	 M379.6,266.6v-81.3H429l6.9,81.3H379.6z M102.9,329.6c-24.5,0-44.4,19.9-44.4,44.4s19.9,44.4,44.4,44.4s44.4-19.9,44.4-44.4
	S127.4,329.6,102.9,329.6z M243.9,329.6c-24.5,0-44.4,19.9-44.4,44.4s19.9,44.4,44.4,44.4s44.4-19.9,44.4-44.4
	S268.4,329.6,243.9,329.6z M411.6,329.6c-24.5,0-44.4,19.9-44.4,44.4s19.9,44.4,44.4,44.4S456,398.5,456,374
	S436.1,329.6,411.6,329.6z"/>
</svg>
