<?xml version="1.0" encoding="utf-8"?>
<!-- Generator: Adobe Illustrator 23.1.0, SVG Export Plug-In . SVG Version: 6.00 Build 0)  -->
<svg version="1.1" id="Layer_1" focusable="false" xmlns="http://www.w3.org/2000/svg" xmlns:xlink="http://www.w3.org/1999/xlink"
	 x="0px" y="0px" viewBox="0 0 512 512" style="enable-background:new 0 0 512 512;" xml:space="preserve">
<style type="text/css">
	.st0{fill:#A35C2E;}
</style>
<path class="st0" d="M445.6,8.3H67.9C35.4,8.3,9,34.6,9,67.1v377.8c0,32.5,26.4,58.9,58.9,58.9h377.8c32.5,0,58.9-26.4,58.9-58.9
	V67.1C504.5,34.6,478.1,8.3,445.6,8.3z M453.1,430.1c0,12.3-10,22.3-22.3,22.3H82.6c-12.3,0-22.3-10-22.3-22.3V81.9
	c0-12.3,10-22.3,22.3-22.3h348.2c12.3,0,22.3,10,22.3,22.3V430.1z"/>
<path class="st0" d="M412.7,115c-8-6-15.9-11.6-23.4-16.6c-5.1-3.4-12.9-8-21.8-8c-13.3,0-21.6,9.8-26.6,17.2
	c-19.7,28.8-39.7,58.1-59,86.5c-19.3,28.4-39.3,57.7-59,86.6c-2.1,3.1-4.2,6.3-6.4,9.4c-1.3,1.9-2.6,3.8-3.9,5.7
	c-18-17.7-36.1-35.5-53.7-52.7c-5.9-5.8-13.2-8.9-20.6-8.9c-7.2,0-14,2.8-19.7,8.1c-7.8,7.2-16.1,15.5-26.2,26.2
	c-11.6,12.5-11.3,29,0.7,41c31.6,31.9,65.6,66,100,99.9c8.3,8.1,18,12.4,28,12.4c12.7,0,24.2-6.7,32.6-18.8
	c36.8-53.8,73.9-108.3,110.4-162c18.2-26.7,36.5-53.9,56-83.1C430.3,142.6,427.5,126.2,412.7,115z"/>
</svg>
