<?xml version="1.0" encoding="utf-8"?>
<!-- Generator: Adobe Illustrator 23.1.0, SVG Export Plug-In . SVG Version: 6.00 Build 0)  -->
<svg version="1.1" id="Layer_1" focusable="false" xmlns="http://www.w3.org/2000/svg" xmlns:xlink="http://www.w3.org/1999/xlink"
	 x="0px" y="0px" viewBox="0 0 512 512" style="enable-background:new 0 0 512 512;" xml:space="preserve">
<style type="text/css">
	.st0{fill:#FFFFFF;}
</style>
<path class="st0" d="M437.5,22.9h-363c-16.7,0-30.3,13.6-30.3,30.3v405.5c0,16.7,13.6,30.3,30.3,30.3h363
	c16.7,0,30.3-13.6,30.3-30.3V53.3C467.8,36.5,454.2,22.9,437.5,22.9z M99.3,63.4h313.4c10.1,0,18.3,8.2,18.3,18.3V138H81V81.7
	C81,71.6,89.2,63.4,99.3,63.4z M303.5,288.9H431v62.3H303.5V288.9z M303.5,246.9V180H431v66.9H303.5z M81,430.3V180h180.5v268.6
	H99.3C89.2,448.6,81,440.4,81,430.3z M412.7,448.6H303.5v-55.4H431v37.2C431,440.4,422.8,448.6,412.7,448.6z"/>
</svg>
