<?xml version="1.0" encoding="utf-8"?>
<!-- Generator: Adobe Illustrator 23.1.0, SVG Export Plug-In . SVG Version: 6.00 Build 0)  -->
<svg version="1.1" id="Layer_1" focusable="false" xmlns="http://www.w3.org/2000/svg" xmlns:xlink="http://www.w3.org/1999/xlink"
	 x="0px" y="0px" viewBox="0 0 512 512" style="enable-background:new 0 0 512 512;" xml:space="preserve">
<style type="text/css">
	.st0{fill:#FFFFFF;}
</style>
<path class="st0" d="M445.6,8.3H67.9C35.4,8.3,9,34.6,9,67.1v377.8c0,32.5,26.4,58.9,58.9,58.9h377.8c32.5,0,58.9-26.4,58.9-58.9
	V67.1C504.5,34.6,478.1,8.3,445.6,8.3z M453.1,430.1c0,12.3-10,22.3-22.3,22.3H82.6c-12.3,0-22.3-10-22.3-22.3V81.9
	c0-12.3,10-22.3,22.3-22.3h348.2c12.3,0,22.3,10,22.3,22.3V430.1z"/>
</svg>
