<?xml version="1.0" encoding="utf-8"?>
<!-- Generator: Adobe Illustrator 27.9.0, SVG Export Plug-In . SVG Version: 6.00 Build 0)  -->
<svg version="1.1" id="Layer_1" focusable="false" xmlns="http://www.w3.org/2000/svg" xmlns:xlink="http://www.w3.org/1999/xlink"
	 x="0px" y="0px" viewBox="0 0 512 512" style="enable-background:new 0 0 512 512;" xml:space="preserve">
<title>Thumbs up</title>
<data-Icon_Keyword>Thumbs Up, Thumb, Approve, Approval, Acknowledge,</data-Icon_Keyword>
<data-Icon_Use_Case>REPRESENTS: Thumbs Up. LIMITATIONS OF USE: This icon has no limitations of use, only that it must represent a Thumbs Up action</data-Icon_Use_Case>
<style type="text/css">
	.st0{fill:#A35C2E;}
</style>
<path class="st0" d="M439.1,291.8c-2.5-1.5,20.2-0.9,26.1-26.7c3-13.5-2.2-43.9-29.5-56.7c-29.2-13.6-94.1-6.6-113.7-6.3
	c-4.3,0.1-8.6-0.4-12.8-1.2c-7.2-1.5-10.5-5.9-9.2-13.3c0.9-5.3,2.9-10.4,5-15.4c9.2-21.3,19.7-28.3,27.9-63.9s7.2-60.7-4.1-78.8
	c-11.4-18.2-23-26.5-35-26.5c-24.5,0-22.9,13.8-22,32s0,26.4-6.4,39.4s-19,39.8-37.8,53.2c-24.6,17.6-47.3,37.3-65.2,61.8
	c-9.5,13.1-17.3,27.4-25.2,41.6c-5.8,10.4-11.3,20.7-24,24.2c-0.1,0-38.4,0-57.5,0.1c-8.9,0.1-12.6,4.1-12.7,13.1
	c0,71.4,0,142.8,0,214.2c0,9.5,3.6,13.2,13.1,13.3c21.5,0.1,70.9-0.5,73-1.6c48.1,4.5,96.3,9.8,144.5,12
	c35.5,1.6,71.4-0.8,106.9-3.3c30-2.1,47.1-22.1,43.8-39.3c-3.3-17.2,3.2-19.8,16.3-32.2s17.2-42.4-5.8-55.9
	c-1-1.7,11.1-5.7,18.5-13.5c7.4-7.9,16-26.8,9.5-45.3C456.5,298.1,444.6,295,439.1,291.8z"/>
</svg>

