<?xml version="1.0" encoding="utf-8"?>
<!-- Generator: Adobe Illustrator 23.1.0, SVG Export Plug-In . SVG Version: 6.00 Build 0)  -->
<svg version="1.1" id="Layer_1" focusable="false" xmlns="http://www.w3.org/2000/svg" xmlns:xlink="http://www.w3.org/1999/xlink"
	 x="0px" y="0px" viewBox="0 0 512 512" style="enable-background:new 0 0 512 512;" xml:space="preserve">
<style type="text/css">
	.st0{fill:#FFFFFF;}
</style>
<path class="st0" d="M425.1,137.5c13.3,0,24-10.7,24-24s-10.7-24-24-24c-13.3,0-24,10.7-24,24S411.9,137.5,425.1,137.5z M440,12.5
	H72c-32.9,0-59.5,26.6-59.5,59.5v368c0,1.4,0.1,2.8,0.2,4.2C32.4,428.1,52.2,412,72,395.9c11.5-9.4,23.4-18.4,33.9-28.9
	c19.5-19.5,31.8-43.4,40.1-69.7c19-59.9,74.1-94.6,135.1-84.5c32.4,5.4,58.9,21.6,77.8,49c1.5,2.2,2.7,4.6,4.4,7.4
	c-2.7,0-4.4,0-6.1,0c-28.8,0-57.5,0.1-86.3,0c-2.7,0-4.5,0.8-6.2,3c-14.7,18.9-29.5,37.6-44.3,56.4c-0.8,1-1.4,2-2.2,3.1
	c15,19.3,30,38.5,44.8,57.7c1.8,2.3,3.6,3.2,6.6,3.2c29.5-0.1,58.9-0.1,88.4-0.1c1.5,0,2.9,0,5,0c-0.8,1.6-1.3,2.5-1.8,3.5
	c-7.3,12.9-17.1,23.6-28.7,32.6c-22.4,17.3-47.5,25.5-76,20.9c-17.8-2.8-35.6-5.9-53.4-8.9c-20.4-3.5-40.4-1.9-58.9,7.5
	c-10.7,5.4-20.7,12.5-30,20.1c-12.8,10.4-25.6,20.8-38.4,31.2H440c32.9,0,59.5-26.6,59.5-59.5V72C499.5,39.1,472.9,12.5,440,12.5z
	 M470,154H42V73h428V154z M356.1,137.5c13.3,0,24-10.7,24-24s-10.7-24-24-24c-13.3,0-24,10.7-24,24S342.9,137.5,356.1,137.5z
	 M69.8,134.3c4.1,3.4,17.3,9.2,18.8,9.8c1.5-0.7,14.7-6.4,18.8-9.8c4.5-3.7,6.9-9.1,6.9-15.4V88.5c-7.2-3.8-15.8-5.7-25.8-5.7
	S70,84.7,62.9,88.5v30.3C62.9,125.3,65.3,130.6,69.8,134.3z"/>
</svg>
