<?xml version="1.0" encoding="utf-8"?>
<!-- Generator: Adobe Illustrator 26.3.1, SVG Export Plug-In . SVG Version: 6.00 Build 0)  -->
<svg version="1.1" id="Layer_1" focusable="false" xmlns="http://www.w3.org/2000/svg" xmlns:xlink="http://www.w3.org/1999/xlink"
	 x="0px" y="0px" viewBox="0 0 512 512" style="enable-background:new 0 0 512 512;" xml:space="preserve">
<style type="text/css">
	.st0{fill:#FFFFFF;}
</style>
<path class="st0" d="M275.9,214.4v-113h-39.9v113c-15.5,7.4-26.1,23.3-26.1,41.6c0,25.5,20.6,46.1,46.1,46.1
	c15.3,0,28.9-7.5,37.3-19h76.4v-54.2h-76.4C288.8,222.8,282.9,217.8,275.9,214.4z M256,0C114.6,0,0,114.6,0,256s114.6,256,256,256
	s256-114.6,256-256S397.4,0,256,0z M256,437c-99.9,0-181-81-181-181s81-181,181-181s181,81,181,181S355.9,437,256,437z"/>
</svg>
