<?xml version="1.0" encoding="utf-8"?>
<!-- Generator: Adobe Illustrator 23.1.0, SVG Export Plug-In . SVG Version: 6.00 Build 0)  -->
<svg version="1.1" id="Layer_1" focusable="false" xmlns="http://www.w3.org/2000/svg" xmlns:xlink="http://www.w3.org/1999/xlink"
	 x="0px" y="0px" viewBox="0 0 512 512" style="enable-background:new 0 0 512 512;" xml:space="preserve">
<style type="text/css">
	.st0{fill:#330000;}
</style>
<path class="st0" d="M256,8C119,8,8,119,8,256s111,248,248,248s248-111,248-248S393,8,256,8z M422,297.2c0,22.9-18.6,41.5-41.5,41.5
	H291c0,18.8,0,32.9,0,38.5c0,25.7-11.9,35.5-11.9,35.5c-15.7,15.8-41.3,15.8-57.1,0L93.8,284.5c-15.8-15.7-15.8-41.3,0-57.1
	L222.1,99.3c15.7-15.8,41.3-15.8,57.1,0c0,0,11.8,14.6,11.8,33c0,4.5,0,20,0,41.1h89.5c22.9,0,41.5,18.6,41.5,41.5V297.2z"/>
</svg>
