<?xml version="1.0" encoding="utf-8"?>
<!-- Generator: Adobe Illustrator 23.1.0, SVG Export Plug-In . SVG Version: 6.00 Build 0)  -->
<svg version="1.1" id="Layer_1" focusable="false" xmlns="http://www.w3.org/2000/svg" xmlns:xlink="http://www.w3.org/1999/xlink"
	 x="0px" y="0px" viewBox="0 0 512 512" style="enable-background:new 0 0 512 512;" xml:space="preserve">
<style type="text/css">
	.st0{fill:#A35C2E;}
</style>
<path class="st0" d="M256,8C119,8,8,119,8,256s111,248,248,248s248-111,248-248S393,8,256,8z M418.1,284.5L289.9,412.7
	c-15.7,15.8-41.3,15.8-57.1,0c0,0-11.8-14.6-11.8-33c0-4.5,0-20,0-41.1h-89.5c-22.9,0-41.5-18.6-41.5-41.5v-82.3
	c0-22.9,18.6-41.5,41.5-41.5H221c0-18.8,0-32.9,0-38.5c0-25.7,11.9-35.5,11.9-35.5c15.7-15.8,41.3-15.8,57.1,0l128.1,128.1
	C433.9,243.1,433.9,268.7,418.1,284.5z"/>
</svg>
