<?xml version="1.0" encoding="utf-8"?>
<!-- Generator: Adobe Illustrator 23.1.0, SVG Export Plug-In . SVG Version: 6.00 Build 0)  -->
<svg version="1.1" id="Layer_1" focusable="false" xmlns="http://www.w3.org/2000/svg" xmlns:xlink="http://www.w3.org/1999/xlink"
	 x="0px" y="0px" viewBox="0 0 512 512" style="enable-background:new 0 0 512 512;" xml:space="preserve">
<style type="text/css">
	.st0{fill:#FFFFFF;}
</style>
<path class="st0" d="M362,186.8v229.5c0,12.6-10.2,22.8-22.8,22.8h-20.5c-12.6,0-22.8-10.2-22.8-22.8V186.8h-80v229.5
	c0,12.6-10.2,22.8-22.8,22.8h-20.5c-12.6,0-22.8-10.2-22.8-22.8V186.8h-48.2c-0.2,1.2-0.3,2.4-0.3,3.6V463c0,14.4,11.6,26,26,26h257
	c14.4,0,26-11.6,26-26V190.4c0-1.2-0.1-2.4-0.3-3.6H362z M426.3,73H309.1V45.7c0-12.5-10.2-22.7-22.8-22.7h-60.5
	C213.2,23,203,33.1,203,45.7V73H85.8C73.2,73,63,83.2,63,95.7v20.6c0,12.5,10.2,22.7,22.8,22.7h340.5c12.5,0,22.7-10.2,22.8-22.7
	V95.8C449.1,83.2,438.9,73,426.3,73z"/>
</svg>
