<?xml version="1.0" encoding="utf-8"?>
<!-- Generator: Adobe Illustrator 23.1.0, SVG Export Plug-In . SVG Version: 6.00 Build 0)  -->
<svg version="1.1" id="Layer_1" focusable="false" xmlns="http://www.w3.org/2000/svg" xmlns:xlink="http://www.w3.org/1999/xlink"
	 x="0px" y="0px" viewBox="0 0 512 512" style="enable-background:new 0 0 512 512;" xml:space="preserve">
<style type="text/css">
	.st0{fill:#330000;}
</style>
<path class="st0" d="M256,274.3c2.2-0.1,39.1-3.2,167.4-99.3c19-14.3,37.4-28.6,54.1-41.9c-3.9-31.9-31.1-56.5-64.1-56.5H98.6
	c-33,0-60.2,24.7-64.1,56.5c16.7,13.3,35.1,27.6,54.1,41.9C216.9,271,253.8,274.1,256,274.3z M34,197.8v123.3l71.1-71.1
	C80.9,233.3,56.6,215.3,34,197.8z M256,325.5c-24.7,0-64.1-19.3-107.3-46.4L37.2,390.6c8.4,26,32.7,44.8,61.5,44.8h314.7
	c28.8,0,53.2-18.8,61.5-44.8L363.3,279.1C320.1,306.2,280.7,325.5,256,325.5z M406.9,250.2l71.1,71.1V197.9
	C455.4,215.3,431.1,233.3,406.9,250.2z"/>
</svg>
