<?xml version="1.0" encoding="utf-8"?>
<!-- Generator: Adobe Illustrator 23.1.0, SVG Export Plug-In . SVG Version: 6.00 Build 0)  -->
<svg version="1.1" id="Layer_1" focusable="false" xmlns="http://www.w3.org/2000/svg" xmlns:xlink="http://www.w3.org/1999/xlink"
	 x="0px" y="0px" viewBox="0 0 512 512" style="enable-background:new 0 0 512 512;" xml:space="preserve">
<style type="text/css">
	.st0{fill:#FFFFFF;}
</style>
<g>
	<polygon class="st0" points="283.3,23 282,23 282,150 410.3,150 	"/>
	<path class="st0" d="M281.2,485.5v-59.6h-49.7c-8.6,0-15.5-6.9-15.5-15.5v-37.6c0-8.6,6.9-15.5,15.5-15.5h49.7v-49.7
		c0-8.6,6.9-15.5,15.5-15.5h37.6c8.6,0,15.5,6.9,15.5,15.5v49.7h59.7c0.3,0,0.6,0,0.9,0V216H238.8c-6.3,0-11.9-2.5-16-6.6l-0.1-0.1
		l-0.1-0.1c-4.1-4.1-6.6-9.7-6.6-15.9v-0.1V23h-84c-16.9,0-30.6,13.7-30.6,30.7v404.7c0,16.9,13.7,30.7,30.6,30.7h149.6
		C281.4,487.9,281.2,486.7,281.2,485.5z"/>
	<path class="st0" d="M409.5,425.9h-59.7v59.6c0,1.2-0.2,2.4-0.4,3.6h30.3c16.9,0,30.7-13.7,30.7-30.7v-32.6
		C410.1,425.9,409.8,425.9,409.5,425.9z"/>
</g>
</svg>
