<?xml version="1.0" encoding="utf-8"?>
<!-- Generator: Adobe Illustrator 23.1.0, SVG Export Plug-In . SVG Version: 6.00 Build 0)  -->
<svg version="1.1" id="Layer_1" focusable="false" xmlns="http://www.w3.org/2000/svg" xmlns:xlink="http://www.w3.org/1999/xlink"
	 x="0px" y="0px" viewBox="0 0 512 512" style="enable-background:new 0 0 512 512;" xml:space="preserve">
<style type="text/css">
	.st0{fill:#330000;}
</style>
<path class="st0" d="M313.5,390.7c17.1,0,31.1-13.9,31.1-31.1c0-17.1-13.9-31.1-31.1-31.1c-17.1,0-31.1,13.9-31.1,31.1
	C282.4,376.8,296.4,390.7,313.5,390.7z M256,23.9c-103.3,0-187.1,31.2-187.1,69.8V138c0,38.5,83.8,69.8,187.1,69.8
	s187.1-31.2,187.1-69.8V93.7C443.1,55.1,359.3,23.9,256,23.9z M428.4,350.6c-8.2,4.5-17.4,8.7-27.5,12.5c-4.3,1.6-8.7,3.1-13.2,4.5
	c-0.2,1.9-0.5,3.8-0.8,5.7l16.6,9.6c1.9,1.1,2.8,3.3,2.2,5.5c-4.3,13.9-11.7,26.4-21.3,36.8c-1.5,1.6-3.8,2-5.8,0.9l-16.6-9.6
	c-7,5.9-15,10.6-23.6,13.6v19.1c0,2.2-1.5,4.1-3.7,4.5c-13.6,3-28.2,3.2-42.4,0c-2.1-0.5-3.7-2.4-3.7-4.5v-19.1
	c-8.7-3-16.7-7.7-23.6-13.6l-16.6,9.6c-1.9,1.1-4.3,0.7-5.8-0.9c-9.6-10.4-16.9-22.9-21.3-36.8c-0.4-1.3-0.2-2.6,0.4-3.6
	c-41.4-2.6-79.9-10.1-110.8-21.6c-10.1-3.8-19.3-7.9-27.5-12.5c-9.4,8.3-14.7,17.5-14.7,27.1V422c0,38.5,83.8,69.8,187.1,69.8
	s187.1-31.2,187.1-69.8v-44.3C443.1,368.1,437.9,358.9,428.4,350.6z M428.4,208.6c-8.2,4.5-17.4,8.7-27.5,12.5
	c-39.3,14.6-90.7,22.7-144.9,22.7s-105.6-8.1-144.9-22.7c-10.1-3.8-19.3-7.9-27.5-12.5c-9.4,8.3-14.7,17.5-14.7,27.1V280
	c0,36.5,75.1,66.4,170.8,69.5c0.2-1.1,0.3-2.3,0.5-3.4l-16.6-9.6c-1.9-1.1-2.8-3.3-2.1-5.4c4.3-13.9,11.7-26.4,21.3-36.8
	c1.5-1.6,3.8-2,5.8-0.9L265,303c7-5.9,15-10.6,23.6-13.6v-19.1c0-2.2,1.5-4.1,3.7-4.5c13.6-3,28.2-3.2,42.4,0
	c2.1,0.5,3.7,2.4,3.7,4.5v19.1c8.7,3,16.7,7.7,23.6,13.6l16.6-9.6c1.9-1.1,4.3-0.7,5.8,0.9c7.8,8.4,14,18.2,18.4,29
	c25.3-11.9,40.3-26.9,40.3-43.3v-44.3C443.1,226.1,437.9,216.9,428.4,208.6z"/>
</svg>
