<?xml version="1.0" encoding="utf-8"?>
<!-- Generator: Adobe Illustrator 23.1.0, SVG Export Plug-In . SVG Version: 6.00 Build 0)  -->
<svg version="1.1" id="Layer_1" focusable="false" xmlns="http://www.w3.org/2000/svg" xmlns:xlink="http://www.w3.org/1999/xlink"
	 x="0px" y="0px" viewBox="0 0 512 512" style="enable-background:new 0 0 512 512;" xml:space="preserve">
<style type="text/css">
	.st0{fill:#330000;}
</style>
<path class="st0" d="M117.7,259.7l-0.1-0.1l-0.1-0.1c-3.5-3.5-5.7-8.3-5.7-13.7V99.5H39.7c-14.5,0-26.3,11.8-26.3,26.4v347.9
	c0,14.5,11.8,26.4,26.3,26.4h212.9c14.5,0,26.4-11.8,26.4-26.4V265.4H131.5C126.1,265.4,121.3,263.3,117.7,259.7z M391.7,13.5h-1.1
	v109.1h110.3L391.7,13.5z M339.7,173.7l-0.1-0.1l-0.1-0.1c-3.5-3.5-5.7-8.3-5.7-13.7V13.5h-72.2c-14.5,0-26.3,11.8-26.3,26.4v75.7
	l78,78v220.5h161.2c14.5,0,26.4-11.8,26.4-26.4V179.4H353.5C348.1,179.4,343.3,177.3,339.7,173.7z M168.7,99.5v109.2H279L169.8,99.5
	H168.7z"/>
</svg>
