<?xml version="1.0" encoding="utf-8"?>
<!-- Generator: Adobe Illustrator 26.5.0, SVG Export Plug-In . SVG Version: 6.00 Build 0)  -->
<svg version="1.1" id="Layer_1" focusable="false" xmlns="http://www.w3.org/2000/svg" xmlns:xlink="http://www.w3.org/1999/xlink"
	 x="0px" y="0px" viewBox="0 0 512 512" style="enable-background:new 0 0 512 512;" xml:space="preserve">
<style type="text/css">
	.st0{fill:#FFFFFF;}
</style>
<path class="st0" d="M456.4,286.8h-25.4V164c0-86-69.7-155.7-155.7-155.7h-38.4C150.8,8.2,81.1,78,81.1,164v122.8H55.6
	c-8,0-14.5,6.5-14.5,14.5v188c0,8,6.5,14.5,14.5,14.5h400.7c8,0,14.5-6.5,14.5-14.5v-188C470.8,293.3,464.3,286.8,456.4,286.8z
	 M153.1,164c0-46.2,37.6-83.7,83.7-83.7h38.4c46.2,0,83.7,37.6,83.7,83.7v122.8H153.1V164z"/>
</svg>
