<?xml version="1.0" encoding="utf-8"?>
<!-- Generator: Adobe Illustrator 23.1.0, SVG Export Plug-In . SVG Version: 6.00 Build 0)  -->
<svg version="1.1" id="Layer_1" focusable="false" xmlns="http://www.w3.org/2000/svg" xmlns:xlink="http://www.w3.org/1999/xlink"
	 x="0px" y="0px" viewBox="0 0 512 512" style="enable-background:new 0 0 512 512;" xml:space="preserve">
<style type="text/css">
	.st0{fill:#A35C2E;}
</style>
<g>
	<polygon class="st0" points="283.3,23 282,23 282,150 410.3,150 	"/>
	<path class="st0" d="M286.4,316.6h-8.3v32.7h8.3c11.2,0,16.8-5.5,16.8-16.5C303.1,322,297.5,316.6,286.4,316.6z"/>
	<path class="st0" d="M238.8,216c-6.3,0-11.9-2.5-16-6.6l-0.2-0.2c-4.1-4.1-6.6-9.7-6.6-15.9V23h-84c-16.9,0-30.6,13.7-30.6,30.7
		v404.7c0,16.9,13.7,30.7,30.6,30.7h247.7c16.9,0,30.7-13.7,30.7-30.7V216H238.8z M224.1,403.4h-23.3l-15.5-67.3
		c-0.8-3.5-1.3-7.4-1.5-11.8h-0.3c-0.4,4.8-1,8.7-1.7,11.8l-15.9,67.3h-24.2l-24.5-104.9h22.9l13.1,69.8c0.6,3,1,7,1.2,12h0.4
		c0.2-3.8,0.8-7.8,1.9-12.3l16.9-69.5h22.5l15.3,70.4c0.6,2.6,1.1,6.3,1.5,11.3h0.3c0.2-3.9,0.6-7.8,1.4-11.7l12.9-70h21.2
		L224.1,403.4z M315.1,357.5c-6.7,6.5-15.7,9.8-27,9.8h-10v36.1h-21V298.5H290c23.5,0,35.2,11.1,35.2,33.4
		C325.2,342.4,321.9,351,315.1,357.5z M393.3,388.6c-2,4-4.6,7.2-8,9.7c-3.4,2.5-7.3,4.2-11.8,5.3c-4.5,1.1-9.2,1.6-14.2,1.6
		c-5.1,0-10-0.5-14.6-1.5c-4.6-1-8.6-2.4-12-4.4v-23.4c3.8,3.6,7.9,6.2,12.3,8c4.4,1.8,8.9,2.7,13.4,2.7c2.6,0,5-0.3,6.9-0.8
		c2-0.5,3.6-1.3,4.9-2.2c1.3-1,2.3-2.1,3-3.4c0.7-1.3,1-2.7,1-4.2c0-2-0.5-3.9-1.6-5.5c-1-1.6-2.5-3.1-4.3-4.5
		c-1.8-1.4-3.9-2.7-6.4-3.9s-5.1-2.6-8-3.9c-7.3-3.4-12.7-7.6-16.3-12.5c-3.6-4.9-5.4-10.9-5.4-17.8c0-5.5,1-10.2,2.9-14.1
		c2-3.9,4.6-7.2,8-9.7c3.4-2.5,7.2-4.4,11.7-5.6c4.4-1.2,9.1-1.8,14-1.8c4.9,0,9.2,0.3,12.9,1c3.7,0.7,7.2,1.7,10.4,3v21.9
		c-1.6-1.2-3.3-2.3-5.1-3.2s-3.7-1.7-5.7-2.3s-3.9-1.1-5.8-1.4c-1.9-0.3-3.8-0.4-5.5-0.4c-2.4,0-4.5,0.3-6.5,0.8s-3.6,1.2-4.9,2.2
		c-1.3,0.9-2.4,2-3.1,3.3c-0.7,1.3-1.1,2.7-1.1,4.4c0,1.8,0.4,3.3,1.2,4.7c0.8,1.4,2,2.7,3.5,3.9c1.5,1.2,3.4,2.5,5.5,3.7
		c2.2,1.2,4.6,2.4,7.3,3.7c3.7,1.8,7.1,3.6,10,5.6c3,2,5.5,4.2,7.6,6.7c2.1,2.5,3.7,5.3,4.9,8.5c1.1,3.2,1.7,6.9,1.7,11.2
		C396.3,379.7,395.3,384.6,393.3,388.6z"/>
</g>
</svg>
