<?xml version="1.0" encoding="utf-8"?>
<!-- Generator: Adobe Illustrator 23.1.0, SVG Export Plug-In . SVG Version: 6.00 Build 0)  -->
<svg version="1.1" id="Layer_1" focusable="false" xmlns="http://www.w3.org/2000/svg" xmlns:xlink="http://www.w3.org/1999/xlink"
	 x="0px" y="0px" viewBox="0 0 512 512" style="enable-background:new 0 0 512 512;" xml:space="preserve">
<style type="text/css">
	.st0{fill:#330000;}
</style>
<g>
	<path class="st0" d="M249,317.7h-11.6v66.5h11.7c10.2,0,18.3-3.1,24.1-9.2c5.8-6.1,8.7-14.5,8.7-25.1c0-10-2.9-17.9-8.7-23.6
		C267.6,320.6,259.5,317.7,249,317.7z"/>
	<path class="st0" d="M159.9,316.6h-9.3v32.7h9.3c12.6,0,18.9-5.5,18.9-16.5C178.7,322,172.5,316.6,159.9,316.6z"/>
	<polygon class="st0" points="283.3,23 282,23 282,150 410.3,150 	"/>
	<path class="st0" d="M238.8,216c-6.3,0-11.9-2.5-16-6.6l-0.2-0.2c-4.1-4.1-6.6-9.7-6.6-15.9V23h-84c-16.9,0-30.6,13.7-30.6,30.7
		v404.7c0,16.9,13.7,30.7,30.6,30.7h247.7c16.9,0,30.7-13.7,30.7-30.7V216H238.8z M192.2,357.5c-7.6,6.5-17.7,9.8-30.4,9.8h-11.3
		v36.1H127V298.5h37c26.4,0,39.6,11.1,39.6,33.4C203.6,342.4,199.8,351,192.2,357.5z M291.6,388.7c-10.2,9.8-23.7,14.6-40.6,14.6
		h-37.2V298.5H251c37.2,0,55.9,17,55.9,51.1C306.9,365.9,301.8,379,291.6,388.7z M381.8,317.7h-37v25.7h34v19.2h-34v40.7h-23.6
		V298.5h60.6V317.7z"/>
</g>
</svg>
