<?xml version="1.0" encoding="utf-8"?>
<!-- Generator: Adobe Illustrator 26.4.1, SVG Export Plug-In . SVG Version: 6.00 Build 0)  -->
<svg version="1.1" id="Layer_1" focusable="false" xmlns="http://www.w3.org/2000/svg" xmlns:xlink="http://www.w3.org/1999/xlink"
	 x="0px" y="0px" viewBox="0 0 512 512" style="enable-background:new 0 0 512 512;" xml:space="preserve">
<style type="text/css">
	.st0{fill:#FFFFFF;}
</style>
<path class="st0" d="M309.6,116.6c-43.3,18.3-87.7,29.5-134.3,28.4c-28.4-0.7-56.8-0.1-85.2-0.1c-2,0-3.9,0.2-5.7,0.5v152.8
	c3.7,0.6,7.5,0.6,11.2,0.3c4.4-0.3,6.3,1.3,7.7,6.1c11.3,38.6,22.8,114.3,34.3,152.9c2.5,8.3,4.9,10.2,12.8,10.2
	c11.1,0,22.1,0,33.2,0c10.5,0,13.5-3.3,13.5-15c0-36.7,0-110.7,0-147.4c0-1.8,0-3.7,0-6.2c18.8,0.6,36.5,3.6,54,8.1
	c44.4,11.3,86.2,30.1,125.9,54.8c1.4,0.9,2.7,1.5,4,1.9V79.6c-1.1,0.4-2.3,0.9-3.5,1.7C355.7,95.1,333,106.7,309.6,116.6z
	 M1.4,221.8c0,28.5,17.6,52.7,46.4,65.7V156.2C18.7,169.3,1.3,193.1,1.4,221.8z M469.7,158.7V72.3c0-14.3-11.6-26-26-26h0
	c-14.3,0-26,11.6-26,26v299c0,14.3,11.6,26,26,26h0c14.3,0,26-11.6,26-26V285c26-13.5,41.3-36.2,41.3-63.1
	C511,195.1,495.5,172.2,469.7,158.7z"/>
</svg>
