<?xml version="1.0" encoding="utf-8"?>
<!-- Generator: Adobe Illustrator 23.1.0, SVG Export Plug-In . SVG Version: 6.00 Build 0)  -->
<svg version="1.1" id="Layer_1" focusable="false" xmlns="http://www.w3.org/2000/svg" xmlns:xlink="http://www.w3.org/1999/xlink"
	 x="0px" y="0px" viewBox="0 0 512 512" style="enable-background:new 0 0 512 512;" xml:space="preserve">
<style type="text/css">
	.st0{fill:#FFFFFF;}
</style>
<g>
	<g>
		<path class="st0" d="M471.9,208.5H40.2c-16.2,0-29.4,13.2-29.4,29.4v36.2c0,16.2,13.2,29.4,29.4,29.4h431.6
			c16.3,0,29.5-13.2,29.5-29.4v-36.2C501.3,221.7,488.1,208.5,471.9,208.5z M471.9,390.5H40.2c-16.2,0-29.4,13.2-29.4,29.4v36.2
			c0,16.2,13.2,29.4,29.4,29.4h431.6c16.3,0,29.5-13.2,29.5-29.4v-36.2C501.3,403.7,488.1,390.5,471.9,390.5z M471.9,26.5H40.2
			c-16.2,0-29.4,13.2-29.4,29.4v36.2c0,16.2,13.2,29.4,29.4,29.4h431.6c16.3,0,29.5-13.2,29.5-29.4V55.9
			C501.3,39.7,488.1,26.5,471.9,26.5z"/>
	</g>
</g>
</svg>
