<?xml version="1.0" encoding="utf-8"?>
<!-- Generator: Adobe Illustrator 23.1.0, SVG Export Plug-In . SVG Version: 6.00 Build 0)  -->
<svg version="1.1" id="Layer_1" focusable="false" xmlns="http://www.w3.org/2000/svg" xmlns:xlink="http://www.w3.org/1999/xlink"
	 x="0px" y="0px" viewBox="0 0 512 512" style="enable-background:new 0 0 512 512;" xml:space="preserve">
<style type="text/css">
	.st0{fill:#FFFFFF;}
</style>
<path class="st0" d="M117.7,60.5h276V124h50V27.2c0-9.2-7.5-16.7-16.7-16.7H84.4c-9.2,0-16.7,7.5-16.7,16.7V124h50V60.5z
	 M363.2,312.5h-215V351h215V312.5z M487,162.5H24.4c-9.2,0-16.7,7.5-16.7,16.7v223.5c0,9.2,7.5,16.7,16.7,16.7h43.3v67.8
	c0,9.2,7.5,16.7,16.7,16.7H427c9.2,0,16.7-7.5,16.7-16.7v-67.8H487c9.2,0,16.7-7.5,16.7-16.7V179.2C503.7,170,496.2,162.5,487,162.5
	z M393.7,453.9h-276V281h276V453.9z M286,383.9H148.2v38.5H286V383.9z"/>
</svg>
