<?xml version="1.0" encoding="utf-8"?>
<!-- Generator: Adobe Illustrator 23.1.0, SVG Export Plug-In . SVG Version: 6.00 Build 0)  -->
<svg version="1.1" id="Layer_1" focusable="false" xmlns="http://www.w3.org/2000/svg" xmlns:xlink="http://www.w3.org/1999/xlink"
	 x="0px" y="0px" viewBox="0 0 512 512" style="enable-background:new 0 0 512 512;" xml:space="preserve">
<style type="text/css">
	.st0{fill:#FFFFFF;}
</style>
<path class="st0" d="M5.7,485.7c0,9.2,7.5,16.7,16.7,16.7H485c9.2,0,16.7-7.5,16.7-16.7V200.5H5.7V485.7z M138.8,371.3
	c6.3-6.7,12.8-13.3,19.5-19.5c5.3-4.9,11.8-4.6,16.9,0.4c15.2,14.9,30.4,29.8,45.6,44.8c1.3,1.2,2.6,2.4,4.3,4.1
	c5.1-7.4,9.9-14.6,14.7-21.7c30.2-44.2,60.3-88.5,90.5-132.7c7-10.2,12.8-11.2,23-4.3c6,4,11.9,8.2,17.6,12.5
	c7,5.3,8.2,11.6,3.3,18.9c-14.2,21.3-28.5,42.5-42.9,63.7c-28.2,41.4-56.4,82.8-84.7,124.2c-8.1,11.8-20.7,13.4-30.9,3.4
	c-25.7-25.3-51.2-50.9-76.6-76.5C133.7,383.2,133.6,376.9,138.8,371.3z M501.8,162c-17.7-44.5-34.4-89.4-53.3-133.5
	c-4.4-9.1-13.6-16.7-23.9-17.4c-51.4,0-102.9,0-154.3,0c4.8,50.2,5.9,100.6,9.6,150.9C353.9,162,427.8,162,501.8,162z M237.2,11.1
	c-51.4,0-102.9,0-154.3,0c-9.7,0.5-18.8,6.8-23,15.5C40.9,71.4,23.5,116.8,5.7,162c74,0,147.9,0,221.9,0
	C229.7,111.6,235.3,61.5,237.2,11.1z"/>
</svg>
