<?xml version="1.0" encoding="utf-8"?>
<!-- Generator: Adobe Illustrator 23.1.0, SVG Export Plug-In . SVG Version: 6.00 Build 0)  -->
<svg version="1.1" id="Layer_1" focusable="false" xmlns="http://www.w3.org/2000/svg" xmlns:xlink="http://www.w3.org/1999/xlink"
	 x="0px" y="0px" viewBox="0 0 512 512" style="enable-background:new 0 0 512 512;" xml:space="preserve">
<style type="text/css">
	.st0{fill:#A35C2E;}
</style>
<g>
	<path class="st0" d="M150.4,317.7h-10.9v66.5h11c9.6,0,17.2-3.1,22.7-9.2c5.5-6.1,8.2-14.5,8.2-25.1c0-10-2.7-17.9-8.2-23.6
		C167.9,320.6,160.3,317.7,150.4,317.7z"/>
	<path class="st0" d="M261.6,317.1c-7.8,0-14,3.1-18.6,9.3c-4.6,6.2-6.9,14.4-6.9,24.7c0,10.4,2.3,18.6,6.9,24.6
		c4.6,6,10.6,9.1,18,9.1c7.7,0,13.8-2.9,18.3-8.8c4.5-5.9,6.8-14,6.8-24.5c0-10.9-2.2-19.3-6.5-25.4
		C275.1,320.1,269.2,317.1,261.6,317.1z"/>
	<polygon class="st0" points="283.3,23 282,23 282,150 410.3,150 	"/>
	<path class="st0" d="M238.8,216c-6.3,0-11.9-2.5-16-6.6l-0.1-0.1l-0.1-0.1c-4.1-4.1-6.6-9.7-6.6-15.9v-0.1V23h-84
		c-16.9,0-30.6,13.7-30.6,30.7v404.7c0,16.9,13.7,30.7,30.6,30.7h247.7c16.9,0,30.7-13.7,30.7-30.7V216H238.8z M190.5,388.7
		c-9.6,9.8-22.3,14.6-38.3,14.6h-35V298.5h35c35.1,0,52.6,17,52.6,51.1C204.9,365.9,200.1,379,190.5,388.7z M295.9,390
		c-9,10.1-20.8,15.1-35.3,15.1c-14.1,0-25.7-4.9-34.6-14.7c-8.9-9.8-13.4-22.5-13.4-38.2c0-16.6,4.5-30,13.6-40.2
		c9-10.2,21-15.4,36-15.4c14.1,0,25.5,4.9,34.2,14.7c8.7,9.8,13.1,22.7,13.1,38.8C309.5,366.7,304.9,380,295.9,390z M394.2,323.4
		c-6.6-4.2-14.1-6.3-22.6-6.3c-9.3,0-16.8,3.1-22.5,9.3c-5.7,6.2-8.5,14.6-8.5,25.2c0,10.1,2.7,18.2,8.1,24.2c5.4,6,12.6,9,21.7,9
		c8.7,0,16.6-2.2,23.8-6.7v21.6c-7.2,3.7-16.6,5.6-28.2,5.6c-15.2,0-27.1-4.7-35.7-14.2c-8.7-9.5-13-22.1-13-37.8
		c0-16.8,4.9-30.4,14.6-40.8c9.8-10.4,22.4-15.7,38-15.7c9.6,0,17.8,1.3,24.4,3.9V323.4z"/>
</g>
</svg>
