<?xml version="1.0" encoding="utf-8"?>
<!-- Generator: Adobe Illustrator 23.1.0, SVG Export Plug-In . SVG Version: 6.00 Build 0)  -->
<svg version="1.1" id="Layer_1" focusable="false" xmlns="http://www.w3.org/2000/svg" xmlns:xlink="http://www.w3.org/1999/xlink"
	 x="0px" y="0px" viewBox="0 0 512 512" style="enable-background:new 0 0 512 512;" xml:space="preserve">
<style type="text/css">
	.st0{fill:#FFFFFF;}
</style>
<path class="st0" d="M237.2,11.1H82.9c-9.7,0.5-18.8,6.8-23,15.5C40.9,71.4,23.5,116.8,5.7,162h221.9
	C229.7,111.6,235.3,61.5,237.2,11.1z M501.8,162c-17.7-44.5-34.4-89.4-53.3-133.5c-4.4-9.1-13.6-16.7-23.9-17.4H270.3
	c4.8,50.2,5.9,100.6,9.6,150.9H501.8z M5.7,485.7c0,9.2,7.5,16.7,16.7,16.7H485c9.2,0,16.7-7.5,16.7-16.7V200.5H5.7V485.7z
	 M154.7,414c0,0,109.8,0.2,110.8,0.2c18.4,0,33.3-19.9,33.3-38.3c0-18.4-14.9-38.3-33.3-38.3c-1,0-2,0.1-2.9,0.1v29.4
	c0,11.7-5.4,16.2-5.4,16.2c-7.2,7.2-18.9,7.2-26.1,0l-58.6-58.6c-7.2-7.2-7.2-18.9,0-26.1l58.7-58.6c7.2-7.2,18.9-7.2,26.1,0
	c0,0,5.4,6.7,5.4,15.1v28.6c1,0,1.9-0.1,2.9-0.1c48.2,0,87.2,44,87.2,92.2c-0.1,48.3-39.1,92.3-87.3,92.3c-1,0-110.8-0.1-110.8-0.1
	V414z"/>
</svg>
