<?xml version="1.0" encoding="utf-8"?>
<!-- Generator: Adobe Illustrator 23.1.0, SVG Export Plug-In . SVG Version: 6.00 Build 0)  -->
<svg version="1.1" id="Layer_1" focusable="false" xmlns="http://www.w3.org/2000/svg" xmlns:xlink="http://www.w3.org/1999/xlink"
	 x="0px" y="0px" viewBox="0 0 512 512" style="enable-background:new 0 0 512 512;" xml:space="preserve">
<style type="text/css">
	.st0{fill-rule:evenodd;clip-rule:evenodd;fill:#FFFFFF;}
</style>
<g>
	<circle class="st0" cx="380.2" cy="400.8" r="59"/>
	<circle class="st0" cx="136.8" cy="400.8" r="59"/>
	<path class="st0" d="M446.7,257h-5.2l-14.2-130c0-33.1-26.9-60-60-60H35.8C18.9,67,5.3,80.7,5.3,97.5v272.8
		c0,16.8,13.7,30.5,30.5,30.5h13c0-48.6,39.4-88,88-88s88,39.4,88,88h67.4c0-48.6,39.4-88,88-88s88,39.4,88,88h38.6V317
		C506.7,283.9,479.9,257,446.7,257z M325.3,276V150h76.5l10.7,126H325.3z"/>
</g>
</svg>
