<?xml version="1.0" encoding="utf-8"?>
<!-- Generator: Adobe Illustrator 23.1.0, SVG Export Plug-In . SVG Version: 6.00 Build 0)  -->
<svg version="1.1" id="Layer_1" focusable="false" xmlns="http://www.w3.org/2000/svg" xmlns:xlink="http://www.w3.org/1999/xlink"
	 x="0px" y="0px" viewBox="0 0 512 512" style="enable-background:new 0 0 512 512;" xml:space="preserve">
<style type="text/css">
	.st0{fill:#A35C2E;}
</style>
<g>
	<g>
		<path class="st0" d="M301.8,287.8H210c-8.3,0-15,6.7-15,15v183.8h121.7V302.8C316.8,294.5,310,287.8,301.8,287.8z M128.3,327.1
			H36.5c-8.3,0-15,6.7-15,15v144.5h121.7V342.1C143.3,333.8,136.5,327.1,128.3,327.1z M475.3,211.6h-91.7c-8.3,0-15,6.7-15,15v260
			h121.7v-260C490.3,218.3,483.6,211.6,475.3,211.6z M477,25.3h-81.9c-9.7,0.1-17.5,7.8-17.4,17.4c0,0-0.6,6.6,7.2,14.4l11.7,11.7
			c0,0-77.5,60.8-171.4,97C131.4,202,39.3,206.6,39.3,206.6c-9.8,0-17.8,8-17.8,17.8v35.4c0,9.8,8,17.8,17.8,17.8
			c0,0,126.3-11.3,213-45s194.5-113.5,194.5-113.5c6.4,6.4,11.1,11.1,12.5,12.5c5.6,5.6,13.6,6.4,13.6,6.4c9.6,0,17.4-7.8,17.4-17.4
			l0.1-81.9C490.5,29.1,486.7,25.3,477,25.3z"/>
	</g>
</g>
</svg>
