<?xml version="1.0" encoding="utf-8"?>
<!-- Generator: Adobe Illustrator 23.1.0, SVG Export Plug-In . SVG Version: 6.00 Build 0)  -->
<svg version="1.1" id="Layer_1" focusable="false" xmlns="http://www.w3.org/2000/svg" xmlns:xlink="http://www.w3.org/1999/xlink"
	 x="0px" y="0px" viewBox="0 0 512 512" style="enable-background:new 0 0 512 512;" xml:space="preserve">
<style type="text/css">
	.st0{fill:#A35C2E;}
</style>
<path class="st0" d="M501.8,162c-17.7-44.5-34.4-89.4-53.3-133.5c-4.4-9.1-13.6-16.7-23.9-17.4H270.3c4.8,50.2,5.9,100.6,9.6,150.9
	H501.8z M237.2,11.1H82.9c-9.7,0.5-18.8,6.8-23,15.5C40.9,71.4,23.5,116.8,5.7,162h221.9C229.7,111.6,235.3,61.5,237.2,11.1z
	 M5.7,485.7c0,9.2,7.5,16.7,16.7,16.7H85V418H5.7V485.7z M5.7,359H85V254c0-10.1,8.2-18.2,18.2-18.2h22.4c10.1,0,18.2,8.2,18.2,18.2
	v105h79.5h25.5c10.1,0,18.2,8.2,18.2,18.2v22.4c0,10.1-8.2,18.2-18.2,18.2h-25.5h-79.5v84.4H485c9.2,0,16.7-7.5,16.7-16.7v-285H5.7
	V359z"/>
</svg>
