<?xml version="1.0" encoding="utf-8"?>
<!-- Generator: Adobe Illustrator 23.1.0, SVG Export Plug-In . SVG Version: 6.00 Build 0)  -->
<svg version="1.1" id="Layer_1" focusable="false" xmlns="http://www.w3.org/2000/svg" xmlns:xlink="http://www.w3.org/1999/xlink"
	 x="0px" y="0px" viewBox="0 0 512 512" style="enable-background:new 0 0 512 512;" xml:space="preserve">
<style type="text/css">
	.st0{fill:#330000;}
</style>
<path class="st0" d="M495,92.8c-28.7,43-57.5,85.8-86.6,128.6c-56.9,83.6-113.9,167.2-171,250.8c-16.4,23.8-41.8,27.1-62.4,6.9
	C123.1,428,71.6,376.3,20.3,324.6C9.4,313.7,9.2,301,19.7,289.7c12.7-13.5,25.8-26.9,39.4-39.4c10.7-9.9,23.8-9.3,34.1,0.8
	c30.7,30.1,61.4,60.2,92.1,90.5c2.6,2.4,5.2,4.8,8.7,8.3c10.3-14.9,20-29.5,29.7-43.8c61-89.2,121.7-178.7,182.7-267.9
	c14.1-20.6,25.8-22.6,46.4-8.7c12.1,8.1,24,16.6,35.5,25.2C502.5,65.4,504.9,78.1,495,92.8z"/>
</svg>
