<?xml version="1.0" encoding="utf-8"?>
<!-- Generator: Adobe Illustrator 23.1.0, SVG Export Plug-In . SVG Version: 6.00 Build 0)  -->
<svg version="1.1" id="Layer_1" focusable="false" xmlns="http://www.w3.org/2000/svg" xmlns:xlink="http://www.w3.org/1999/xlink"
	 x="0px" y="0px" viewBox="0 0 512 512" style="enable-background:new 0 0 512 512;" xml:space="preserve">
<style type="text/css">
	.st0{fill:#A35C2E;}
</style>
<path class="st0" d="M228.9,103.3c0,0-11.9,9.8-11.9,35.5c0,5.6,0,19.7,0,38.5h-89.5c-22.9,0-41.5,18.6-41.5,41.5v82.3
	c0,22.9,18.6,41.5,41.5,41.5H217c0,21.1,0,36.6,0,41.1c0,18.4,11.8,33,11.8,33c15.8,15.8,41.4,15.8,57.1,0l128.3-128.1
	c15.8-15.8,15.8-41.4,0-57.1L286,103.3C270.2,87.5,244.6,87.5,228.9,103.3z"/>
</svg>
