<?xml version="1.0" encoding="utf-8"?>
<!-- Generator: Adobe Illustrator 23.1.0, SVG Export Plug-In . SVG Version: 6.00 Build 0)  -->
<svg version="1.1" id="Layer_1" focusable="false" xmlns="http://www.w3.org/2000/svg" xmlns:xlink="http://www.w3.org/1999/xlink"
	 x="0px" y="0px" viewBox="0 0 512 512" style="enable-background:new 0 0 512 512;" xml:space="preserve">
<style type="text/css">
	.st0{fill:#A35C2E;}
</style>
<path class="st0" d="M442.2,375l-119-119l148.1-148.1c11.5-11.5,11.5-30.1,0-41.6l-25.6-25.6c-11.5-11.5-30.1-11.5-41.6,0L256,188.8
	l-119-119l-29.1-29.1c-11.5-11.5-30.1-11.5-41.6,0L40.7,66.3c-11.5,11.5-11.5,30.1,0,41.6L69.8,137l0,0l119,119L40.7,404.1
	c-11.5,11.5-11.5,30.1,0,41.6l25.6,25.6c11.5,11.5,30.1,11.5,41.6,0L256,323.2l119,119l0,0l29.1,29.1c11.5,11.5,30.1,11.5,41.6,0
	l25.6-25.6c11.5-11.5,11.5-30.1,0-41.6L442.2,375z"/>
</svg>
