<?xml version="1.0" encoding="utf-8"?>
<!-- Generator: Adobe Illustrator 23.1.0, SVG Export Plug-In . SVG Version: 6.00 Build 0)  -->
<svg version="1.1" id="Layer_1" focusable="false" xmlns="http://www.w3.org/2000/svg" xmlns:xlink="http://www.w3.org/1999/xlink"
	 x="0px" y="0px" viewBox="0 0 512 512" style="enable-background:new 0 0 512 512;" xml:space="preserve">
<style type="text/css">
	.st0{fill:#A35C2E;}
	.st1{fill:#FFFFFF;}
</style>
<path class="st0" d="M370.7,10.8h-346C15.5,10.8,8,18.3,8,27.5v457c0,9.2,7.5,16.7,16.7,16.7h462.6c9.2,0,16.7-7.5,16.7-16.7V144.1
	L370.7,10.8z"/>
<path class="st1" d="M330.5,188.5h-264c-8,0-14.5-6.5-14.5-14.5V74.5c0-8,6.5-14.5,14.5-14.5h264c8,0,14.5,6.5,14.5,14.5V174
	C345,182,338.5,188.5,330.5,188.5z"/>
<circle class="st1" cx="256" cy="352" r="96"/>
</svg>
