<?xml version="1.0" encoding="utf-8"?>
<!-- Generator: Adobe Illustrator 23.1.0, SVG Export Plug-In . SVG Version: 6.00 Build 0)  -->
<svg version="1.1" id="Layer_1" focusable="false" xmlns="http://www.w3.org/2000/svg" xmlns:xlink="http://www.w3.org/1999/xlink"
	 x="0px" y="0px" viewBox="0 0 512 512" style="enable-background:new 0 0 512 512;" xml:space="preserve">
<style type="text/css">
	.st0{fill:#330000;}
</style>
<path class="st0" d="M457.6,393l-73.8-73.8c38.2-66.6,28.9-153-28-209.9c-68.1-68.1-178.5-68.1-246.5,0c-68.1,68.1-68,178.5,0,246.5
	c56.9,56.9,143.3,66.3,209.9,28l73.8,73.8c5.5,5.5,14.5,5.5,20,0l44.6-44.6C463.1,407.5,463.1,398.5,457.6,393z M165.4,299.7
	c-37.1-37.1-37.1-97.2,0-134.3c37.1-37.1,97.2-37.1,134.3,0c37.1,37.1,37.1,97.2,0,134.3C262.6,336.8,202.5,336.8,165.4,299.7z"/>
</svg>
